<?xml version="1.0" standalone="no"?>
<!DOCTYPE svg PUBLIC "-//W3C//DTD SVG 1.1//EN" "http://www.w3.org/Graphics/SVG/1.1/DTD/svg11.dtd" >
<svg xmlns="http://www.w3.org/2000/svg" xmlns:xlink="http://www.w3.org/1999/xlink" version="1.1">
<metadata>
Created by FontForge 20190801 at Sat Nov 23 23:54:23 2024
 By www-data
(c) 2002-2024 Typodermic Fonts Inc.
</metadata>
<defs>
<font id="VinqueRg" horiz-adv-x="517" >
  <font-face 
    font-family="VinqueRg"
    font-weight="400"
    font-stretch="normal"
    units-per-em="1000"
    panose-1="2 14 6 3 0 0 0 2 0 3"
    ascent="800"
    descent="-200"
    x-height="505"
    cap-height="800"
    bbox="-464 -194 1275 1081"
    underline-thickness="50"
    underline-position="-125"
    unicode-range="U+0020-FB04"
  />
<missing-glyph horiz-adv-x="474" 
d="M444 767v-845q0 -84 -98 -84h-220q-97 0 -97 84v845q0 85 97 85h220q98 0 98 -85zM346 772h-220q-17 0 -17 -15v-825q0 -14 17 -14h220q18 0 18 14v825q0 15 -18 15z" />
    <glyph glyph-name="f_f" unicode="ff" horiz-adv-x="620" 
d="M637 684l-3 -11l-87 -70l-8 4q-7 25 -35 25q-17 0 -50 -14q20 -38 20 -87v-26h116l-32 -89h-84v-416h-131v416h-145v-416h-131v416h-63l4 22q53 30 53 65q0 43 -57 46l4 18q171 163 299 205q22 -51 82 -65l-3 -11l-87 -70l-8 4q-7 25 -32 25q-32 0 -81 -37q20 -38 20 -87
v-26h116q23 0 23 17q0 29 -57 27l4 18q148 142 271 182q22 -51 82 -65z" />
    <glyph glyph-name="fi" unicode="fi" horiz-adv-x="559" 
d="M467 650l-3 -11l-87 -70l-8 4q-10 59 -108 59q-48 0 -83 -14q20 -38 20 -87v-26h179q39 0 65.5 -30.5t26.5 -70.5v-268q0 -65 64 -65l-4 -24l-89 -56l-102 76v286q0 37 -13 50t-48 13h-79v-416h-131v416h-63l4 22q53 30 53 65q0 43 -57 46l4 18q93 91 174.5 128.5
t176.5 53.5q11 -30 45 -61t63 -38z" />
    <glyph glyph-name="fl" unicode="fl" horiz-adv-x="564" 
d="M474 753v-617q0 -65 64 -65l-4 -24l-89 -56l-102 76v510q0 33 -14 48t-45 15q-61 0 -106 -22q20 -38 20 -87v-26h107l-32 -89h-75v-416h-131v416h-63l4 22q53 30 53 65q0 43 -57 46l4 18q92 84 158.5 122.5t137.5 59.5q6 -15 25.5 -25t44.5 -10q48 0 100 39z" />
    <glyph glyph-name="f_f_i" unicode="ffi" horiz-adv-x="835" 
d="M743 650l-3 -11l-87 -70l-8 4q-10 59 -108 59q-48 0 -83 -14q20 -38 20 -87v-26h179q39 0 65.5 -30.5t26.5 -70.5v-268q0 -65 64 -65l-4 -24l-89 -56l-102 76v286q0 37 -13 50t-48 13h-79v-416h-131v416h-145v-416h-131v416h-63l4 22q53 30 53 65q0 43 -57 46l4 18
q171 163 299 205q22 -51 82 -65l-3 -11l-87 -70l-8 4q-7 25 -32 25q-32 0 -81 -37q20 -38 20 -87v-26h116q23 0 23 17q0 16 -13 21.5t-44 5.5l4 18q93 91 174.5 128.5t176.5 53.5q11 -30 45 -61t63 -38z" />
    <glyph glyph-name="f_f_l" unicode="ffl" horiz-adv-x="840" 
d="M750 753v-617q0 -65 64 -65l-4 -24l-89 -56l-102 76v510q0 33 -14 48t-45 15q-61 0 -106 -22q20 -38 20 -87v-26h107l-32 -89h-75v-416h-131v416h-145v-416h-131v416h-63l4 22q53 30 53 65q0 43 -57 46l4 18q171 163 299 205q22 -51 82 -65l-3 -11l-87 -70l-8 4
q-7 25 -32 25q-32 0 -81 -37q20 -38 20 -87v-26h116q23 0 23 17q0 29 -57 27l4 18q92 84 158.5 122.5t137.5 59.5q6 -15 25.5 -25t44.5 -10q48 0 100 39z" />
    <glyph glyph-name=".notdef" horiz-adv-x="474" 
d="M444 767v-845q0 -84 -98 -84h-220q-97 0 -97 84v845q0 85 97 85h220q98 0 98 -85zM346 772h-220q-17 0 -17 -15v-825q0 -14 17 -14h220q18 0 18 14v825q0 15 -18 15z" />
    <glyph glyph-name="uni0000" horiz-adv-x="0" 
 />
    <glyph glyph-name="uni0000" horiz-adv-x="0" 
 />
    <glyph glyph-name="nonmarkingreturn" horiz-adv-x="333" 
 />
    <glyph glyph-name="space" unicode=" " horiz-adv-x="300" 
 />
    <glyph glyph-name="exclam" unicode="!" horiz-adv-x="269" 
d="M52 746h165q-43 -319 -60 -541h-46q-13 240 -59 541zM137 179l77 -84l-87 -103l-77 91z" />
    <glyph glyph-name="quotedbl" unicode="&#x22;" horiz-adv-x="333" 
d="M306 709l-58 -215l-33 11l-5 147q-1 38 -35 40v11l70 61zM158 709l-58 -215l-33 11l-5 147q-1 38 -35 40v11l70 61z" />
    <glyph glyph-name="numbersign" unicode="#" horiz-adv-x="496" 
d="M422 746l-24 -227h112l-22 -87h-100l-12 -113h104l-22 -87h-91l-25 -232h-87l25 232h-95l-25 -232h-87l25 232h-111l22 87h98l12 113h-102l22 87h90l24 227h87l-24 -227h95l24 227h87zM206 432l-12 -113h95l12 113h-95z" />
    <glyph glyph-name="dollar" unicode="$" horiz-adv-x="506" 
d="M326 746v-96q83 -46 133 -97q-48 -15 -107 -74q-7 22 -26 42v-146q70 7 113 46q16 -36 26 -81.5t10 -73.5q0 -54 -41.5 -96.5t-107.5 -69.5v-100h-41v86l-53 -10v-76h-41v91q-121 48 -163 99q62 23 115 71q21 -40 48 -65v135q-66 -6 -107 -28q-51 83 -51 145
q0 53 40.5 94t117.5 82v122h41v-101l53 25v76h41zM232 379q24 -6 53 -6v178q-27 13 -53 17v-189zM285 322q-28 9 -53 10v-166q23 -12 53 -17v173zM137 493q0 -65 54 -97v176q-15 -1 -36 -5q-18 -41 -18 -74zM375 179q0 78 -49 119v-151q38 0 46 6q3 12 3 26z" />
    <glyph glyph-name="percent" unicode="%" horiz-adv-x="790" 
d="M214 752q72 -41 109 -100t37 -128q0 -79 -46 -132t-114 -70q-154 72 -154 209q0 68 40.5 116.5t127.5 104.5zM121 639q-15 -24 -15 -55q0 -64 47 -126t103 -62q20 0 39 10q10 24 10 58q0 69 -37.5 129t-94.5 60q-24 0 -52 -14zM686 761l-480 -768l-69 15l487 768z
M598 424q72 -41 109 -100t37 -128q0 -79 -46 -132t-114 -70q-154 72 -154 209q0 68 40.5 116.5t127.5 104.5zM505 311q-15 -24 -15 -55q0 -64 47 -126t103 -62q20 0 39 10q10 24 10 58q0 69 -37.5 129t-94.5 60q-24 0 -52 -14z" />
    <glyph glyph-name="ampersand" unicode="&#x26;" horiz-adv-x="742" 
d="M644 295v-83q0 -106 78 -161l-33 -46q-59 30 -132 30q-93 0 -211 -48q-111 7 -201 93t-115 210q52 101 217 153q-133 69 -133 153q0 64 70 114t167 50q128 -92 295 -92q22 0 33 1q-71 -55 -110 -113q-83 22 -162 68.5t-128 98.5q-47 -27 -47 -84q0 -55 43 -103t159 -112
l-11 -38q-63 30 -116 30q-57 0 -87 -33.5t-30 -75.5q0 -46 34.5 -103.5t90.5 -99.5t110 -42q39 0 55.5 30t16.5 113v90h147z" />
    <glyph glyph-name="quotesingle" unicode="'" horiz-adv-x="187" 
d="M158 709l-58 -215l-33 11l-5 147q-1 38 -35 40v11l70 61z" />
    <glyph glyph-name="parenleft" unicode="(" horiz-adv-x="428" 
d="M392 833l-9 -60q-86 -31 -139.5 -152t-53.5 -263q0 -93 23 -182t70.5 -157.5t108.5 -86.5l-8 -56q-90 21 -157 98t-98.5 175.5t-31.5 202.5q0 110 35.5 213t104 177.5t155.5 90.5z" />
    <glyph glyph-name="parenright" unicode=")" horiz-adv-x="428" 
d="M36 777l8 56q90 -21 157 -98t98.5 -175.5t31.5 -202.5q0 -110 -35.5 -213t-104 -177.5t-155.5 -90.5l9 60q86 31 139.5 152t53.5 263q0 93 -23 182t-70.5 157.5t-108.5 86.5z" />
    <glyph glyph-name="asterisk" unicode="*" horiz-adv-x="495" 
d="M412 658l-112 -111l153 -11l-41 -121l-133 75l32 -149h-127l30 151l-133 -77l-40 121l154 18l-114 104l103 74l66 -143l61 143z" />
    <glyph glyph-name="plus" unicode="+" horiz-adv-x="496" 
d="M489 419l-22 -87h-175v-186h-87v186h-199l22 87h177v186h87v-186h197z" />
    <glyph glyph-name="comma" unicode="," horiz-adv-x="234" 
d="M123 182l76 -86l-139 -173l-25 17l53 85l-53 60z" />
    <glyph glyph-name="hyphen" unicode="-" horiz-adv-x="364" 
d="M336 343l-37 -101q-25 13 -55 13h-128q-44 0 -67 -14l-21 10l37 101q25 -13 55 -13h128q44 0 67 14z" />
    <glyph glyph-name="period" unicode="." horiz-adv-x="234" 
d="M122 179l77 -84l-87 -103l-77 91z" />
    <glyph glyph-name="slash" unicode="/" horiz-adv-x="424" 
d="M424 816l-336 -947l-88 11l343 947z" />
    <glyph glyph-name="zero" unicode="0" horiz-adv-x="649" 
d="M158 576q-29 -53 -29 -115q0 -83 45 -167t116 -138.5t141 -54.5q39 0 73 19q19 41 19 107q0 90 -30.5 176t-91 145t-134.5 59q-54 0 -109 -31zM346 764q126 -76 191.5 -183.5t65.5 -230.5q0 -142 -81.5 -236.5t-203.5 -124.5q-55 26 -101.5 60t-86 79.5t-62 106
t-22.5 128.5q0 123 72 211t228 190z" />
    <glyph glyph-name="one" unicode="1" horiz-adv-x="275" 
d="M209 753v-753h-131v567q0 28 -17 44t-43 18l3 28z" />
    <glyph glyph-name="one" unicode="&#x4cf;" horiz-adv-x="275" 
d="M209 753v-753h-131v567q0 28 -17 44t-43 18l3 28z" />
    <glyph glyph-name="one" unicode="&#x4c0;" horiz-adv-x="275" 
d="M209 753v-753h-131v567q0 28 -17 44t-43 18l3 28z" />
    <glyph glyph-name="two" unicode="2" horiz-adv-x="690" 
d="M631 256l32 -7q-20 -141 -79 -200t-151 -59q-40 0 -142.5 15t-141.5 15q-53 0 -106 -33l-34 32q89 234 220 421q28 -32 76 -49t94 -17q49 0 68 19.5t19 53.5q0 80 -70.5 154.5t-127.5 74.5q-36 0 -57 -38.5t-24 -95.5q-52 40 -133 67q108 97 247 158q147 -61 215 -133
t68 -180q0 -51 -16 -84.5t-55 -73.5q-60 42 -156 42q-89 0 -156.5 -58.5t-136.5 -212.5q89 87 216 87q47 0 109.5 -16.5t80.5 -16.5q52 0 91.5 47.5t49.5 87.5z" />
    <glyph glyph-name="three" unicode="3" horiz-adv-x="646" 
d="M27 613l2 38q22 6 95 46q106 57 217 57q99 0 151 -37.5t52 -102.5q0 -97 -134 -165q204 -22 204 -183q0 -83 -62.5 -154.5t-211.5 -137.5q-249 26 -318 168q73 12 145 33q15 -106 195 -143q43 26 71 69.5t28 96.5q0 63 -46.5 106.5t-143.5 53.5l3 67q80 25 109 61.5
t29 96.5q0 65 -26.5 93t-83.5 28q-49 0 -78.5 -23.5t-51.5 -84.5q-15 -3 -32 -3q-57 0 -113 20z" />
    <glyph glyph-name="three" unicode="&#x417;" horiz-adv-x="646" 
d="M27 613l2 38q22 6 95 46q106 57 217 57q99 0 151 -37.5t52 -102.5q0 -97 -134 -165q204 -22 204 -183q0 -83 -62.5 -154.5t-211.5 -137.5q-249 26 -318 168q73 12 145 33q15 -106 195 -143q43 26 71 69.5t28 96.5q0 63 -46.5 106.5t-143.5 53.5l3 67q80 25 109 61.5
t29 96.5q0 65 -26.5 93t-83.5 28q-49 0 -78.5 -23.5t-51.5 -84.5q-15 -3 -32 -3q-57 0 -113 20z" />
    <glyph glyph-name="four" unicode="4" horiz-adv-x="646" 
d="M554 753l6 -7q-60 -123 -60 -182v-316l140 7l-1 -14q-36 -50 -71 -129h-18q-5 53 -50 53q0 -244 -185 -349l2 28q40 49 40 199v120h-337l-14 55q164 129 204 361q2 0 9.5 -5.5t20.5 -20t25.5 -34.5t23.5 -53t15 -71q-108 -28 -154 -161l207 7v221q0 92 -42 140
q116 54 239 151z" />
    <glyph glyph-name="five" unicode="5" horiz-adv-x="666" 
d="M475 565q-37 57 -105.5 82.5t-178.5 25.5q-27 -50 -27 -102q0 -146 185 -146q111 0 217 43q39 -87 69 -257q-24 -90 -120 -154.5t-214 -83.5q-80 23 -162 68.5t-118 84.5q84 29 153 76q46 -79 95.5 -113t111.5 -34q49 0 107 24q18 48 18 98q0 91 -61 142.5t-186 51.5
q-123 0 -185 -23q-26 82 -26 167q0 123 54 229q85 -6 173 -6q128 0 308 15q-36 -146 -108 -188z" />
    <glyph glyph-name="six" unicode="6" horiz-adv-x="620" 
d="M188 366q-7 -42 -7 -73q0 -84 49 -133q58 -60 160 -60q46 0 91 15q2 26 2 46q0 103 -43.5 165t-131.5 62q-64 0 -120 -22zM419 759l18 -30q-108 -67 -164 -142t-77 -176q90 19 140 95q117 0 181 -69t64 -167q0 -105 -70 -190.5t-191 -99.5q-95 126 -247 132
q-18 88 -18 168q0 358 364 479z" />
    <glyph glyph-name="seven" unicode="7" horiz-adv-x="583" 
d="M534 758l41 -36q-177 -179 -248 -351q-48 -118 -48 -240q0 -111 49 -111v-20h-190q-4 39 -4 83q0 113 24.5 189.5t82.5 148.5q37 47 95 109t67 66q-48 -15 -84 -15q-26 0 -67 14t-75 14q-36 0 -64 -18.5t-75 -79.5l-30 21l13 32.5t18 41t21 39.5t29.5 41t37 31.5
t49.5 24.5t61 8q40 0 111 -17.5t100 -17.5q50 0 86 43z" />
    <glyph glyph-name="eight" unicode="8" horiz-adv-x="607" 
d="M171 644q-13 -25 -13 -49q0 -31 18.5 -56.5t55.5 -45t76.5 -35.5t96.5 -35q7 -2 10 -3q48 24 48 68q0 52 -47 89.5t-104.5 53t-111.5 15.5q-15 0 -29 -2zM207 361q-59 -15 -59 -72q0 -55 43 -103.5t103 -75.5t115 -27q22 0 52 8q16 28 16 59q0 65 -64 114t-206 97z
M323 753q225 -88 225 -233q0 -37 -18 -65t-68 -56q49 -22 76 -68t27 -107q0 -54 -22 -97t-60.5 -70.5t-85 -44.5t-101.5 -25q-111 28 -183 92t-72 145q0 51 31 92.5t91 63.5q-44 21 -72.5 57.5t-28.5 86.5q0 74 65 125.5t196 103.5z" />
    <glyph glyph-name="nine" unicode="9" horiz-adv-x="620" 
d="M139 625q-2 -26 -2 -44q0 -98 43.5 -157.5t131.5 -59.5q63 0 120 21q12 36 12 69q0 91 -79 146q-60 41 -137 41q-47 0 -89 -16zM201 -20l-18 30q106 66 162.5 146t78.5 182q-90 -19 -140 -93q-117 0 -181 67t-64 164q0 102 70 185.5t191 97.5q97 -126 247 -132
q18 -89 18 -168q0 -358 -364 -479z" />
    <glyph glyph-name="colon" unicode=":" horiz-adv-x="235" 
d="M122 533l77 -84l-87 -103l-77 91zM122 199l77 -84l-87 -103l-77 91z" />
    <glyph glyph-name="semicolon" unicode=";" horiz-adv-x="235" 
d="M122 533l77 -84l-87 -103l-77 91zM123 202l76 -86l-139 -173l-25 17l53 85l-53 60z" />
    <glyph glyph-name="less" unicode="&#x3c;" horiz-adv-x="496" 
d="M394 610l49 -73l-259 -168l274 -179l-74 -50l-346 232z" />
    <glyph glyph-name="equal" unicode="=" horiz-adv-x="496" 
d="M489 519l-22 -87h-461l22 87h461zM489 319l-22 -87h-461l22 87h461z" />
    <glyph glyph-name="greater" unicode="&#x3e;" horiz-adv-x="496" 
d="M458 376l-356 -238l-49 73l259 168l-274 179l74 50z" />
    <glyph glyph-name="question" unicode="?" horiz-adv-x="579" 
d="M276 215h-101q-50 59 -50 112q0 50 44 100q61 -59 137 -59q54 0 83 33.5t29 96.5q0 68 -48 120.5t-113 52.5q-44 0 -69 -32t-36 -105q-67 55 -139 75q108 97 247 158q151 -65 217 -132.5t66 -157.5q0 -88 -68 -181q-11 4 -34 13.5t-32.5 13t-24.5 8.5t-25.5 7t-20.5 2
q-33 0 -55 -20t-22 -48q0 -24 15 -57zM234 179l76 -84l-87 -103l-77 91z" />
    <glyph glyph-name="at" unicode="@" horiz-adv-x="788" 
d="M470 144v112q-3 39 -27.5 68t-66.5 29q-6 0 -22 -2q-11 -36 -11 -70q0 -40 14 -70.5t28.5 -44t38.5 -29.5q25 7 46 7zM562 418v-285q55 9 81.5 60.5t26.5 122.5q0 122 -73.5 189.5t-178.5 67.5q-93 0 -180 -49q-43 -46 -68.5 -121.5t-25.5 -152.5q0 -143 85.5 -229.5
t207.5 -86.5q110 0 192 68l14 -45q-98 -80 -244 -80q-159 0 -258 94.5t-99 255.5t104 266t299 137q147 -25 229 -103t82 -211q0 -104 -52.5 -159t-163.5 -91l-56 41q-53 -6 -99 -43q-121 47 -121 173q0 38 10 67.5t32 52.5t41.5 37.5t54.5 35.5q48 -16 68 -66z" />
    <glyph glyph-name="uni0410" unicode="A" horiz-adv-x="764" 
d="M406 695h-80q0 -100 -19 -264h200l-21 191q-5 42 -21.5 57.5t-58.5 15.5zM666 746l-4 -44q-21 0 -32.5 -21t-7.5 -61l50 -464q12 -113 72 -113l-4 -43h-386l4 41q179 0 179 101q0 29 -7 83l-11 82h-238q-51 -185 -162 -319q-29 28 -123 111l20 21q10 -6 21 -6
q19 0 45.5 20.5t57 67t57.5 112t47.5 165.5t26.5 216h-196l10 51h581z" />
    <glyph glyph-name="uni0410" unicode="&#x410;" horiz-adv-x="764" 
d="M406 695h-80q0 -100 -19 -264h200l-21 191q-5 42 -21.5 57.5t-58.5 15.5zM666 746l-4 -44q-21 0 -32.5 -21t-7.5 -61l50 -464q12 -113 72 -113l-4 -43h-386l4 41q179 0 179 101q0 29 -7 83l-11 82h-238q-51 -185 -162 -319q-29 28 -123 111l20 21q10 -6 21 -6
q19 0 45.5 20.5t57 67t57.5 112t47.5 165.5t26.5 216h-196l10 51h581z" />
    <glyph glyph-name="uni0410" unicode="&#x391;" horiz-adv-x="764" 
d="M406 695h-80q0 -100 -19 -264h200l-21 191q-5 42 -21.5 57.5t-58.5 15.5zM666 746l-4 -44q-21 0 -32.5 -21t-7.5 -61l50 -464q12 -113 72 -113l-4 -43h-386l4 41q179 0 179 101q0 29 -7 83l-11 82h-238q-51 -185 -162 -319q-29 28 -123 111l20 21q10 -6 21 -6
q19 0 45.5 20.5t57 67t57.5 112t47.5 165.5t26.5 216h-196l10 51h581z" />
    <glyph glyph-name="B" unicode="B" horiz-adv-x="716" 
d="M238 557v-208l147 102q98 68 98 153q0 51 -27 77t-69 26q-22 0 -44.5 -6t-47.5 -21t-41 -47t-16 -76zM362 368l-123 -87v-82q0 -128 196 -167q42 25 70.5 69.5t28.5 96.5q0 62 -43 108t-129 62zM24 613l4 38q50 1 113.5 27t134 51t141.5 25q91 0 145.5 -37.5t54.5 -104.5
q0 -95 -134 -163q204 -24 204 -184q0 -85 -64 -154.5t-209 -136.5q-129 56 -226 56q-80 0 -141 -43l-27 41q68 45 68 104v397q0 81 -64 84z" />
    <glyph glyph-name="B" unicode="&#x412;" horiz-adv-x="716" 
d="M238 557v-208l147 102q98 68 98 153q0 51 -27 77t-69 26q-22 0 -44.5 -6t-47.5 -21t-41 -47t-16 -76zM362 368l-123 -87v-82q0 -128 196 -167q42 25 70.5 69.5t28.5 96.5q0 62 -43 108t-129 62zM24 613l4 38q50 1 113.5 27t134 51t141.5 25q91 0 145.5 -37.5t54.5 -104.5
q0 -95 -134 -163q204 -24 204 -184q0 -85 -64 -154.5t-209 -136.5q-129 56 -226 56q-80 0 -141 -43l-27 41q68 45 68 104v397q0 81 -64 84z" />
    <glyph glyph-name="B" unicode="&#x392;" horiz-adv-x="716" 
d="M238 557v-208l147 102q98 68 98 153q0 51 -27 77t-69 26q-22 0 -44.5 -6t-47.5 -21t-41 -47t-16 -76zM362 368l-123 -87v-82q0 -128 196 -167q42 25 70.5 69.5t28.5 96.5q0 62 -43 108t-129 62zM24 613l4 38q50 1 113.5 27t134 51t141.5 25q91 0 145.5 -37.5t54.5 -104.5
q0 -95 -134 -163q204 -24 204 -184q0 -85 -64 -154.5t-209 -136.5q-129 56 -226 56q-80 0 -141 -43l-27 41q68 45 68 104v397q0 81 -64 84z" />
    <glyph glyph-name="C" unicode="C" horiz-adv-x="773" 
d="M569 536l-24 30q2 10 2 15q0 34 -36.5 61t-96.5 27q-95 0 -158.5 -71t-63.5 -191q0 -129 72 -221.5t190 -92.5q145 0 256 155l33 -35q-37 -50 -69.5 -85.5t-76 -70.5t-95 -53t-108.5 -18q-147 0 -247.5 109.5t-100.5 267.5q0 168 114 279.5t282 111.5q146 0 257 -108
q-71 -51 -130 -110z" />
    <glyph glyph-name="C" unicode="&#x421;" horiz-adv-x="773" 
d="M569 536l-24 30q2 10 2 15q0 34 -36.5 61t-96.5 27q-95 0 -158.5 -71t-63.5 -191q0 -129 72 -221.5t190 -92.5q145 0 256 155l33 -35q-37 -50 -69.5 -85.5t-76 -70.5t-95 -53t-108.5 -18q-147 0 -247.5 109.5t-100.5 267.5q0 168 114 279.5t282 111.5q146 0 257 -108
q-71 -51 -130 -110z" />
    <glyph glyph-name="D" unicode="D" horiz-adv-x="761" 
d="M241 584l-1 -385q0 -123 91 -123q82 0 147.5 89t65.5 233q0 76 -20.5 135.5t-52 93t-64.5 50t-64 16.5q-41 0 -71 -28.5t-31 -80.5zM20 645l18 34q135 0 311 91q95 -22 183 -93t139 -151.5t60 -145.5q-95 -297 -394 -395q-109 33 -187 33q-52 0 -98 -34l-29 38
q72 66 72 154v335q0 67 -75 134z" />
    <glyph glyph-name="E" unicode="E" horiz-adv-x="772" 
d="M569 536l-24 30q2 10 2 15q0 34 -36.5 61t-96.5 27q-96 0 -162.5 -72.5t-66.5 -196.5l502 62q-49 -71 -95 -181h-18q-4 47 -63 50l-321 15q17 -108 88.5 -180.5t175.5 -72.5q145 0 256 155l33 -35q-37 -50 -69.5 -85.5t-76 -70.5t-95 -53t-108.5 -18q-147 0 -247.5 109.5
t-100.5 267.5q0 168 114 279.5t282 111.5q146 0 257 -108q-71 -51 -130 -110z" />
    <glyph glyph-name="E" unicode="&#x404;" horiz-adv-x="772" 
d="M569 536l-24 30q2 10 2 15q0 34 -36.5 61t-96.5 27q-96 0 -162.5 -72.5t-66.5 -196.5l502 62q-49 -71 -95 -181h-18q-4 47 -63 50l-321 15q17 -108 88.5 -180.5t175.5 -72.5q145 0 256 155l33 -35q-37 -50 -69.5 -85.5t-76 -70.5t-95 -53t-108.5 -18q-147 0 -247.5 109.5
t-100.5 267.5q0 168 114 279.5t282 111.5q146 0 257 -108q-71 -51 -130 -110z" />
    <glyph glyph-name="F" unicode="F" horiz-adv-x="562" 
d="M551 589l-2 -11l-120 -82q-74 40 -103 157q-70 -59 -70 -126v-103l250 22q-48 -82 -84 -165h-18q-2 21 -18.5 35t-44.5 15l-85 3v-177q0 -236 -184 -341v28q41 50 41 199v296l-87 4l4 61l83 7v15q0 92 -42 140l315 196q50 -118 165 -173z" />
    <glyph glyph-name="G" unicode="G" horiz-adv-x="824" 
d="M680 318h-280q-68 0 -103 -35l-18 24l262 257q5 5 5 16q0 33 -36 61t-97 28q-95 0 -157.5 -71t-62.5 -193q0 -137 76 -224.5t180 -87.5q88 0 159.5 61.5t71.5 163.5zM699 646l-224 -211h238q41 0 71 30l21 -25q-13 -34 -36 -45q-12 -100 -50.5 -180t-92.5 -129
t-115 -74.5t-123 -25.5q-97 0 -176 54t-122.5 141.5t-43.5 186.5q0 163 114 274.5t283 111.5q148 0 256 -108z" />
    <glyph glyph-name="H" unicode="H" horiz-adv-x="682" 
d="M563 746l-7 -51h-156q-91 0 -134.5 -18.5t-43.5 -60.5v-56q118 18 191 80q103 -14 163 -93.5t60 -181.5q0 -126 -91.5 -233.5t-225.5 -171.5l-26 24q89 54 147 138t58 186q0 90 -43.5 149.5t-107.5 59.5q-55 0 -125 -45v-308q0 -109 40 -131l-4 -33h-240l4 33
q56 34 56 97v486q0 22 -46 55l16 21q12 -3 28 -3q76 0 137 57h350z" />
    <glyph glyph-name="I" unicode="I" horiz-adv-x="533" 
d="M440 746l-4 -42q-107 0 -107 -67v-516q0 -74 131 -91q63 0 63 -44q0 -40 -57 -40q-58 0 -75 54h-317l4 41q107 0 107 69v515q0 73 -132 91q-63 0 -63 44q0 40 57 40q59 0 75 -54h318z" />
    <glyph glyph-name="I" unicode="&#x406;" horiz-adv-x="533" 
d="M440 746l-4 -42q-107 0 -107 -67v-516q0 -74 131 -91q63 0 63 -44q0 -40 -57 -40q-58 0 -75 54h-317l4 41q107 0 107 69v515q0 73 -132 91q-63 0 -63 44q0 40 57 40q59 0 75 -54h318z" />
    <glyph glyph-name="I" unicode="&#x399;" horiz-adv-x="533" 
d="M440 746l-4 -42q-107 0 -107 -67v-516q0 -74 131 -91q63 0 63 -44q0 -40 -57 -40q-58 0 -75 54h-317l4 41q107 0 107 69v515q0 73 -132 91q-63 0 -63 44q0 40 57 40q59 0 75 -54h318z" />
    <glyph glyph-name="uni0408" unicode="J" horiz-adv-x="523" 
d="M482 746l21 -18q-39 -68 -39 -153v-409q-43 -246 -309 -350v40q63 25 117 117.5t54 202.5q0 85 -32.5 173.5t-74.5 142.5l5 20q105 24 168 128q-81 -42 -146 -42q-27 0 -70 8.5t-71 8.5q-69 0 -112 -32l-24 17q46 75 87 109.5t92 49.5q76 -58 190 -58q94 0 144 45z" />
    <glyph glyph-name="uni0408" unicode="&#x408;" horiz-adv-x="523" 
d="M482 746l21 -18q-39 -68 -39 -153v-409q-43 -246 -309 -350v40q63 25 117 117.5t54 202.5q0 85 -32.5 173.5t-74.5 142.5l5 20q105 24 168 128q-81 -42 -146 -42q-27 0 -70 8.5t-71 8.5q-69 0 -112 -32l-24 17q46 75 87 109.5t92 49.5q76 -58 190 -58q94 0 144 45z" />
    <glyph glyph-name="uni041A" unicode="K" horiz-adv-x="702" 
d="M650 668l-84 -89q-23 26 -49 26q-51 0 -121 -97q256 -237 276 -508h-218l4 32q24 20 24 61q0 51 -28.5 114.5t-74.5 113.5q-25 27 -52 44.5t-41 22t-22 4.5q-26 0 -42 -25v-255q0 -65 58 -80l-4 -32h-256l4 32q52 14 52 82v526q0 64 -48 66l4 40h245l-4 -40
q-50 -9 -50 -82v-188q122 67 312 323z" />
    <glyph glyph-name="uni041A" unicode="&#x41a;" horiz-adv-x="702" 
d="M650 668l-84 -89q-23 26 -49 26q-51 0 -121 -97q256 -237 276 -508h-218l4 32q24 20 24 61q0 51 -28.5 114.5t-74.5 113.5q-25 27 -52 44.5t-41 22t-22 4.5q-26 0 -42 -25v-255q0 -65 58 -80l-4 -32h-256l4 32q52 14 52 82v526q0 64 -48 66l4 40h245l-4 -40
q-50 -9 -50 -82v-188q122 67 312 323z" />
    <glyph glyph-name="uni041A" unicode="&#x39a;" horiz-adv-x="702" 
d="M650 668l-84 -89q-23 26 -49 26q-51 0 -121 -97q256 -237 276 -508h-218l4 32q24 20 24 61q0 51 -28.5 114.5t-74.5 113.5q-25 27 -52 44.5t-41 22t-22 4.5q-26 0 -42 -25v-255q0 -65 58 -80l-4 -32h-256l4 32q52 14 52 82v526q0 64 -48 66l4 40h245l-4 -40
q-50 -9 -50 -82v-188q122 67 312 323z" />
    <glyph glyph-name="L" unicode="L" horiz-adv-x="625" 
d="M583 207l29 -22q-24 -51 -40 -79t-42 -58t-60.5 -43t-81.5 -13q-21 0 -88 6t-110 6q-69 0 -147 -17l-23 38q64 60 64 147v301q0 78 -50 104l4 28q52 13 119 51.5t124 68.5t96 30q58 0 116 -55.5t75 -115.5q-69 -13 -143 -55q0 36 -16.5 62.5t-44.5 40t-58.5 20t-64.5 6.5
q-11 -68 -11 -134v-275q0 -71 -55 -139q62 35 113 35q23 0 74 -12.5t72 -12.5q66 0 149 87z" />
    <glyph glyph-name="uni041C" unicode="M" horiz-adv-x="856" 
d="M821 746l-4 -44q-53 -1 -53 -68v-479q0 -114 72 -116l-4 -39h-277l4 46q58 0 58 100v422q-88 -231 -220 -482q-126 225 -226 459v-425q0 -177 -126 -306l-21 13q64 106 64 280v499q0 83 -45 95l4 45h207q107 -257 182 -387q44 73 94.5 180.5t50.5 131.5q0 26 -55 26l4 49
h291z" />
    <glyph glyph-name="uni041C" unicode="&#x41c;" horiz-adv-x="856" 
d="M821 746l-4 -44q-53 -1 -53 -68v-479q0 -114 72 -116l-4 -39h-277l4 46q58 0 58 100v422q-88 -231 -220 -482q-126 225 -226 459v-425q0 -177 -126 -306l-21 13q64 106 64 280v499q0 83 -45 95l4 45h207q107 -257 182 -387q44 73 94.5 180.5t50.5 131.5q0 26 -55 26l4 49
h291z" />
    <glyph glyph-name="uni041C" unicode="&#x39c;" horiz-adv-x="856" 
d="M821 746l-4 -44q-53 -1 -53 -68v-479q0 -114 72 -116l-4 -39h-277l4 46q58 0 58 100v422q-88 -231 -220 -482q-126 225 -226 459v-425q0 -177 -126 -306l-21 13q64 106 64 280v499q0 83 -45 95l4 45h207q107 -257 182 -387q44 73 94.5 180.5t50.5 131.5q0 26 -55 26l4 49
h291z" />
    <glyph glyph-name="Nu" unicode="N" horiz-adv-x="745" 
d="M731 746l-4 -40q-62 -1 -62 -39v-667h-77v49l-415 520v-451q0 -144 -124 -304l-21 13q64 140 64 280v512q0 63 -68 75l3 30l174 38l387 -478v372q0 50 -71 50l4 40h210z" />
    <glyph glyph-name="Nu" unicode="&#x39d;" horiz-adv-x="745" 
d="M731 746l-4 -40q-62 -1 -62 -39v-667h-77v49l-415 520v-451q0 -144 -124 -304l-21 13q64 140 64 280v512q0 63 -68 75l3 30l174 38l387 -478v372q0 50 -71 50l4 40h210z" />
    <glyph glyph-name="uni041E" unicode="O" horiz-adv-x="753" 
d="M182 569q-40 -64 -40 -129q0 -109 90 -206q55 -59 129.5 -95t137.5 -36q49 0 87 24q33 65 33 146q0 120 -77 221q-41 55 -98 87t-122 32q-64 0 -140 -44zM401 764q141 -73 217 -170q89 -113 89 -246q0 -140 -97 -235t-242 -124q-140 53 -223 139q-99 102 -99 234
q0 83 42 152.5t116 126t197 123.5z" />
    <glyph glyph-name="uni041E" unicode="&#x41e;" horiz-adv-x="753" 
d="M182 569q-40 -64 -40 -129q0 -109 90 -206q55 -59 129.5 -95t137.5 -36q49 0 87 24q33 65 33 146q0 120 -77 221q-41 55 -98 87t-122 32q-64 0 -140 -44zM401 764q141 -73 217 -170q89 -113 89 -246q0 -140 -97 -235t-242 -124q-140 53 -223 139q-99 102 -99 234
q0 83 42 152.5t116 126t197 123.5z" />
    <glyph glyph-name="uni041E" unicode="&#x39f;" horiz-adv-x="753" 
d="M182 569q-40 -64 -40 -129q0 -109 90 -206q55 -59 129.5 -95t137.5 -36q49 0 87 24q33 65 33 146q0 120 -77 221q-41 55 -98 87t-122 32q-64 0 -140 -44zM401 764q141 -73 217 -170q89 -113 89 -246q0 -140 -97 -235t-242 -124q-140 53 -223 139q-99 102 -99 234
q0 83 42 152.5t116 126t197 123.5z" />
    <glyph glyph-name="P" unicode="P" horiz-adv-x="761" 
d="M241 586l-1 -374q0 -121 91 -121q82 0 147.5 86.5t65.5 226.5q0 74 -20 132.5t-51.5 91t-63.5 49t-62 16.5q-39 0 -72 -28t-34 -79zM20 645l18 34q132 0 311 91q95 -21 183 -90.5t139 -149t60 -143.5q-94 -290 -394 -387q-7 2 -23.5 6t-35.5 8t-40 8v-117q0 -53 56 -68
l-4 -25h-195v699q0 67 -75 134z" />
    <glyph glyph-name="P" unicode="&#x420;" horiz-adv-x="761" 
d="M241 586l-1 -374q0 -121 91 -121q82 0 147.5 86.5t65.5 226.5q0 74 -20 132.5t-51.5 91t-63.5 49t-62 16.5q-39 0 -72 -28t-34 -79zM20 645l18 34q132 0 311 91q95 -21 183 -90.5t139 -149t60 -143.5q-94 -290 -394 -387q-7 2 -23.5 6t-35.5 8t-40 8v-117q0 -53 56 -68
l-4 -25h-195v699q0 67 -75 134z" />
    <glyph glyph-name="P" unicode="&#x3a1;" horiz-adv-x="761" 
d="M241 586l-1 -374q0 -121 91 -121q82 0 147.5 86.5t65.5 226.5q0 74 -20 132.5t-51.5 91t-63.5 49t-62 16.5q-39 0 -72 -28t-34 -79zM20 645l18 34q132 0 311 91q95 -21 183 -90.5t139 -149t60 -143.5q-94 -290 -394 -387q-7 2 -23.5 6t-35.5 8t-40 8v-117q0 -53 56 -68
l-4 -25h-195v699q0 67 -75 134z" />
    <glyph glyph-name="Q" unicode="Q" horiz-adv-x="764" 
d="M179 576q-41 -73 -41 -135q0 -128 118 -236q56 -50 122 -80t123 -30q51 0 88 25q34 66 34 155q0 120 -70 212q-42 55 -103 94.5t-131 39.5q-63 0 -140 -45zM758 -153l-13 -31q-15 -3 -30 -3q-73 0 -145.5 57.5t-103.5 147.5q-43 -18 -98 -29q-66 25 -121.5 59
t-101.5 79.5t-72.5 106t-26.5 129.5q0 122 85.5 211.5t269.5 188.5q157 -78 231 -161q86 -98 86 -239q0 -173 -120 -261q-4 -23 -4 -47q0 -79 49 -136t115 -72z" />
    <glyph glyph-name="R" unicode="R" horiz-adv-x="723" 
d="M239 557v-208l147 102q91 63 91 152q0 104 -90 104q-22 0 -43 -6.5t-44 -21.5t-39.5 -46.5t-21.5 -75.5zM484 449l-86 -59q45 -93 117.5 -175.5t121.5 -82.5q31 0 72 33l21 -24q-49 -40 -175 -167q-127 187 -263 343l-52 -36v-82q0 -88 87 -132v-61q-87 24 -141 24
q-81 0 -138 -43l-28 41q69 42 69 104v397q0 81 -65 84l4 38q56 0 130 31q15 6 55 24.5t59.5 25.5t57 14.5t78.5 7.5q102 0 156 -37t54 -100q0 -47 -30.5 -82.5t-103.5 -85.5z" />
    <glyph glyph-name="S" unicode="S" horiz-adv-x="708" 
d="M507 534q-20 44 -72.5 79t-114.5 35q-43 0 -97 -20q-27 -56 -27 -106q0 -148 201 -148q124 0 221 43q50 -108 50 -194q0 -53 -32.5 -98.5t-86 -75.5t-109 -49.5t-114.5 -30.5q-79 22 -162 64t-124 89q87 30 156 76q46 -79 98 -112.5t116 -33.5q51 0 111 23q10 36 10 71
q0 89 -72 130.5t-189 41.5q-96 0 -155 -22q-70 97 -70 177q0 37 18 70t43.5 58t78 56.5t94.5 52.5t120 57q139 -61 247 -158q-72 -20 -139 -75z" />
    <glyph glyph-name="S" unicode="&#x405;" horiz-adv-x="708" 
d="M507 534q-20 44 -72.5 79t-114.5 35q-43 0 -97 -20q-27 -56 -27 -106q0 -148 201 -148q124 0 221 43q50 -108 50 -194q0 -53 -32.5 -98.5t-86 -75.5t-109 -49.5t-114.5 -30.5q-79 22 -162 64t-124 89q87 30 156 76q46 -79 98 -112.5t116 -33.5q51 0 111 23q10 36 10 71
q0 89 -72 130.5t-189 41.5q-96 0 -155 -22q-70 97 -70 177q0 37 18 70t43.5 58t78 56.5t94.5 52.5t120 57q139 -61 247 -158q-72 -20 -139 -75z" />
    <glyph glyph-name="T" unicode="T" horiz-adv-x="742" 
d="M689 211l33 -22q-28 -45 -50.5 -73t-59.5 -62t-86 -51t-108 -17q-136 0 -223.5 90t-87.5 253q0 192 113 305q-86 0 -119.5 -10t-72.5 -58l-28 18q50 92 135.5 128.5t230.5 36.5q114 0 282 -18q-52 -75 -76 -156q-148 48 -269 56q-41 -33 -61.5 -96.5t-20.5 -125.5
q0 -134 88.5 -224t194.5 -90q113 0 185 116z" />
    <glyph glyph-name="U" unicode="U" horiz-adv-x="749" 
d="M726 746l-4 -36q-61 -3 -61 -74v-464q0 -63 66 -78l-1 -28l-110 -81q-35 14 -63 44.5t-32 69.5q-21 -48 -68 -76t-107 -28q-50 0 -99 20t-92 58.5t-70 105t-27 149.5q0 193 137 369h-132l4 49h319l-4 -41q-50 -13 -86 -45.5t-55.5 -77t-28 -89.5t-8.5 -93
q0 -128 55 -206.5t141 -78.5q57 0 88 35.5t31 91.5v405q0 31 -20.5 47t-50.5 16l4 36h274z" />
    <glyph glyph-name="V" unicode="V" horiz-adv-x="729" 
d="M326 607l-4 20q84 49 118 118q16 4 38 4q91 0 153.5 -65t62.5 -198q0 -134 -76.5 -252t-253.5 -251h-14q-129 131 -175.5 226t-53.5 210q-8 123 -27 182t-88 115l4 30h158q54 -54 70.5 -110t28.5 -179q11 -112 45 -186.5t123 -160.5q152 128 152 278q0 94 -52.5 161.5
t-141.5 67.5q-34 0 -67 -10z" />
    <glyph glyph-name="W" unicode="W" horiz-adv-x="1105" 
d="M675 607l-4 20q84 49 119 118q16 4 36 4q107 0 175.5 -86.5t68.5 -228.5q0 -126 -67.5 -223t-239.5 -228h-14q-116 118 -156 211q-73 -95 -222 -211h-14q-130 131 -175.5 225.5t-53.5 210.5q-4 60 -8 89.5t-16 71t-35.5 73t-62.5 63.5l4 30h158q40 -39 62.5 -87.5t29 -86
t14.5 -115.5q11 -107 44.5 -184t123.5 -163q70 59 100.5 118t30.5 129q0 108 -59.5 184t-158.5 76q-38 0 -72 -10l-4 20q84 49 119 118q18 4 38 4q92 0 151.5 -60t80.5 -165q9 -47 9 -97q0 -30 -2 -44q31 -155 159 -273q70 59 100.5 118t30.5 129q0 108 -59.5 184t-158.5 76
q-38 0 -72 -10z" />
    <glyph glyph-name="X" unicode="X" horiz-adv-x="717" 
d="M278 652l82 -149q103 176 245 246q20 -55 54 -110q-131 -53 -243 -231l160 -284q26 -44 107 -46l14 -28l-106 -64l-161 87l-106 193q-64 -108 -129.5 -173t-161.5 -93l-13 24q37 15 71 43t57.5 56.5t49.5 73t40.5 74t36.5 78.5l-107 195q-38 69 -128 73l-11 20l90 110z
" />
    <glyph glyph-name="X" unicode="&#x425;" horiz-adv-x="717" 
d="M278 652l82 -149q103 176 245 246q20 -55 54 -110q-131 -53 -243 -231l160 -284q26 -44 107 -46l14 -28l-106 -64l-161 87l-106 193q-64 -108 -129.5 -173t-161.5 -93l-13 24q37 15 71 43t57.5 56.5t49.5 73t40.5 74t36.5 78.5l-107 195q-38 69 -128 73l-11 20l90 110z
" />
    <glyph glyph-name="X" unicode="&#x3a7;" horiz-adv-x="717" 
d="M278 652l82 -149q103 176 245 246q20 -55 54 -110q-131 -53 -243 -231l160 -284q26 -44 107 -46l14 -28l-106 -64l-161 87l-106 193q-64 -108 -129.5 -173t-161.5 -93l-13 24q37 15 71 43t57.5 56.5t49.5 73t40.5 74t36.5 78.5l-107 195q-38 69 -128 73l-11 20l90 110z
" />
    <glyph glyph-name="Y" unicode="Y" horiz-adv-x="727" 
d="M324 607l-4 20q83 48 118 118q13 4 37 4q94 0 155.5 -66t61.5 -189q0 -125 -70 -234t-216 -228q-10 -17 -10 -43q0 -28 15.5 -45t45.5 -17q51 0 134 67l28 -17q-42 -76 -101.5 -118.5t-118.5 -42.5q-57 0 -86 36.5t-29 81.5q0 49 41 87q-116 124 -158 208.5t-48 189.5
q-4 64 -7.5 94t-14.5 72t-33 72t-58 59v30h160q53 -52 70 -109t29 -180q11 -105 46.5 -176t121.5 -157q80 73 116 132t36 132q0 94 -52.5 161.5t-141.5 67.5q-36 0 -67 -10z" />
    <glyph glyph-name="Zeta" unicode="Z" horiz-adv-x="697" 
d="M595 748l41 -36q-287 -293 -406 -540q14 7 50 7q27 0 109.5 -19t116.5 -19q61 0 98.5 37t47.5 78l31 -7q-35 -259 -225 -259q-35 0 -135 14.5t-144 14.5q-66 0 -115 -32l-35 32q164 268 235 363.5t189 196.5q-34 -10 -73 -10q-32 0 -86.5 14.5t-95.5 14.5
q-36 0 -63.5 -17.5t-71.5 -79.5l-31 21q15 38 27.5 64.5t33 57.5t42.5 49.5t54 31.5t70 13q37 0 111 -17t110 -17q64 0 115 44z" />
    <glyph glyph-name="Zeta" unicode="&#x396;" horiz-adv-x="697" 
d="M595 748l41 -36q-287 -293 -406 -540q14 7 50 7q27 0 109.5 -19t116.5 -19q61 0 98.5 37t47.5 78l31 -7q-35 -259 -225 -259q-35 0 -135 14.5t-144 14.5q-66 0 -115 -32l-35 32q164 268 235 363.5t189 196.5q-34 -10 -73 -10q-32 0 -86.5 14.5t-95.5 14.5
q-36 0 -63.5 -17.5t-71.5 -79.5l-31 21q15 38 27.5 64.5t33 57.5t42.5 49.5t54 31.5t70 13q37 0 111 -17t110 -17q64 0 115 44z" />
    <glyph glyph-name="bracketleft" unicode="[" horiz-adv-x="428" 
d="M392 833l-9 -60q-71 -19 -132 -19q-35 0 -68 6v-814q33 6 68 6q59 0 141 -20l-8 -56q-42 12 -106 12q-94 0 -182 -28v986q88 -28 180 -28q65 0 116 15z" />
    <glyph glyph-name="backslash" unicode="\" horiz-adv-x="422" 
d="M81 827l343 -947l-88 -11l-336 947z" />
    <glyph glyph-name="bracketright" unicode="]" horiz-adv-x="428" 
d="M332 846v-986q-88 28 -180 28q-65 0 -116 -15l9 60q71 19 132 19q35 0 68 -6v814q-33 -6 -68 -6q-59 0 -141 20l8 56q42 -12 106 -12q94 0 182 28z" />
    <glyph glyph-name="asciicircum" unicode="^" horiz-adv-x="496" 
d="M246 779l228 -334l-73 -49l-156 238l-175 -252l-49 73z" />
    <glyph glyph-name="underscore" unicode="_" horiz-adv-x="435" 
d="M459 -77l-22 -87h-461l22 87h461z" />
    <glyph glyph-name="grave" unicode="`" horiz-adv-x="318" 
d="M131 766l152 -190l-56 -38l-192 157z" />
    <glyph glyph-name="uni0430" unicode="a" horiz-adv-x="518" 
d="M299 265l-60 -27q-32 -14 -48 -41t-16 -55q0 -54 62 -62q32 8 62 26v159zM431 395v-259q0 -65 63 -65l-4 -24l-89 -56l-101 75q-69 -52 -138 -87q-115 23 -115 133q0 98 103 138l149 57v21q0 52 -49 74q-66 -42 -165 -60q-5 16 -25 36q126 50 189 137q96 -78 182 -120z
" />
    <glyph glyph-name="uni0430" unicode="&#x430;" horiz-adv-x="518" 
d="M299 265l-60 -27q-32 -14 -48 -41t-16 -55q0 -54 62 -62q32 8 62 26v159zM431 395v-259q0 -65 63 -65l-4 -24l-89 -56l-101 75q-69 -52 -138 -87q-115 23 -115 133q0 98 103 138l149 57v21q0 52 -49 74q-66 -42 -165 -60q-5 16 -25 36q126 50 189 137q96 -78 182 -120z
" />
    <glyph glyph-name="b" unicode="b" horiz-adv-x="549" 
d="M205 366v-78q0 -34 5.5 -59t21 -52t52 -42t90.5 -15q13 0 39 2q17 42 17 77q0 71 -51 123.5t-122 52.5q-23 0 -52 -9zM205 753v-342q42 17 65 36t58 59q91 0 138 -55.5t47 -143.5q0 -112 -68 -211.5t-174 -116.5q-41 58 -85 90t-112 43v465q0 58 -51 63l4 18z" />
    <glyph glyph-name="uni0441" unicode="c" horiz-adv-x="412" 
d="M366 409l-85 -77q-52 48 -143 70q-10 -51 -10 -94q0 -96 48 -145.5t108 -49.5q49 0 94 24l19 -19q-46 -91 -178 -131q-79 37 -131 100.5t-52 151.5q0 81 47 140t154 138q98 -58 129 -108z" />
    <glyph glyph-name="uni0441" unicode="&#x441;" horiz-adv-x="412" 
d="M366 409l-85 -77q-52 48 -143 70q-10 -51 -10 -94q0 -96 48 -145.5t108 -49.5q49 0 94 24l19 -19q-46 -91 -178 -131q-79 37 -131 100.5t-52 151.5q0 81 47 140t154 138q98 -58 129 -108z" />
    <glyph glyph-name="d" unicode="d" horiz-adv-x="551" 
d="M333 95v171q-4 55 -39 98.5t-96 43.5q-15 0 -32 -3q-17 -60 -17 -107q0 -44 10.5 -79.5t31.5 -61.5t37 -40.5t41 -33.5q30 11 64 12zM464 753v-617q0 -65 61 -65v-24l-90 -56l-82 60q-78 -13 -141 -64q-176 71 -176 251q0 37 6 67.5t22 56.5t29.5 44.5t42 41t45.5 34
t53 35.5q31 -11 58.5 -36t40.5 -61v157q0 58 -50 63v18z" />
    <glyph glyph-name="e" unicode="e" horiz-adv-x="426" 
d="M382 382l-218 -218q56 -62 130 -62q45 0 89 23l16 -10q-66 -111 -171 -128q-85 25 -138.5 92.5t-53.5 156.5q0 36 11 68t25.5 55.5t46 53.5t55.5 49t72 55q81 -51 136 -135zM141 197l116 115q-21 80 -106 87q-27 -67 -27 -121q0 -39 17 -81z" />
    <glyph glyph-name="e" unicode="&#x435;" horiz-adv-x="426" 
d="M382 382l-218 -218q56 -62 130 -62q45 0 89 23l16 -10q-66 -111 -171 -128q-85 25 -138.5 92.5t-53.5 156.5q0 36 11 68t25.5 55.5t46 53.5t55.5 49t72 55q81 -51 136 -135zM141 197l116 115q-21 80 -106 87q-27 -67 -27 -121q0 -39 17 -81z" />
    <glyph glyph-name="f" unicode="f" horiz-adv-x="344" 
d="M361 684l-3 -11l-87 -70l-8 4q-7 25 -35 25q-17 0 -50 -14q20 -38 20 -87v-26h116l-32 -89h-84v-416h-131v416h-63l4 22q53 30 53 65q0 43 -57 46l4 18q148 142 271 182q22 -51 82 -65z" />
    <glyph glyph-name="g" unicode="g" horiz-adv-x="522" 
d="M345 135v75q0 33 -5.5 57.5t-22.5 50.5t-55 40t-95 14q-19 0 -30 -1q-17 -39 -17 -75q0 -68 50.5 -118.5t121.5 -50.5q21 0 53 8zM476 382v-295q0 -219 -241 -280q-32 60 -84 60q-43 0 -105 -53l-13 19q77 98 148 98q49 0 102 -50q62 76 62 178v31q-42 -16 -64 -34.5
t-59 -59.5q-92 0 -139 55t-47 140q0 110 68.5 208.5t174.5 115.5q42 -59 85.5 -90.5t111.5 -42.5z" />
    <glyph glyph-name="uni04BB" unicode="h" horiz-adv-x="544" 
d="M205 753v-309q47 21 83 67q112 -10 166 -70.5t54 -151.5q0 -105 -65 -191t-161 -135l-18 19q66 48 100 104.5t34 133.5t-32 123.5t-88 46.5q-35 0 -73 -23v-367h-131v577q0 58 -51 63l4 18z" />
    <glyph glyph-name="uni04BB" unicode="&#x4bb;" horiz-adv-x="544" 
d="M205 753v-309q47 21 83 67q112 -10 166 -70.5t54 -151.5q0 -105 -65 -191t-161 -135l-18 19q66 48 100 104.5t34 133.5t-32 123.5t-88 46.5q-35 0 -73 -23v-367h-131v577q0 58 -51 63l4 18z" />
    <glyph glyph-name="uni0456" unicode="i" horiz-adv-x="295" 
d="M205 414v-278q0 -65 64 -65l-4 -24l-89 -56l-102 76v272q0 58 -51 63l4 18l94 95q37 -8 60.5 -35.5t23.5 -65.5zM207 742v-122l-131 -59v124z" />
    <glyph glyph-name="uni0456" unicode="&#x456;" horiz-adv-x="295" 
d="M205 414v-278q0 -65 64 -65l-4 -24l-89 -56l-102 76v272q0 58 -51 63l4 18l94 95q37 -8 60.5 -35.5t23.5 -65.5zM207 742v-122l-131 -59v124z" />
    <glyph glyph-name="j" unicode="j" horiz-adv-x="265" 
d="M219 515v-333q0 -349 -202 -366l4 28q67 31 67 178v317q0 58 -51 63l4 18zM219 742v-122l-131 -59v124z" />
    <glyph glyph-name="j" unicode="&#x458;" horiz-adv-x="265" 
d="M219 515v-333q0 -349 -202 -366l4 28q67 31 67 178v317q0 58 -51 63l4 18zM219 742v-122l-131 -59v124z" />
    <glyph glyph-name="k" unicode="k" horiz-adv-x="524" 
d="M205 353v-63q28 5 46 5q35 0 82 -10q3 15 3 32q0 65 -68 96q-32 -35 -63 -60zM205 753v-350q51 52 98 116q70 13 122.5 -41t52.5 -128q0 -20 -3 -45q-50 -23 -111 -32q64 -30 97.5 -95.5t38.5 -177.5h-136q0 236 -159 236v-236h-131v577q0 58 -51 63l4 18z" />
    <glyph glyph-name="l" unicode="l" horiz-adv-x="295" 
d="M205 753v-617q0 -65 64 -65l-4 -24l-89 -56l-102 76v510q0 58 -51 63l4 18z" />
    <glyph glyph-name="m" unicode="m" horiz-adv-x="833" 
d="M759 0h-173q81 195 81 285q0 101 -114 101q-29 0 -47 -7q10 -40 10 -99q0 -107 -34 -280h-173q81 195 81 285q0 101 -113 101q-41 0 -72 -19v-367h-131v335q0 58 -51 63l4 18l108 95q60 -17 70 -67q104 21 166 67q74 -19 108 -68q110 26 169 68q79 -20 112 -74.5
t33 -156.5q0 -107 -34 -280z" />
    <glyph glyph-name="n" unicode="n" horiz-adv-x="545" 
d="M205 367v-367h-131v335q0 58 -51 63l4 18l108 95q61 -18 70 -67q95 20 157 67q77 -20 110 -75t33 -156q0 -107 -34 -280h-168q81 195 81 285q0 101 -111 101q-36 0 -68 -19z" />
    <glyph glyph-name="o" unicode="o" 
d="M136 373q-13 -27 -13 -61q0 -88 75 -156t147 -68q27 0 56 15q6 19 6 44q0 94 -68 163.5t-154 69.5q-27 0 -49 -7zM275 517q206 -122 206 -287q0 -95 -64.5 -159.5t-163.5 -83.5q-98 36 -157.5 100.5t-59.5 151.5q0 83 57 144t182 134z" />
    <glyph glyph-name="o" unicode="&#x43e;" 
d="M136 373q-13 -27 -13 -61q0 -88 75 -156t147 -68q27 0 56 15q6 19 6 44q0 94 -68 163.5t-154 69.5q-27 0 -49 -7zM275 517q206 -122 206 -287q0 -95 -64.5 -159.5t-163.5 -83.5q-98 36 -157.5 100.5t-59.5 151.5q0 83 57 144t182 134z" />
    <glyph glyph-name="o" unicode="&#x3bf;" 
d="M136 373q-13 -27 -13 -61q0 -88 75 -156t147 -68q27 0 56 15q6 19 6 44q0 94 -68 163.5t-154 69.5q-27 0 -49 -7zM275 517q206 -122 206 -287q0 -95 -64.5 -159.5t-163.5 -83.5q-98 36 -157.5 100.5t-59.5 151.5q0 83 57 144t182 134z" />
    <glyph glyph-name="p" unicode="p" horiz-adv-x="539" 
d="M205 405v-171q0 -54 37 -98t98 -44q16 0 32 3q16 48 16 102q0 44 -10.5 80t-31 63t-36 42t-40.5 35q-31 -10 -65 -12zM205 507v-55q63 16 121 61q177 -71 177 -253q0 -44 -11 -80.5t-25.5 -61t-44.5 -51t-52.5 -42t-65.5 -42.5q-74 27 -99 97v-268h-131v519q0 58 -51 63
l4 18z" />
    <glyph glyph-name="p" unicode="&#x440;" horiz-adv-x="539" 
d="M205 405v-171q0 -54 37 -98t98 -44q16 0 32 3q16 48 16 102q0 44 -10.5 80t-31 63t-36 42t-40.5 35q-31 -10 -65 -12zM205 507v-55q63 16 121 61q177 -71 177 -253q0 -44 -11 -80.5t-25.5 -61t-44.5 -51t-52.5 -42t-65.5 -42.5q-74 27 -99 97v-268h-131v519q0 58 -51 63
l4 18z" />
    <glyph glyph-name="q" unicode="q" horiz-adv-x="521" 
d="M344 127v78q0 34 -5.5 59t-22.5 52t-55 41.5t-95 14.5q-19 0 -30 -1q-17 -40 -17 -76q0 -70 50.5 -123t121.5 -53q21 0 53 8zM475 382v-570h-131v271q-42 -17 -64 -35t-59 -60q-91 0 -138 55.5t-47 142.5q0 71 28.5 141t85 123.5t128.5 64.5q42 -59 85.5 -90.5
t111.5 -42.5z" />
    <glyph glyph-name="r" unicode="r" horiz-adv-x="380" 
d="M380 446l-2 -11l-85 -70l-5 2q-9 28 -31 28q-21 0 -52 -28v-367h-131v335q0 58 -51 63l4 18l108 95q60 -17 70 -67q28 50 96 67q23 -52 79 -65z" />
    <glyph glyph-name="uni0455" unicode="s" horiz-adv-x="514" 
d="M357 343q-12 35 -58 58.5t-98 23.5q-18 0 -36 -3q-19 -35 -19 -64q0 -44 38.5 -69.5t109.5 -25.5q83 0 155 29q17 -31 27.5 -71.5t10.5 -65.5q0 -63 -73.5 -107t-175.5 -61q-151 44 -207 102q62 18 121 62q63 -100 176 -100q31 0 49 8q4 7 4 21q0 124 -201 124
q-42 0 -90 -16q-54 74 -54 128q0 59 61.5 102t193.5 95q111 -46 179 -104q-51 -13 -113 -66z" />
    <glyph glyph-name="uni0455" unicode="&#x455;" horiz-adv-x="514" 
d="M357 343q-12 35 -58 58.5t-98 23.5q-18 0 -36 -3q-19 -35 -19 -64q0 -44 38.5 -69.5t109.5 -25.5q83 0 155 29q17 -31 27.5 -71.5t10.5 -65.5q0 -63 -73.5 -107t-175.5 -61q-151 44 -207 102q62 18 121 62q63 -100 176 -100q31 0 49 8q4 7 4 21q0 124 -201 124
q-42 0 -90 -16q-54 74 -54 128q0 59 61.5 102t193.5 95q111 -46 179 -104q-51 -13 -113 -66z" />
    <glyph glyph-name="t" unicode="t" horiz-adv-x="315" 
d="M315 505l-25 -89h-85v-280q0 -65 64 -65l-4 -24l-89 -56l-102 76v289q0 55 -51 60l4 22q83 65 169 175h9v-108h110z" />
    <glyph glyph-name="u" unicode="u" horiz-adv-x="564" 
d="M487 505v-335q0 -58 51 -63l-4 -18l-109 -95q-59 16 -67 84q-88 -26 -171 -84q-155 37 -155 215q0 50 15 117.5t15 94.5q0 46 -20 84h140q20 -26 20 -68q0 -35 -23 -122t-23 -115q0 -43 30 -63.5t77 -20.5q53 0 92 30v359h132z" />
    <glyph glyph-name="v" unicode="v" horiz-adv-x="522" 
d="M232 413l-8 22q59 31 83 81q12 3 28 3q61 0 103.5 -46t42.5 -138q0 -94 -53 -175.5t-174 -176.5h-9q-88 91 -119.5 156t-38.5 149q-8 92 -20 123t-59 56l4 38h135q36 -38 46.5 -74t18.5 -122q4 -42 7.5 -64.5t13.5 -52.5t29.5 -54t51.5 -49q79 75 79 173q0 63 -32 111
t-81 48q-16 0 -48 -8z" />
    <glyph glyph-name="w" unicode="w" horiz-adv-x="788" 
d="M501 413l-8 22q58 31 82 81q12 3 27 3q61 0 103 -46t42 -138q0 -95 -52.5 -176t-172.5 -176h-8q-78 81 -113 145q-55 -71 -150 -145h-9q-86 91 -117.5 156t-38.5 149q-8 92 -20 122.5t-58 56.5l4 38h134q36 -38 46 -74t18 -122q3 -34 5 -51.5t8.5 -44t16.5 -44t28 -39
t43 -41.5q78 75 78 173q0 62 -32 110.5t-80 48.5q-17 0 -47 -8l-8 22q58 31 82 81q12 3 27 3q61 0 103 -46t42 -139q0 -28 -4 -49q19 -125 110 -196q78 75 78 173q0 62 -32 110.5t-80 48.5q-17 0 -47 -8z" />
    <glyph glyph-name="x" unicode="x" horiz-adv-x="520" 
d="M231 433l36 -72q67 109 169 154q20 -52 47 -95q-95 -52 -167 -146l84 -162q20 -39 94 -41l11 -24l-91 -56l-141 76l-45 89q-58 -83 -95 -113.5t-107 -49.5l-10 21q64 32 92 65.5t83 144.5l-56 115q-28 59 -112 63l-8 18l78 95z" />
    <glyph glyph-name="x" unicode="&#x445;" horiz-adv-x="520" 
d="M231 433l36 -72q67 109 169 154q20 -52 47 -95q-95 -52 -167 -146l84 -162q20 -39 94 -41l11 -24l-91 -56l-141 76l-45 89q-58 -83 -95 -113.5t-107 -49.5l-10 21q64 32 92 65.5t83 144.5l-56 115q-28 59 -112 63l-8 18l78 95z" />
    <glyph glyph-name="y" unicode="y" horiz-adv-x="522" 
d="M232 413l-8 22q57 28 83 81q12 3 28 3q61 0 103.5 -44t42.5 -133q0 -52 -14.5 -95.5t-51 -88.5t-67 -74t-94.5 -84q-63 -55 -70 -188h-140q21 73 69.5 126.5t116.5 77.5q-76 84 -106 145t-37 134q-10 98 -21 123t-58 51l4 36h135q36 -36 46.5 -71t18.5 -118
q7 -75 26 -120t76 -90q79 72 79 167q0 57 -32.5 102.5t-80.5 45.5q-16 0 -48 -8z" />
    <glyph glyph-name="y" unicode="&#x443;" horiz-adv-x="522" 
d="M232 413l-8 22q57 28 83 81q12 3 28 3q61 0 103.5 -44t42.5 -133q0 -52 -14.5 -95.5t-51 -88.5t-67 -74t-94.5 -84q-63 -55 -70 -188h-140q21 73 69.5 126.5t116.5 77.5q-76 84 -106 145t-37 134q-10 98 -21 123t-58 51l4 36h135q36 -36 46.5 -71t18.5 -118
q7 -75 26 -120t76 -90q79 72 79 167q0 57 -32.5 102.5t-80.5 45.5q-16 0 -48 -8z" />
    <glyph glyph-name="z" unicode="z" horiz-adv-x="510" 
d="M464 505l-4 -35q-165 -209 -258 -349h112q92 0 150 55l16 -20l-54 -130q-11 -26 -41 -26h-351l4 43q143 196 279 348h-115q-61 0 -141 -44l-13 13l31 145h385z" />
    <glyph glyph-name="braceleft" unicode="{" horiz-adv-x="428" 
d="M392 832l-9 -57q-48 -6 -59.5 -37.5t-23.5 -162.5q-9 -100 -33 -145t-98 -66q63 -20 93 -76t38 -155q10 -132 22.5 -162.5t68.5 -38.5l-7 -56q-29 1 -51.5 5t-39.5 15t-28.5 20t-20 31t-13.5 36t-8.5 47.5t-5 53t-3.5 63.5q-5 92 -40 133.5t-101 51.5l12 54
q70 15 96 47.5t33 127.5q3 45 5 65t6.5 53.5t9.5 48t14 36t21 30.5t29.5 19.5t40 14t52.5 4.5z" />
    <glyph glyph-name="bar" unicode="|" horiz-adv-x="221" 
d="M154 856v-966h-87v966h87z" />
    <glyph glyph-name="braceright" unicode="}" horiz-adv-x="428" 
d="M37 776l7 56q29 -1 51.5 -5t39.5 -15t28.5 -20t20 -31t13.5 -36t8.5 -47.5t5 -53t3.5 -63.5q5 -92 40 -133.5t101 -51.5l-12 -54q-70 -15 -96 -47.5t-33 -127.5q-3 -45 -5 -65t-6.5 -53.5t-9.5 -48t-14 -36t-21 -30.5t-29.5 -19.5t-40 -14t-52.5 -4.5l9 57
q48 6 59.5 37.5t23.5 162.5q9 100 33 145t98 66q-63 20 -93 76t-38 155q-10 132 -22.5 162.5t-68.5 38.5z" />
    <glyph glyph-name="asciitilde" unicode="~" horiz-adv-x="496" 
d="M491 438l-22 -87q-60 -48 -119 -48q-39 0 -108 30.5t-109 30.5q-61 0 -129 -54l26 88q45 53 101 53q35 0 113.5 -30.5t123.5 -30.5q64 0 123 48z" />
    <glyph glyph-name="uni00A0" unicode="&#xa0;" horiz-adv-x="300" 
 />
    <glyph glyph-name="exclamdown" unicode="&#xa1;" horiz-adv-x="269" 
d="M110 369h46q13 -240 59 -541h-165q43 319 60 541zM140 582l77 -91l-87 -96l-77 84z" />
    <glyph glyph-name="cent" unicode="&#xa2;" horiz-adv-x="441" 
d="M254 746v-122q88 -53 115 -96l-86 -77l-29 24v-237q18 -6 41 -6q43 0 86 25l19 -20q-43 -80 -146 -123v-114h-51v121q-69 39 -112.5 100t-43.5 140q0 68 37 126.5t119 119.5v139h51zM140 430q0 -106 63 -163v237q-21 10 -53 17q-10 -50 -10 -91z" />
    <glyph glyph-name="sterling" unicode="&#xa3;" horiz-adv-x="629" 
d="M569 682l-81 -89q-36 45 -113 45q-24 0 -49 -4q8 -35 8 -77q0 -54 -12 -114h115l-9 -54h-118q-40 -165 -112 -276q53 29 107 29q23 0 62 -8.5t58 -8.5q77 0 156 82l28 -22q-25 -59 -52 -97t-59 -57t-63 -25.5t-76 -6.5q-37 0 -90 5t-83 5q-80 0 -146 -22l-22 38
q87 31 152 364h-76l9 54h25q58 0 58 57q0 46 -45 49l4 18q177 141 350 182q13 -55 74 -67z" />
    <glyph glyph-name="currency" unicode="&#xa4;" horiz-adv-x="594" 
d="M509 641l49 -73l-78 -77q35 -54 35 -116q0 -64 -36 -117l93 -92l-73 -49l-82 81q-52 -33 -115 -33q-64 0 -115 34l-96 -96l-48 72l84 84q-35 52 -35 116q0 63 33 115l-92 93l73 49l79 -80q53 36 117 36q62 0 118 -36zM302 496q-47 0 -81 -35.5t-34 -85.5q0 -49 34 -84
t81 -35q48 0 82.5 35t34.5 84q0 50 -34.5 85.5t-82.5 35.5z" />
    <glyph glyph-name="yen" unicode="&#xa5;" horiz-adv-x="524" 
d="M242 647l-8 22q59 33 84 82q4 0 8.5 0.5t9.5 0.5q62 0 110.5 -42t48.5 -115q0 -129 -157 -270v-60h151l-9 -54h-142v-53h151l-9 -54h-142v-104h-131v104h-154l9 54h145v53h-154l9 54h145v49q-67 80 -87 129.5t-25 113.5q-2 31 -5 48t-10.5 38t-23.5 36.5t-41 28.5v38h140
q25 -28 39.5 -60.5t18 -54.5t7.5 -65q6 -69 23.5 -111t73.5 -89q89 77 89 154q0 51 -32.5 93.5t-83.5 42.5q-22 0 -48 -9z" />
    <glyph glyph-name="brokenbar" unicode="&#xa6;" horiz-adv-x="173" 
d="M130 856v-366h-87v366h87zM130 256v-366h-87v366h87z" />
    <glyph glyph-name="section" unicode="&#xa7;" horiz-adv-x="524" 
d="M430 508q27 -47 27 -100q0 -91 -80 -179q27 3 57 10q39 -52 39 -125q0 -89 -71.5 -139.5t-177.5 -65.5q-149 41 -207 99q65 19 121 61q70 -98 160 -98q32 0 67 12q0 94 -49.5 139t-131.5 45q-51 0 -108 -17q-40 56 -40 119q0 90 75 157q-24 -2 -48 -6q-42 56 -42 133
q0 65 54 105t197 95q111 -45 179 -101q-51 -13 -113 -64q-15 39 -59.5 58.5t-95.5 19.5q-23 0 -34 -2q-21 -42 -21 -73q0 -54 51 -82t123 -28q74 0 128 27zM327 224q27 44 27 79q0 54 -54.5 87t-135.5 37q-18 -36 -18 -74q0 -55 38.5 -92.5t109.5 -37.5q19 0 33 1z" />
    <glyph glyph-name="dieresis" unicode="&#xa8;" horiz-adv-x="401" 
d="M366 752v-122l-131 -59v124zM166 732v-122l-131 -59v124z" />
    <glyph glyph-name="copyright" unicode="&#xa9;" horiz-adv-x="811" 
d="M404 712q-136 0 -233 -100.5t-97 -239.5q0 -138 96.5 -236t233.5 -98t235.5 98t98.5 236t-99 239t-235 101zM793 373q0 -161 -114.5 -275t-274.5 -114t-273.5 114t-113.5 275q0 160 113.5 273.5t273.5 113.5t274.5 -113.5t114.5 -273.5zM483 469l-13 17q1 3 1 8
q0 18 -20 33t-52 15q-52 0 -86.5 -38.5t-34.5 -104.5q0 -70 39.5 -120.5t103.5 -50.5q80 0 139 84l18 -19q-43 -58 -87 -91t-103 -33q-80 0 -135 60t-55 146q0 92 62 152.5t154 60.5q79 0 140 -59q-39 -28 -71 -60z" />
    <glyph glyph-name="ordfeminine" unicode="&#xaa;" horiz-adv-x="403" 
d="M355 281l-37 -101q-25 13 -55 13h-128q-44 0 -67 -14l-21 10l37 101q25 -13 55 -13h128q44 0 67 14zM226 561l-48 -22q-25 -11 -38 -33t-13 -44q0 -44 49 -50q27 7 50 21v128zM332 665v-208q0 -52 51 -52l-3 -19l-72 -45l-81 60q-55 -42 -111 -70q-92 18 -92 107
q0 79 82 111l120 45v17q0 42 -39 59q-54 -33 -133 -48q-4 13 -20 29q100 40 152 110q76 -62 146 -96z" />
    <glyph glyph-name="guillemotleft" unicode="&#xab;" horiz-adv-x="502" 
d="M224 510l31 -46q-71 -133 -142 -217q67 -79 155 -227l-44 -24q-105 147 -212 257q123 128 212 257zM445 510l31 -46q-71 -133 -142 -217q67 -79 155 -227l-44 -24q-105 147 -212 257q123 128 212 257z" />
    <glyph glyph-name="logicalnot" unicode="&#xac;" horiz-adv-x="496" 
d="M474 479v-424h-87v337h-366l22 87h431z" />
    <glyph glyph-name="registered" unicode="&#xae;" horiz-adv-x="615" 
d="M307 725q-100 0 -170.5 -73.5t-70.5 -174.5t70.5 -172.5t170.5 -71.5t172 71.5t72 172.5t-72 174.5t-172 73.5zM591 477q0 -117 -83 -200.5t-201 -83.5q-117 0 -200 83.5t-83 200.5t83 200t200 83t200.5 -83t83.5 -200zM253 575v-85q45 31 69 52.5t27.5 29.5t3.5 16
q0 48 -42 48q-51 0 -58 -61zM457 413l15 -18q-24 -19 -81 -74q-57 82 -115 149l-22 -16v-29q0 -38 38 -58v-32q-42 10 -62 10q-37 0 -60 -19l-12 24q30 19 30 46v161q0 34 -29 36l2 23q26 0 57 13q7 3 24 11t25.5 11t25 6.5t34.5 3.5q92 0 92 -62q0 -20 -16 -36.5t-72 -54.5
q4 -6 14 -20.5t15 -21.5t13.5 -19.5t15 -18.5t14 -13t15 -10t14.5 -3q12 0 25 11z" />
    <glyph glyph-name="macron" unicode="&#xaf;" horiz-adv-x="427" 
d="M392 708l-22 -87h-335l22 87h335z" />
    <glyph glyph-name="degree" unicode="&#xb0;" horiz-adv-x="377" 
d="M337 593q0 -62 -44.5 -106t-106.5 -44t-106 44t-44 106t44 106.5t106 44.5t106.5 -44.5t44.5 -106.5zM186 679q-34 0 -58 -25.5t-24 -60.5t24 -60t58 -25t58.5 25t24.5 60t-24.5 60.5t-58.5 25.5z" />
    <glyph glyph-name="plusminus" unicode="&#xb1;" horiz-adv-x="496" 
d="M489 419l-22 -87h-175v-186h-87v186h-199l22 87h177v186h87v-186h197zM489 87l-22 -87h-461l22 87h461z" />
    <glyph glyph-name="twosuperior" unicode="&#xb2;" horiz-adv-x="410" 
d="M334 453l43 -12q-29 -119 -126 -119q-23 0 -79 8.5t-75 8.5q-28 0 -58 -20l-25 23q49 129 125 239q35 -38 77 -38q53 0 53 60q0 74 -43 74q-29 0 -54.5 -18t-36.5 -46q-44 32 -89 48q64 60 146 94q85 -40 121 -76.5t36 -86.5q0 -49 -40 -106q-39 25 -75 25t-64 -23.5
t-57 -81.5q29 17 68 17q24 0 58.5 -8.5t42.5 -8.5q33 0 52 47z" />
    <glyph glyph-name="threesuperior" unicode="&#xb3;" horiz-adv-x="385" 
d="M25 661v30q26 7 55 25q56 32 120 32q57 0 87 -21.5t30 -58.5q0 -50 -60 -88q98 -19 98 -102q0 -97 -155 -164q-137 13 -181 102q39 6 93 20q8 -60 99 -78q49 30 49 83q0 32 -25 54t-78 28l2 46q44 14 59.5 32.5t15.5 48.5q0 32 -13 45.5t-41 13.5q-24 0 -38.5 -12
t-26.5 -45q-27 -7 -90 9z" />
    <glyph glyph-name="acute" unicode="&#xb4;" horiz-adv-x="297" 
d="M190 766l72 -87l-183 -141l-44 43z" />
    <glyph glyph-name="paragraph" unicode="&#xb6;" horiz-adv-x="717" 
d="M717 750l-37 -101q-20 10 -72 13v-669q0 -53 52 -53l-3 -23l-72 -45l-83 61v678q0 46 -41 51h-73v-734q0 -53 52 -53l-3 -23l-72 -45l-83 61v491q-30 -24 -90 -36q-75 27 -116 78.5t-41 111.5q0 87 75.5 160t172.5 73h347q43 0 66 14zM282 419v243q-93 0 -165 -27
q-10 -26 -10 -54q0 -67 50.5 -111t124.5 -51z" />
    <glyph glyph-name="periodcentered" unicode="&#xb7;" horiz-adv-x="234" 
d="M122 388l77 -84l-87 -103l-77 91z" />
    <glyph glyph-name="cedilla" unicode="&#xb8;" horiz-adv-x="250" 
d="M82 0h111q0 -75 -39 -129t-92 -64l-26 18q44 44 46 175z" />
    <glyph glyph-name="onesuperior" unicode="&#xb9;" horiz-adv-x="181" 
d="M135 750v-422h-83v303q0 25 -33 29l2 32z" />
    <glyph glyph-name="ordmasculine" unicode="&#xba;" horiz-adv-x="403" 
d="M355 281l-37 -101q-25 13 -55 13h-128q-44 0 -67 -14l-21 10l37 101q25 -13 55 -13h128q44 0 67 14zM102 647q-10 -21 -10 -49q0 -70 60 -124.5t118 -54.5q22 0 45 12q5 17 5 35q0 76 -55 131.5t-123 55.5q-20 0 -40 -6zM214 763q165 -98 165 -231q0 -76 -52 -127.5
t-131 -66.5q-79 29 -126.5 80.5t-47.5 121.5q0 67 46 115.5t146 107.5z" />
    <glyph glyph-name="guillemotright" unicode="&#xbb;" horiz-adv-x="502" 
d="M12 486l44 24q105 -147 212 -257q-123 -128 -212 -257l-31 46q71 133 142 217q-67 79 -155 227zM233 486l44 24q105 -147 212 -257q-123 -128 -212 -257l-31 46q71 133 142 217q-67 79 -155 227z" />
    <glyph glyph-name="onequarter" unicode="&#xbc;" horiz-adv-x="734" 
d="M196 750v-422h-83v303q0 25 -33 29l2 32zM595 761l-480 -768l-69 15l487 768zM631 417l14 -17q-33 -69 -33 -99v-155l76 4l-1 -25q-17 -23 -31 -64h-29q-2 26 -15 29q-1 -131 -111 -193v37q21 25 21 106v49h-181l-10 38q44 34 66 77t34 109q3 0 15 -9.5t27.5 -37
t19.5 -63.5q-47 -10 -68 -64l97 4v113q0 50 -25 78q66 30 134 83z" />
    <glyph glyph-name="onehalf" unicode="&#xbd;" horiz-adv-x="822" 
d="M196 750v-422h-83v303q0 25 -33 29l2 32zM595 761l-480 -768l-69 15l487 768zM733 125l43 -12q-29 -119 -126 -119q-23 0 -79 8.5t-75 8.5q-28 0 -58 -20l-25 23q49 129 125 239q35 -38 77 -38q53 0 53 60q0 74 -43 74q-29 0 -54.5 -18t-36.5 -46q-44 32 -89 48
q64 60 146 94q85 -40 121 -76.5t36 -86.5q0 -49 -40 -106q-39 25 -75 25t-64 -23.5t-57 -81.5q29 17 68 17q24 0 58.5 -8.5t42.5 -8.5q33 0 52 47z" />
    <glyph glyph-name="threequarters" unicode="&#xbe;" horiz-adv-x="874" 
d="M52 661v30q26 7 55 25q56 32 120 32q57 0 87 -21.5t30 -58.5q0 -50 -60 -88q98 -19 98 -102q0 -97 -155 -164q-137 13 -181 102q39 6 93 20q8 -60 99 -78q49 30 49 83q0 32 -25 54t-78 28l2 46q44 14 59.5 32.5t15.5 48.5q0 32 -13 45.5t-41 13.5q-24 0 -38.5 -12
t-26.5 -45q-27 -7 -90 9zM735 761l-480 -768l-69 15l487 768zM771 417l14 -17q-33 -69 -33 -99v-155l76 4l-1 -25q-17 -23 -31 -64h-29q-2 26 -15 29q-1 -131 -111 -193v37q21 25 21 106v49h-181l-10 38q44 34 66 77t34 109q3 0 15 -9.5t27.5 -37t19.5 -63.5
q-47 -10 -68 -64l97 4v113q0 50 -25 78q66 30 134 83z" />
    <glyph glyph-name="questiondown" unicode="&#xbf;" horiz-adv-x="579" 
d="M294 359h101q50 -59 50 -112q0 -50 -44 -100q-61 59 -137 59q-54 0 -83 -33.5t-29 -96.5q0 -68 48 -120.5t113 -52.5q44 0 69 32t36 105q67 -55 139 -75q-108 -97 -247 -158q-151 65 -217 132.5t-66 157.5q0 88 68 181q11 -4 34 -13.5t32.5 -13t24.5 -8.5t25.5 -7
t20.5 -2q33 0 55 20t22 48q0 24 -15 57zM347 582l77 -91l-88 -96l-76 84z" />
    <glyph glyph-name="Agrave" unicode="&#xc0;" horiz-adv-x="764" 
d="M406 695h-80q0 -100 -19 -264h200l-21 191q-5 42 -21.5 57.5t-58.5 15.5zM666 746l-4 -44q-21 0 -32.5 -21t-7.5 -61l50 -464q12 -113 72 -113l-4 -43h-386l4 41q179 0 179 101q0 29 -7 83l-11 82h-238q-51 -185 -162 -319q-29 28 -123 111l20 21q10 -6 21 -6
q19 0 45.5 20.5t57 67t57.5 112t47.5 165.5t26.5 216h-196l10 51h581zM354 1007l152 -190l-56 -38l-192 157z" />
    <glyph glyph-name="Aacute" unicode="&#xc1;" horiz-adv-x="764" 
d="M406 695h-80q0 -100 -19 -264h200l-21 191q-5 42 -21.5 57.5t-58.5 15.5zM666 746l-4 -44q-21 0 -32.5 -21t-7.5 -61l50 -464q12 -113 72 -113l-4 -43h-386l4 41q179 0 179 101q0 29 -7 83l-11 82h-238q-51 -185 -162 -319q-29 28 -123 111l20 21q10 -6 21 -6
q19 0 45.5 20.5t57 67t57.5 112t47.5 165.5t26.5 216h-196l10 51h581zM483 1007l72 -87l-183 -141l-44 43z" />
    <glyph glyph-name="Acircumflex" unicode="&#xc2;" horiz-adv-x="764" 
d="M406 695h-80q0 -100 -19 -264h200l-21 191q-5 42 -21.5 57.5t-58.5 15.5zM666 746l-4 -44q-21 0 -32.5 -21t-7.5 -61l50 -464q12 -113 72 -113l-4 -43h-386l4 41q179 0 179 101q0 29 -7 83l-11 82h-238q-51 -185 -162 -319q-29 28 -123 111l20 21q10 -6 21 -6
q19 0 45.5 20.5t57 67t57.5 112t47.5 165.5t26.5 216h-196l10 51h581zM413 1007l152 -190l-56 -38l-101 92l-106 -92l-44 43z" />
    <glyph glyph-name="Atilde" unicode="&#xc3;" horiz-adv-x="764" 
d="M406 695h-80q0 -100 -19 -264h200l-21 191q-5 42 -21.5 57.5t-58.5 15.5zM666 746l-4 -44q-21 0 -32.5 -21t-7.5 -61l50 -464q12 -113 72 -113l-4 -43h-386l4 41q179 0 179 101q0 29 -7 83l-11 82h-238q-51 -185 -162 -319q-29 28 -123 111l20 21q10 -6 21 -6
q19 0 45.5 20.5t57 67t57.5 112t47.5 165.5t26.5 216h-196l10 51h581zM572 958l44 -43q-18 -66 -45.5 -94t-68.5 -28q-43 0 -103.5 37t-84.5 41q-34 -24 -62 -79l-44 43q18 66 45.5 94t67.5 28q44 0 106.5 -37.5t82.5 -40.5q39 25 62 79z" />
    <glyph glyph-name="Adieresis" unicode="&#xc4;" horiz-adv-x="764" 
d="M406 695h-80q0 -100 -19 -264h200l-21 191q-5 42 -21.5 57.5t-58.5 15.5zM666 746l-4 -44q-21 0 -32.5 -21t-7.5 -61l50 -464q12 -113 72 -113l-4 -43h-386l4 41q179 0 179 101q0 29 -7 83l-11 82h-238q-51 -185 -162 -319q-29 28 -123 111l20 21q10 -6 21 -6
q19 0 45.5 20.5t57 67t57.5 112t47.5 165.5t26.5 216h-196l10 51h581zM577 993v-122l-131 -59v124zM377 973v-122l-131 -59v124z" />
    <glyph glyph-name="Aring" unicode="&#xc5;" horiz-adv-x="764" 
d="M406 695h-80q0 -100 -19 -264h200l-21 191q-5 42 -21.5 57.5t-58.5 15.5zM666 746l-4 -44q-21 0 -32.5 -21t-7.5 -61l50 -464q12 -113 72 -113l-4 -43h-386l4 41q179 0 179 101q0 29 -7 83l-11 82h-238q-51 -185 -162 -319q-29 28 -123 111l20 21q10 -6 21 -6
q19 0 45.5 20.5t57 67t57.5 112t47.5 165.5t26.5 216h-196l10 51h581zM360 931q-6 -11 -6 -22q0 -32 32.5 -57t63.5 -25q12 0 24 6q2 5 2 16q0 35 -29 60t-65 25q-12 0 -22 -3zM421 1007q111 -55 111 -128q0 -43 -34.5 -71.5t-88.5 -37.5q-53 16 -85 45t-32 68q0 37 31 64.5
t98 59.5z" />
    <glyph glyph-name="AE" unicode="&#xc6;" horiz-adv-x="1212" 
d="M1006 536l-24 30q2 10 2 15q0 34 -36.5 61t-96.5 27q-96 0 -162.5 -72.5t-66.5 -196.5l502 62q-49 -71 -95 -181h-18q-4 47 -63 50l-321 15q17 -108 88.5 -180.5t175.5 -72.5q145 0 256 155l33 -35q-37 -50 -69.5 -85.5t-76 -70.5t-95 -53t-108.5 -18q-132 0 -229 91.5
t-115 229.5h-239q-51 -185 -162 -319q-29 28 -123 111l20 21q11 -6 21 -6q19 0 45.5 20.5t57 67t57.5 112t47.5 165.5t26.5 216h-196l10 51h581l-4 -44q-19 0 -30 -16t-11 -46v-7q115 121 291 121q146 0 257 -108q-71 -51 -130 -110zM373 695h-80q0 -100 -19 -264h200
l-21 191q-5 42 -21.5 57.5t-58.5 15.5z" />
    <glyph glyph-name="Ccedilla" unicode="&#xc7;" horiz-adv-x="773" 
d="M569 536l-24 30q2 10 2 15q0 34 -36.5 61t-96.5 27q-95 0 -158.5 -71t-63.5 -191q0 -129 72 -221.5t190 -92.5q145 0 256 155l33 -35q-69 -93 -137 -150t-155 -72q-3 -71 -41.5 -122.5t-89.5 -61.5l-26 18q43 44 46 166q-128 20 -211 124.5t-83 247.5q0 168 114 279.5
t282 111.5q146 0 257 -108q-71 -51 -130 -110z" />
    <glyph glyph-name="Egrave" unicode="&#xc8;" horiz-adv-x="772" 
d="M569 536l-24 30q2 10 2 15q0 34 -36.5 61t-96.5 27q-96 0 -162.5 -72.5t-66.5 -196.5l502 62q-49 -71 -95 -181h-18q-4 47 -63 50l-321 15q17 -108 88.5 -180.5t175.5 -72.5q145 0 256 155l33 -35q-37 -50 -69.5 -85.5t-76 -70.5t-95 -53t-108.5 -18q-147 0 -247.5 109.5
t-100.5 267.5q0 168 114 279.5t282 111.5q146 0 257 -108q-71 -51 -130 -110zM358 1007l152 -190l-56 -38l-192 157z" />
    <glyph glyph-name="Eacute" unicode="&#xc9;" horiz-adv-x="772" 
d="M569 536l-24 30q2 10 2 15q0 34 -36.5 61t-96.5 27q-96 0 -162.5 -72.5t-66.5 -196.5l502 62q-49 -71 -95 -181h-18q-4 47 -63 50l-321 15q17 -108 88.5 -180.5t175.5 -72.5q145 0 256 155l33 -35q-37 -50 -69.5 -85.5t-76 -70.5t-95 -53t-108.5 -18q-147 0 -247.5 109.5
t-100.5 267.5q0 168 114 279.5t282 111.5q146 0 257 -108q-71 -51 -130 -110zM487 1007l72 -87l-183 -141l-44 43z" />
    <glyph glyph-name="Ecircumflex" unicode="&#xca;" horiz-adv-x="772" 
d="M569 536l-24 30q2 10 2 15q0 34 -36.5 61t-96.5 27q-96 0 -162.5 -72.5t-66.5 -196.5l502 62q-49 -71 -95 -181h-18q-4 47 -63 50l-321 15q17 -108 88.5 -180.5t175.5 -72.5q145 0 256 155l33 -35q-37 -50 -69.5 -85.5t-76 -70.5t-95 -53t-108.5 -18q-147 0 -247.5 109.5
t-100.5 267.5q0 168 114 279.5t282 111.5q146 0 257 -108q-71 -51 -130 -110zM417 1007l152 -190l-56 -38l-101 92l-106 -92l-44 43z" />
    <glyph glyph-name="Edieresis" unicode="&#xcb;" horiz-adv-x="772" 
d="M569 536l-24 30q2 10 2 15q0 34 -36.5 61t-96.5 27q-96 0 -162.5 -72.5t-66.5 -196.5l502 62q-49 -71 -95 -181h-18q-4 47 -63 50l-321 15q17 -108 88.5 -180.5t175.5 -72.5q145 0 256 155l33 -35q-37 -50 -69.5 -85.5t-76 -70.5t-95 -53t-108.5 -18q-147 0 -247.5 109.5
t-100.5 267.5q0 168 114 279.5t282 111.5q146 0 257 -108q-71 -51 -130 -110zM565 993v-122l-131 -59v124zM365 973v-122l-131 -59v124z" />
    <glyph glyph-name="Igrave" unicode="&#xcc;" horiz-adv-x="533" 
d="M440 746l-4 -42q-107 0 -107 -67v-516q0 -74 131 -91q63 0 63 -44q0 -40 -57 -40q-58 0 -75 54h-317l4 41q107 0 107 69v515q0 73 -132 91q-63 0 -63 44q0 40 57 40q59 0 75 -54h318zM208 1007l152 -190l-56 -38l-192 157z" />
    <glyph glyph-name="Iacute" unicode="&#xcd;" horiz-adv-x="533" 
d="M440 746l-4 -42q-107 0 -107 -67v-516q0 -74 131 -91q63 0 63 -44q0 -40 -57 -40q-58 0 -75 54h-317l4 41q107 0 107 69v515q0 73 -132 91q-63 0 -63 44q0 40 57 40q59 0 75 -54h318zM338 1007l72 -87l-183 -141l-44 43z" />
    <glyph glyph-name="Icircumflex" unicode="&#xce;" horiz-adv-x="533" 
d="M440 746l-4 -42q-107 0 -107 -67v-516q0 -74 131 -91q63 0 63 -44q0 -40 -57 -40q-58 0 -75 54h-317l4 41q107 0 107 69v515q0 73 -132 91q-63 0 -63 44q0 40 57 40q59 0 75 -54h318zM268 1007l152 -190l-56 -38l-101 92l-106 -92l-44 43z" />
    <glyph glyph-name="Idieresis" unicode="&#xcf;" horiz-adv-x="533" 
d="M440 746l-4 -42q-107 0 -107 -67v-516q0 -74 131 -91q63 0 63 -44q0 -40 -57 -40q-58 0 -75 54h-317l4 41q107 0 107 69v515q0 73 -132 91q-63 0 -63 44q0 40 57 40q59 0 75 -54h318zM442 993v-122l-131 -59v124zM242 973v-122l-131 -59v124z" />
    <glyph glyph-name="Idieresis" unicode="&#x407;" horiz-adv-x="533" 
d="M440 746l-4 -42q-107 0 -107 -67v-516q0 -74 131 -91q63 0 63 -44q0 -40 -57 -40q-58 0 -75 54h-317l4 41q107 0 107 69v515q0 73 -132 91q-63 0 -63 44q0 40 57 40q59 0 75 -54h318zM442 993v-122l-131 -59v124zM242 973v-122l-131 -59v124z" />
    <glyph glyph-name="Idieresis" unicode="&#x3aa;" horiz-adv-x="533" 
d="M440 746l-4 -42q-107 0 -107 -67v-516q0 -74 131 -91q63 0 63 -44q0 -40 -57 -40q-58 0 -75 54h-317l4 41q107 0 107 69v515q0 73 -132 91q-63 0 -63 44q0 40 57 40q59 0 75 -54h318zM442 993v-122l-131 -59v124zM242 973v-122l-131 -59v124z" />
    <glyph glyph-name="Eth" unicode="&#xd0;" horiz-adv-x="761" 
d="M20 645l18 34q135 0 311 91q95 -22 183 -93t139 -151.5t60 -145.5q-95 -297 -394 -395q-109 33 -187 33q-52 0 -98 -34l-29 38q72 66 72 154v163l-102 4l4 61l98 8v99q0 67 -75 134zM389 281h-18q-2 21 -18.5 35t-44.5 15l-68 2v-134q0 -123 91 -123q82 0 147.5 89
t65.5 233q0 76 -20.5 135.5t-52 93t-64.5 50t-64 16.5q-41 0 -71 -28.5t-31 -80.5l-1 -159l233 21q-48 -82 -84 -165z" />
    <glyph glyph-name="Eth" unicode="&#x110;" horiz-adv-x="761" 
d="M20 645l18 34q135 0 311 91q95 -22 183 -93t139 -151.5t60 -145.5q-95 -297 -394 -395q-109 33 -187 33q-52 0 -98 -34l-29 38q72 66 72 154v163l-102 4l4 61l98 8v99q0 67 -75 134zM389 281h-18q-2 21 -18.5 35t-44.5 15l-68 2v-134q0 -123 91 -123q82 0 147.5 89
t65.5 233q0 76 -20.5 135.5t-52 93t-64.5 50t-64 16.5q-41 0 -71 -28.5t-31 -80.5l-1 -159l233 21q-48 -82 -84 -165z" />
    <glyph glyph-name="Ntilde" unicode="&#xd1;" horiz-adv-x="745" 
d="M731 746l-4 -40q-62 -1 -62 -39v-667h-77v49l-415 520v-451q0 -144 -124 -304l-21 13q64 140 64 280v512q0 63 -68 75l3 30l174 38l387 -478v372q0 50 -71 50l4 40h210zM532 958l44 -43q-18 -66 -45.5 -94t-68.5 -28q-43 0 -103.5 37t-84.5 41q-34 -24 -62 -79l-44 43
q18 66 45.5 94t67.5 28q44 0 106.5 -37.5t82.5 -40.5q39 25 62 79z" />
    <glyph glyph-name="Ograve" unicode="&#xd2;" horiz-adv-x="753" 
d="M182 569q-40 -64 -40 -129q0 -109 90 -206q55 -59 129.5 -95t137.5 -36q49 0 87 24q33 65 33 146q0 120 -77 221q-41 55 -98 87t-122 32q-64 0 -140 -44zM401 764q141 -73 217 -170q89 -113 89 -246q0 -140 -97 -235t-242 -124q-140 53 -223 139q-99 102 -99 234
q0 83 42 152.5t116 126t197 123.5zM343 1007l152 -190l-56 -38l-192 157z" />
    <glyph glyph-name="Oacute" unicode="&#xd3;" horiz-adv-x="753" 
d="M182 569q-40 -64 -40 -129q0 -109 90 -206q55 -59 129.5 -95t137.5 -36q49 0 87 24q33 65 33 146q0 120 -77 221q-41 55 -98 87t-122 32q-64 0 -140 -44zM401 764q141 -73 217 -170q89 -113 89 -246q0 -140 -97 -235t-242 -124q-140 53 -223 139q-99 102 -99 234
q0 83 42 152.5t116 126t197 123.5zM472 1007l72 -87l-183 -141l-44 43z" />
    <glyph glyph-name="Ocircumflex" unicode="&#xd4;" horiz-adv-x="753" 
d="M182 569q-40 -64 -40 -129q0 -109 90 -206q55 -59 129.5 -95t137.5 -36q49 0 87 24q33 65 33 146q0 120 -77 221q-41 55 -98 87t-122 32q-64 0 -140 -44zM401 764q141 -73 217 -170q89 -113 89 -246q0 -140 -97 -235t-242 -124q-140 53 -223 139q-99 102 -99 234
q0 83 42 152.5t116 126t197 123.5zM401 1007l152 -190l-56 -38l-101 92l-106 -92l-44 43z" />
    <glyph glyph-name="Otilde" unicode="&#xd5;" horiz-adv-x="753" 
d="M182 569q-40 -64 -40 -129q0 -109 90 -206q55 -59 129.5 -95t137.5 -36q49 0 87 24q33 65 33 146q0 120 -77 221q-41 55 -98 87t-122 32q-64 0 -140 -44zM401 764q141 -73 217 -170q89 -113 89 -246q0 -140 -97 -235t-242 -124q-140 53 -223 139q-99 102 -99 234
q0 83 42 152.5t116 126t197 123.5zM559 958l44 -43q-18 -66 -45.5 -94t-68.5 -28q-43 0 -103.5 37t-84.5 41q-34 -24 -62 -79l-44 43q18 66 45.5 94t67.5 28q44 0 106.5 -37.5t82.5 -40.5q39 25 62 79z" />
    <glyph glyph-name="Odieresis" unicode="&#xd6;" horiz-adv-x="753" 
d="M182 569q-40 -64 -40 -129q0 -109 90 -206q55 -59 129.5 -95t137.5 -36q49 0 87 24q33 65 33 146q0 120 -77 221q-41 55 -98 87t-122 32q-64 0 -140 -44zM401 764q141 -73 217 -170q89 -113 89 -246q0 -140 -97 -235t-242 -124q-140 53 -223 139q-99 102 -99 234
q0 83 42 152.5t116 126t197 123.5zM565 993v-122l-131 -59v124zM365 973v-122l-131 -59v124z" />
    <glyph glyph-name="multiply" unicode="&#xd7;" horiz-adv-x="496" 
d="M383 572l49 -73l-124 -123l138 -138l-73 -49l-126 126l-140 -140l-49 73l128 128l-137 138l73 49l125 -126z" />
    <glyph glyph-name="Oslash" unicode="&#xd8;" horiz-adv-x="760" 
d="M684 782l-93 -151q13 -13 33 -37q89 -113 89 -246q0 -140 -97 -235t-242 -124q-73 27 -137 69l-59 -96l-73 16l76 121q-15 12 -30 29q-99 102 -99 234q0 83 42 152.5t116 126t197 123.5q77 -41 135 -88l77 122zM548 494l-24 28l-216 -349q102 -70 197 -70q49 0 87 24
q33 65 33 146q0 120 -77 221zM188 569q-40 -64 -40 -129q0 -109 90 -206q8 -9 17 -17l218 349q-68 47 -145 47q-64 0 -140 -44z" />
    <glyph glyph-name="Ugrave" unicode="&#xd9;" horiz-adv-x="749" 
d="M726 746l-4 -36q-61 -3 -61 -74v-464q0 -63 66 -78l-1 -28l-110 -81q-35 14 -63 44.5t-32 69.5q-21 -48 -68 -76t-107 -28q-50 0 -99 20t-92 58.5t-70 105t-27 149.5q0 193 137 369h-132l4 49h319l-4 -41q-50 -13 -86 -45.5t-55.5 -77t-28 -89.5t-8.5 -93
q0 -128 55 -206.5t141 -78.5q57 0 88 35.5t31 91.5v405q0 31 -20.5 47t-50.5 16l4 36h274zM356 1007l152 -190l-56 -38l-192 157z" />
    <glyph glyph-name="Uacute" unicode="&#xda;" horiz-adv-x="749" 
d="M726 746l-4 -36q-61 -3 -61 -74v-464q0 -63 66 -78l-1 -28l-110 -81q-35 14 -63 44.5t-32 69.5q-21 -48 -68 -76t-107 -28q-50 0 -99 20t-92 58.5t-70 105t-27 149.5q0 193 137 369h-132l4 49h319l-4 -41q-50 -13 -86 -45.5t-55.5 -77t-28 -89.5t-8.5 -93
q0 -128 55 -206.5t141 -78.5q57 0 88 35.5t31 91.5v405q0 31 -20.5 47t-50.5 16l4 36h274zM486 1007l72 -87l-183 -141l-44 43z" />
    <glyph glyph-name="Ucircumflex" unicode="&#xdb;" horiz-adv-x="749" 
d="M726 746l-4 -36q-61 -3 -61 -74v-464q0 -63 66 -78l-1 -28l-110 -81q-35 14 -63 44.5t-32 69.5q-21 -48 -68 -76t-107 -28q-50 0 -99 20t-92 58.5t-70 105t-27 149.5q0 193 137 369h-132l4 49h319l-4 -41q-50 -13 -86 -45.5t-55.5 -77t-28 -89.5t-8.5 -93
q0 -128 55 -206.5t141 -78.5q57 0 88 35.5t31 91.5v405q0 31 -20.5 47t-50.5 16l4 36h274zM416 1007l152 -190l-56 -38l-101 92l-106 -92l-44 43z" />
    <glyph glyph-name="Udieresis" unicode="&#xdc;" horiz-adv-x="749" 
d="M726 746l-4 -36q-61 -3 -61 -74v-464q0 -63 66 -78l-1 -28l-110 -81q-35 14 -63 44.5t-32 69.5q-21 -48 -68 -76t-107 -28q-50 0 -99 20t-92 58.5t-70 105t-27 149.5q0 193 137 369h-132l4 49h319l-4 -41q-50 -13 -86 -45.5t-55.5 -77t-28 -89.5t-8.5 -93
q0 -128 55 -206.5t141 -78.5q57 0 88 35.5t31 91.5v405q0 31 -20.5 47t-50.5 16l4 36h274zM582 993v-122l-131 -59v124zM382 973v-122l-131 -59v124z" />
    <glyph glyph-name="Yacute" unicode="&#xdd;" horiz-adv-x="727" 
d="M324 607l-4 20q83 48 118 118q13 4 37 4q94 0 155.5 -66t61.5 -189q0 -125 -70 -234t-216 -228q-10 -17 -10 -43q0 -28 15.5 -45t45.5 -17q51 0 134 67l28 -17q-42 -76 -101.5 -118.5t-118.5 -42.5q-57 0 -86 36.5t-29 81.5q0 49 41 87q-116 124 -158 208.5t-48 189.5
q-4 64 -7.5 94t-14.5 72t-33 72t-58 59v30h160q53 -52 70 -109t29 -180q11 -105 46.5 -176t121.5 -157q80 73 116 132t36 132q0 94 -52.5 161.5t-141.5 67.5q-36 0 -67 -10zM435 1007l72 -87l-183 -141l-44 43z" />
    <glyph glyph-name="Thorn" unicode="&#xde;" horiz-adv-x="797" 
d="M438 746v-42q-109 0 -109 -67v-114q52 44 184 124q116 -65 174.5 -135.5t79.5 -163.5q-15 -65 -65.5 -118.5t-112 -83.5t-126.5 -42q-78 28 -134 78v-61q0 -40 34 -65.5t98 -25.5q63 0 63 -44q0 -40 -57 -40q-59 0 -76 54h-315v41q109 0 109 69v515q0 39 -34 65t-97 26
q-64 0 -64 44q0 40 58 40t75 -54h315zM649 225q0 74 -31 133t-83 95q-64 44 -139 44q-28 0 -50 -7q-13 -27 -13 -61q0 -84 83 -151.5t170 -67.5q37 0 63 15z" />
    <glyph glyph-name="germandbls" unicode="&#xdf;" horiz-adv-x="600" 
d="M198 531v-531h-131v416h-63l4 22q53 30 53 65q0 43 -57 46l4 18q149 143 283 186q69 -125 160 -149q0 -55 -57 -112q78 -11 124 -66.5t46 -133.5q0 -45 -16.5 -94.5t-49 -96t-89.5 -78.5t-129 -37q-5 97 -25 155q82 -25 157 -25q30 0 50 6q17 46 17 85q0 80 -61.5 127.5
t-162.5 47.5l-21 24q88 63 103 114q-9 44 -45 74.5t-75 30.5q-18 0 -38 -7q19 -40 19 -87z" />
    <glyph glyph-name="agrave" unicode="&#xe0;" horiz-adv-x="518" 
d="M299 265l-60 -27q-32 -14 -48 -41t-16 -55q0 -54 62 -62q32 8 62 26v159zM431 395v-259q0 -65 63 -65l-4 -24l-89 -56l-101 75q-69 -52 -138 -87q-115 23 -115 133q0 98 103 138l149 57v21q0 52 -49 74q-66 -42 -165 -60q-5 16 -25 36q126 50 189 137q96 -78 182 -120z
M191 766l152 -190l-56 -38l-192 157z" />
    <glyph glyph-name="aacute" unicode="&#xe1;" horiz-adv-x="518" 
d="M299 265l-60 -27q-32 -14 -48 -41t-16 -55q0 -54 62 -62q32 8 62 26v159zM431 395v-259q0 -65 63 -65l-4 -24l-89 -56l-101 75q-69 -52 -138 -87q-115 23 -115 133q0 98 103 138l149 57v21q0 52 -49 74q-66 -42 -165 -60q-5 16 -25 36q126 50 189 137q96 -78 182 -120z
M321 766l72 -87l-183 -141l-44 43z" />
    <glyph glyph-name="acircumflex" unicode="&#xe2;" horiz-adv-x="518" 
d="M299 265l-60 -27q-32 -14 -48 -41t-16 -55q0 -54 62 -62q32 8 62 26v159zM431 395v-259q0 -65 63 -65l-4 -24l-89 -56l-101 75q-69 -52 -138 -87q-115 23 -115 133q0 98 103 138l149 57v21q0 52 -49 74q-66 -42 -165 -60q-5 16 -25 36q126 50 189 137q96 -78 182 -120z
M251 766l152 -190l-56 -38l-101 92l-106 -92l-44 43z" />
    <glyph glyph-name="atilde" unicode="&#xe3;" horiz-adv-x="518" 
d="M299 265l-60 -27q-32 -14 -48 -41t-16 -55q0 -54 62 -62q32 8 62 26v159zM431 395v-259q0 -65 63 -65l-4 -24l-89 -56l-101 75q-69 -52 -138 -87q-115 23 -115 133q0 98 103 138l149 57v21q0 52 -49 74q-66 -42 -165 -60q-5 16 -25 36q126 50 189 137q96 -78 182 -120z
M410 717l44 -43q-18 -66 -45.5 -94t-68.5 -28q-43 0 -103.5 37t-84.5 41q-34 -24 -62 -79l-44 43q18 66 45.5 94t67.5 28q44 0 106.5 -37.5t82.5 -40.5q39 25 62 79z" />
    <glyph glyph-name="adieresis" unicode="&#xe4;" horiz-adv-x="518" 
d="M299 265l-60 -27q-32 -14 -48 -41t-16 -55q0 -54 62 -62q32 8 62 26v159zM431 395v-259q0 -65 63 -65l-4 -24l-89 -56l-101 75q-69 -52 -138 -87q-115 23 -115 133q0 98 103 138l149 57v21q0 52 -49 74q-66 -42 -165 -60q-5 16 -25 36q126 50 189 137q96 -78 182 -120z
M415 752v-122l-131 -59v124zM215 732v-122l-131 -59v124z" />
    <glyph glyph-name="aring" unicode="&#xe5;" horiz-adv-x="518" 
d="M299 265l-60 -27q-32 -14 -48 -41t-16 -55q0 -54 62 -62q32 8 62 26v159zM431 395v-259q0 -65 63 -65l-4 -24l-89 -56l-101 75q-69 -52 -138 -87q-115 23 -115 133q0 98 103 138l149 57v21q0 52 -49 74q-66 -42 -165 -60q-5 16 -25 36q126 50 189 137q96 -78 182 -120z
M197 690q-6 -10 -6 -22q0 -32 32.5 -57t63.5 -25q12 0 24 6q2 5 2 16q0 34 -29 59.5t-65 25.5q-11 0 -22 -3zM258 766q111 -55 111 -128q0 -43 -34.5 -71.5t-88.5 -37.5q-53 16 -85 45t-32 68q0 37 31 64.5t98 59.5z" />
    <glyph glyph-name="ae" unicode="&#xe6;" horiz-adv-x="682" 
d="M640 382l-218 -218q55 -62 130 -62q47 0 90 22l13 -6q-68 -115 -169 -131q-95 41 -145 120q-82 -79 -179 -128q-115 23 -115 134q0 75 66 123l193 74q0 17 4 33q-7 16 -24 33t-36 26q-66 -42 -165 -60q-5 16 -25 36q126 50 189 137q60 -50 136 -96q40 39 119 98
q81 -51 136 -135zM304 271l-65 -33q-64 -43 -64 -97q0 -53 62 -61q42 15 89 51q-24 59 -24 101q0 13 2 39zM399 197l115 115q-20 80 -105 87q-27 -67 -27 -121q0 -39 17 -81z" />
    <glyph glyph-name="ccedilla" unicode="&#xe7;" horiz-adv-x="412" 
d="M366 409l-85 -77q-52 48 -143 70q-10 -51 -10 -94q0 -96 48 -145.5t108 -49.5q49 0 94 24l19 -19q-37 -72 -127 -112q-2 -77 -35.5 -132.5t-78.5 -66.5l-23 19q38 49 41 185q-138 86 -138 228q0 81 47 140t154 138q98 -58 129 -108z" />
    <glyph glyph-name="ccedilla" unicode="&#x4ab;" horiz-adv-x="412" 
d="M366 409l-85 -77q-52 48 -143 70q-10 -51 -10 -94q0 -96 48 -145.5t108 -49.5q49 0 94 24l19 -19q-37 -72 -127 -112q-2 -77 -35.5 -132.5t-78.5 -66.5l-23 19q38 49 41 185q-138 86 -138 228q0 81 47 140t154 138q98 -58 129 -108z" />
    <glyph glyph-name="egrave" unicode="&#xe8;" horiz-adv-x="426" 
d="M382 382l-218 -218q56 -62 130 -62q45 0 89 23l16 -10q-66 -111 -171 -128q-85 25 -138.5 92.5t-53.5 156.5q0 36 11 68t25.5 55.5t46 53.5t55.5 49t72 55q81 -51 136 -135zM141 197l116 115q-21 80 -106 87q-27 -67 -27 -121q0 -39 17 -81zM177 766l152 -190l-56 -38
l-192 157z" />
    <glyph glyph-name="egrave" unicode="&#x450;" horiz-adv-x="426" 
d="M382 382l-218 -218q56 -62 130 -62q45 0 89 23l16 -10q-66 -111 -171 -128q-85 25 -138.5 92.5t-53.5 156.5q0 36 11 68t25.5 55.5t46 53.5t55.5 49t72 55q81 -51 136 -135zM141 197l116 115q-21 80 -106 87q-27 -67 -27 -121q0 -39 17 -81zM177 766l152 -190l-56 -38
l-192 157z" />
    <glyph glyph-name="eacute" unicode="&#xe9;" horiz-adv-x="426" 
d="M382 382l-218 -218q56 -62 130 -62q45 0 89 23l16 -10q-66 -111 -171 -128q-85 25 -138.5 92.5t-53.5 156.5q0 36 11 68t25.5 55.5t46 53.5t55.5 49t72 55q81 -51 136 -135zM141 197l116 115q-21 80 -106 87q-27 -67 -27 -121q0 -39 17 -81zM308 766l72 -87l-183 -141
l-44 43z" />
    <glyph glyph-name="ecircumflex" unicode="&#xea;" horiz-adv-x="426" 
d="M382 382l-218 -218q56 -62 130 -62q45 0 89 23l16 -10q-66 -111 -171 -128q-85 25 -138.5 92.5t-53.5 156.5q0 36 11 68t25.5 55.5t46 53.5t55.5 49t72 55q81 -51 136 -135zM141 197l116 115q-21 80 -106 87q-27 -67 -27 -121q0 -39 17 -81zM237 766l152 -190l-56 -38
l-101 92l-106 -92l-44 43z" />
    <glyph glyph-name="edieresis" unicode="&#xeb;" horiz-adv-x="426" 
d="M382 382l-218 -218q56 -62 130 -62q45 0 89 23l16 -10q-66 -111 -171 -128q-85 25 -138.5 92.5t-53.5 156.5q0 36 11 68t25.5 55.5t46 53.5t55.5 49t72 55q81 -51 136 -135zM141 197l116 115q-21 80 -106 87q-27 -67 -27 -121q0 -39 17 -81zM401 752v-122l-131 -59v124z
M201 732v-122l-131 -59v124z" />
    <glyph glyph-name="edieresis" unicode="&#x451;" horiz-adv-x="426" 
d="M382 382l-218 -218q56 -62 130 -62q45 0 89 23l16 -10q-66 -111 -171 -128q-85 25 -138.5 92.5t-53.5 156.5q0 36 11 68t25.5 55.5t46 53.5t55.5 49t72 55q81 -51 136 -135zM141 197l116 115q-21 80 -106 87q-27 -67 -27 -121q0 -39 17 -81zM401 752v-122l-131 -59v124z
M201 732v-122l-131 -59v124z" />
    <glyph glyph-name="igrave" unicode="&#xec;" horiz-adv-x="310" 
d="M220 414v-278q0 -65 64 -65l-4 -24l-89 -56l-102 76v272q0 58 -51 63l4 18l94 95q37 -8 60.5 -35.5t23.5 -65.5zM95 766l152 -190l-56 -38l-192 157z" />
    <glyph glyph-name="iacute" unicode="&#xed;" horiz-adv-x="295" 
d="M205 414v-278q0 -65 64 -65l-4 -24l-89 -56l-102 76v272q0 58 -51 63l4 18l94 95q37 -8 60.5 -35.5t23.5 -65.5zM213 766l72 -87l-183 -141l-44 43z" />
    <glyph glyph-name="icircumflex" unicode="&#xee;" horiz-adv-x="326" 
d="M236 414v-278q0 -65 64 -65l-4 -24l-89 -56l-102 76v272q0 58 -51 63l4 18l94 95q37 -8 60.5 -35.5t23.5 -65.5zM155 766l152 -190l-56 -38l-101 92l-106 -92l-44 43z" />
    <glyph glyph-name="uni0457" unicode="&#xef;" horiz-adv-x="331" 
d="M232 414v-278q0 -65 64 -65l-4 -24l-89 -56l-102 76v272q0 58 -51 63l4 18l94 95q37 -8 60.5 -35.5t23.5 -65.5zM331 752v-122l-131 -59v124zM131 732v-122l-131 -59v124z" />
    <glyph glyph-name="uni0457" unicode="&#x457;" horiz-adv-x="331" 
d="M232 414v-278q0 -65 64 -65l-4 -24l-89 -56l-102 76v272q0 58 -51 63l4 18l94 95q37 -8 60.5 -35.5t23.5 -65.5zM331 752v-122l-131 -59v124zM131 732v-122l-131 -59v124z" />
    <glyph glyph-name="uni0457" unicode="&#x3ca;" horiz-adv-x="331" 
d="M232 414v-278q0 -65 64 -65l-4 -24l-89 -56l-102 76v272q0 58 -51 63l4 18l94 95q37 -8 60.5 -35.5t23.5 -65.5zM331 752v-122l-131 -59v124zM131 732v-122l-131 -59v124z" />
    <glyph glyph-name="eth" unicode="&#xf0;" horiz-adv-x="513" 
d="M471 706l-86 -52q81 -102 81 -274q0 -96 -25 -172.5t-64.5 -120.5t-80.5 -68.5t-82 -31.5q-81 33 -129.5 102t-48.5 152q0 89 55.5 159t144.5 106q28 -10 67 -45t61 -71q0 124 -52 219l-103 -62l-39 38l113 68q-26 34 -53.5 54t-42.5 22l17 30q81 -11 144 -67l85 52z
M168 394q-17 -55 -17 -106q0 -151 120 -222q27 24 47.5 80.5t20.5 125.5q-7 67 -39.5 96t-96.5 29q-19 0 -35 -3z" />
    <glyph glyph-name="ntilde" unicode="&#xf1;" horiz-adv-x="545" 
d="M205 367v-367h-131v335q0 58 -51 63l4 18l108 95q61 -18 70 -67q95 20 157 67q77 -20 110 -75t33 -156q0 -107 -34 -280h-168q81 195 81 285q0 101 -111 101q-36 0 -68 -19zM432 717l44 -43q-18 -66 -45.5 -94t-68.5 -28q-43 0 -103.5 37t-84.5 41q-34 -24 -62 -79
l-44 43q18 66 45.5 94t67.5 28q44 0 106.5 -37.5t82.5 -40.5q39 25 62 79z" />
    <glyph glyph-name="ograve" unicode="&#xf2;" 
d="M136 373q-13 -27 -13 -61q0 -88 75 -156t147 -68q27 0 56 15q6 19 6 44q0 94 -68 163.5t-154 69.5q-27 0 -49 -7zM275 517q206 -122 206 -287q0 -95 -64.5 -159.5t-163.5 -83.5q-98 36 -157.5 100.5t-59.5 151.5q0 83 57 144t182 134zM207 766l152 -190l-56 -38l-192 157
z" />
    <glyph glyph-name="oacute" unicode="&#xf3;" 
d="M136 373q-13 -27 -13 -61q0 -88 75 -156t147 -68q27 0 56 15q6 19 6 44q0 94 -68 163.5t-154 69.5q-27 0 -49 -7zM275 517q206 -122 206 -287q0 -95 -64.5 -159.5t-163.5 -83.5q-98 36 -157.5 100.5t-59.5 151.5q0 83 57 144t182 134zM337 766l72 -87l-183 -141l-44 43z
" />
    <glyph glyph-name="ocircumflex" unicode="&#xf4;" 
d="M136 373q-13 -27 -13 -61q0 -88 75 -156t147 -68q27 0 56 15q6 19 6 44q0 94 -68 163.5t-154 69.5q-27 0 -49 -7zM275 517q206 -122 206 -287q0 -95 -64.5 -159.5t-163.5 -83.5q-98 36 -157.5 100.5t-59.5 151.5q0 83 57 144t182 134zM267 766l152 -190l-56 -38l-101 92
l-106 -92l-44 43z" />
    <glyph glyph-name="otilde" unicode="&#xf5;" 
d="M136 373q-13 -27 -13 -61q0 -88 75 -156t147 -68q27 0 56 15q6 19 6 44q0 94 -68 163.5t-154 69.5q-27 0 -49 -7zM275 517q206 -122 206 -287q0 -95 -64.5 -159.5t-163.5 -83.5q-98 36 -157.5 100.5t-59.5 151.5q0 83 57 144t182 134zM425 717l44 -43q-18 -66 -45.5 -94
t-68.5 -28q-43 0 -103.5 37t-84.5 41q-34 -24 -62 -79l-44 43q18 66 45.5 94t67.5 28q44 0 106.5 -37.5t82.5 -40.5q39 25 62 79z" />
    <glyph glyph-name="odieresis" unicode="&#xf6;" 
d="M136 373q-13 -27 -13 -61q0 -88 75 -156t147 -68q27 0 56 15q6 19 6 44q0 94 -68 163.5t-154 69.5q-27 0 -49 -7zM275 517q206 -122 206 -287q0 -95 -64.5 -159.5t-163.5 -83.5q-98 36 -157.5 100.5t-59.5 151.5q0 83 57 144t182 134zM431 752v-122l-131 -59v124z
M231 732v-122l-131 -59v124z" />
    <glyph glyph-name="divide" unicode="&#xf7;" horiz-adv-x="496" 
d="M489 419l-22 -87h-461l22 87h461zM255 667l77 -84l-87 -103l-77 91zM255 272l77 -84l-87 -103l-77 91z" />
    <glyph glyph-name="oslash" unicode="&#xf8;" horiz-adv-x="516" 
d="M478 496l-69 -91q69 -81 69 -175q0 -95 -64.5 -159.5t-163.5 -83.5q-63 22 -113 59l-40 -53l-54 10l58 75q-68 68 -68 161q0 83 57 144t182 134q65 -39 106 -79l51 67zM404 147q0 92 -67 162l-127 -167q67 -54 132 -54q28 0 56 15q6 19 6 44zM133 373q-13 -27 -13 -61
q0 -73 56 -137l126 164q-57 41 -120 41q-27 0 -49 -7z" />
    <glyph glyph-name="ugrave" unicode="&#xf9;" horiz-adv-x="564" 
d="M487 505v-335q0 -58 51 -63l-4 -18l-109 -95q-59 16 -67 84q-88 -26 -171 -84q-155 37 -155 215q0 50 15 117.5t15 94.5q0 46 -20 84h140q20 -26 20 -68q0 -35 -23 -122t-23 -115q0 -43 30 -63.5t77 -20.5q53 0 92 30v359h132zM224 766l152 -190l-56 -38l-192 157z" />
    <glyph glyph-name="uacute" unicode="&#xfa;" horiz-adv-x="564" 
d="M487 505v-335q0 -58 51 -63l-4 -18l-109 -95q-59 16 -67 84q-88 -26 -171 -84q-155 37 -155 215q0 50 15 117.5t15 94.5q0 46 -20 84h140q20 -26 20 -68q0 -35 -23 -122t-23 -115q0 -43 30 -63.5t77 -20.5q53 0 92 30v359h132zM353 766l72 -87l-183 -141l-44 43z" />
    <glyph glyph-name="ucircumflex" unicode="&#xfb;" horiz-adv-x="564" 
d="M487 505v-335q0 -58 51 -63l-4 -18l-109 -95q-59 16 -67 84q-88 -26 -171 -84q-155 37 -155 215q0 50 15 117.5t15 94.5q0 46 -20 84h140q20 -26 20 -68q0 -35 -23 -122t-23 -115q0 -43 30 -63.5t77 -20.5q53 0 92 30v359h132zM283 766l152 -190l-56 -38l-101 92
l-106 -92l-44 43z" />
    <glyph glyph-name="udieresis" unicode="&#xfc;" horiz-adv-x="564" 
d="M487 505v-335q0 -58 51 -63l-4 -18l-109 -95q-59 16 -67 84q-88 -26 -171 -84q-155 37 -155 215q0 50 15 117.5t15 94.5q0 46 -20 84h140q20 -26 20 -68q0 -35 -23 -122t-23 -115q0 -43 30 -63.5t77 -20.5q53 0 92 30v359h132zM447 752v-122l-131 -59v124zM247 732v-122
l-131 -59v124z" />
    <glyph glyph-name="yacute" unicode="&#xfd;" horiz-adv-x="522" 
d="M232 413l-8 22q57 28 83 81q12 3 28 3q61 0 103.5 -44t42.5 -133q0 -52 -14.5 -95.5t-51 -88.5t-67 -74t-94.5 -84q-63 -55 -70 -188h-140q21 73 69.5 126.5t116.5 77.5q-76 84 -106 145t-37 134q-10 98 -21 123t-58 51l4 36h135q36 -36 46.5 -71t18.5 -118
q7 -75 26 -120t76 -90q79 72 79 167q0 57 -32.5 102.5t-80.5 45.5q-16 0 -48 -8zM332 766l72 -87l-183 -141l-44 43z" />
    <glyph glyph-name="thorn" unicode="&#xfe;" horiz-adv-x="538" 
d="M205 405v-172q18 -77 58 -108.5t87 -31.5q8 0 22 2q16 48 16 102q0 43 -9.5 77.5t-30 62t-35.5 42.5t-43 38q-31 -10 -65 -12zM205 753v-301q63 16 121 61q176 -70 176 -252q0 -43 -11 -79t-25.5 -60t-45 -51.5t-52 -43.5t-64.5 -44q-53 17 -99 97v-268h-131v765
q0 58 -51 63l4 18z" />
    <glyph glyph-name="ydieresis" unicode="&#xff;" horiz-adv-x="522" 
d="M232 413l-8 22q57 28 83 81q12 3 28 3q61 0 103.5 -44t42.5 -133q0 -52 -14.5 -95.5t-51 -88.5t-67 -74t-94.5 -84q-63 -55 -70 -188h-140q21 73 69.5 126.5t116.5 77.5q-76 84 -106 145t-37 134q-10 98 -21 123t-58 51l4 36h135q36 -36 46.5 -71t18.5 -118
q7 -75 26 -120t76 -90q79 72 79 167q0 57 -32.5 102.5t-80.5 45.5q-16 0 -48 -8zM426 752v-122l-131 -59v124zM226 732v-122l-131 -59v124z" />
    <glyph glyph-name="Amacron" unicode="&#x100;" horiz-adv-x="764" 
d="M406 695h-80q0 -100 -19 -264h200l-21 191q-5 42 -21.5 57.5t-58.5 15.5zM666 746l-4 -44q-21 0 -32.5 -21t-7.5 -61l50 -464q12 -113 72 -113l-4 -43h-386l4 41q179 0 179 101q0 29 -7 83l-11 82h-238q-51 -185 -162 -319q-29 28 -123 111l20 21q10 -6 21 -6
q19 0 45.5 20.5t57 67t57.5 112t47.5 165.5t26.5 216h-196l10 51h581zM590 949l-22 -87h-335l22 87h335z" />
    <glyph glyph-name="amacron" unicode="&#x101;" horiz-adv-x="518" 
d="M299 265l-60 -27q-32 -14 -48 -41t-16 -55q0 -54 62 -62q32 8 62 26v159zM431 395v-259q0 -65 63 -65l-4 -24l-89 -56l-101 75q-69 -52 -138 -87q-115 23 -115 133q0 98 103 138l149 57v21q0 52 -49 74q-66 -42 -165 -60q-5 16 -25 36q126 50 189 137q96 -78 182 -120z
M429 708l-22 -87h-335l22 87h335z" />
    <glyph glyph-name="Abreve" unicode="&#x102;" horiz-adv-x="764" 
d="M406 695h-80q0 -100 -19 -264h200l-21 191q-5 42 -21.5 57.5t-58.5 15.5zM666 746l-4 -44q-21 0 -32.5 -21t-7.5 -61l50 -464q12 -113 72 -113l-4 -43h-386l4 41q179 0 179 101q0 29 -7 83l-11 82h-238q-51 -185 -162 -319q-29 28 -123 111l20 21q10 -6 21 -6
q19 0 45.5 20.5t57 67t57.5 112t47.5 165.5t26.5 216h-196l10 51h581zM505 987h88q-13 -88 -58 -146t-124 -58q-78 0 -122 57.5t-58 146.5h90q7 -58 36.5 -103t81.5 -58q59 62 66 161z" />
    <glyph glyph-name="abreve" unicode="&#x103;" horiz-adv-x="518" 
d="M299 265l-60 -27q-32 -14 -48 -41t-16 -55q0 -54 62 -62q32 8 62 26v159zM431 395v-259q0 -65 63 -65l-4 -24l-89 -56l-101 75q-69 -52 -138 -87q-115 23 -115 133q0 98 103 138l149 57v21q0 52 -49 74q-66 -42 -165 -60q-5 16 -25 36q126 50 189 137q96 -78 182 -120z
M343 746h88q-13 -88 -58 -146t-124 -58q-78 0 -122 57.5t-58 146.5h90q7 -58 36.5 -103t81.5 -58q59 62 66 161z" />
    <glyph glyph-name="Aogonek" unicode="&#x104;" horiz-adv-x="764" 
d="M666 746l-4 -44q-21 0 -32.5 -21t-7.5 -61l50 -464q12 -113 72 -113l-4 -43h-76q-52 -33 -76 -73q8 -2 26 -2q71 0 123 21l-8 -106q-18 -14 -62.5 -23.5t-88.5 -9.5q-75 21 -79 90q48 70 125 103h-270l4 41q179 0 179 101q0 29 -7 83l-11 82h-238q-51 -185 -162 -319
q-29 28 -123 111l20 21q10 -6 21 -6q19 0 45.5 20.5t57 67t57.5 112t47.5 165.5t26.5 216h-196l10 51h581zM406 695h-80q0 -100 -19 -264h200l-21 191q-5 42 -21.5 57.5t-58.5 15.5z" />
    <glyph glyph-name="aogonek" unicode="&#x105;" horiz-adv-x="518" 
d="M431 395v-259q0 -65 63 -65l-4 -24q-58 -37 -91 -61.5t-43 -35t-17 -23.5q8 -2 26 -2q71 0 123 21l-8 -106q-18 -14 -62.5 -23.5t-88.5 -9.5q-75 21 -79 90q46 68 132 107l-82 62q-69 -52 -138 -87q-115 23 -115 133q0 98 103 138l149 57v21q0 52 -49 74
q-66 -42 -165 -60q-5 16 -25 36q126 50 189 137q96 -78 182 -120zM299 265l-60 -27q-32 -14 -48 -41t-16 -55q0 -54 62 -62q32 8 62 26v159z" />
    <glyph glyph-name="Cacute" unicode="&#x106;" horiz-adv-x="773" 
d="M569 536l-24 30q2 10 2 15q0 34 -36.5 61t-96.5 27q-95 0 -158.5 -71t-63.5 -191q0 -129 72 -221.5t190 -92.5q145 0 256 155l33 -35q-37 -50 -69.5 -85.5t-76 -70.5t-95 -53t-108.5 -18q-147 0 -247.5 109.5t-100.5 267.5q0 168 114 279.5t282 111.5q146 0 257 -108
q-71 -51 -130 -110zM458 1007l72 -87l-183 -141l-44 43z" />
    <glyph glyph-name="cacute" unicode="&#x107;" horiz-adv-x="412" 
d="M366 409l-85 -77q-52 48 -143 70q-10 -51 -10 -94q0 -96 48 -145.5t108 -49.5q49 0 94 24l19 -19q-46 -91 -178 -131q-79 37 -131 100.5t-52 151.5q0 81 47 140t154 138q98 -58 129 -108zM309 766l72 -87l-183 -141l-44 43z" />
    <glyph glyph-name="Cdotaccent" unicode="&#x10a;" horiz-adv-x="773" 
d="M569 536l-24 30q2 10 2 15q0 34 -36.5 61t-96.5 27q-95 0 -158.5 -71t-63.5 -191q0 -129 72 -221.5t190 -92.5q145 0 256 155l33 -35q-37 -50 -69.5 -85.5t-76 -70.5t-95 -53t-108.5 -18q-147 0 -247.5 109.5t-100.5 267.5q0 168 114 279.5t282 111.5q146 0 257 -108
q-71 -51 -130 -110zM482 983v-122l-131 -59v124z" />
    <glyph glyph-name="cdotaccent" unicode="&#x10b;" horiz-adv-x="412" 
d="M366 409l-85 -77q-52 48 -143 70q-10 -51 -10 -94q0 -96 48 -145.5t108 -49.5q49 0 94 24l19 -19q-46 -91 -178 -131q-79 37 -131 100.5t-52 151.5q0 81 47 140t154 138q98 -58 129 -108zM303 742v-122l-131 -59v124z" />
    <glyph glyph-name="Ccaron" unicode="&#x10c;" horiz-adv-x="773" 
d="M569 536l-24 30q2 10 2 15q0 34 -36.5 61t-96.5 27q-95 0 -158.5 -71t-63.5 -191q0 -129 72 -221.5t190 -92.5q145 0 256 155l33 -35q-37 -50 -69.5 -85.5t-76 -70.5t-95 -53t-108.5 -18q-147 0 -247.5 109.5t-100.5 267.5q0 168 114 279.5t282 111.5q146 0 257 -108
q-71 -51 -130 -110zM570 964l-155 -185l-152 190l56 38l101 -92l106 92z" />
    <glyph glyph-name="ccaron" unicode="&#x10d;" horiz-adv-x="412" 
d="M366 409l-85 -77q-52 48 -143 70q-10 -51 -10 -94q0 -96 48 -145.5t108 -49.5q49 0 94 24l19 -19q-46 -91 -178 -131q-79 37 -131 100.5t-52 151.5q0 81 47 140t154 138q98 -58 129 -108zM391 723l-155 -185l-152 190l56 38l101 -92l106 92z" />
    <glyph glyph-name="Dcaron" unicode="&#x10e;" horiz-adv-x="761" 
d="M241 584l-1 -385q0 -123 91 -123q82 0 147.5 89t65.5 233q0 76 -20.5 135.5t-52 93t-64.5 50t-64 16.5q-41 0 -71 -28.5t-31 -80.5zM20 645l18 34q135 0 311 91q95 -22 183 -93t139 -151.5t60 -145.5q-95 -297 -394 -395q-109 33 -187 33q-52 0 -98 -34l-29 38
q72 66 72 154v335q0 67 -75 134zM504 964l-155 -185l-152 190l56 38l101 -92l106 92z" />
    <glyph glyph-name="dcaron" unicode="&#x10f;" horiz-adv-x="630" 
d="M333 95v171q-4 55 -39 98.5t-96 43.5q-15 0 -32 -3q-17 -60 -17 -107q0 -44 10.5 -79.5t31.5 -61.5t37 -40.5t41 -33.5q30 11 64 12zM464 753v-617q0 -65 61 -65v-24l-90 -56l-82 60q-78 -13 -141 -64q-176 71 -176 251q0 37 6 67.5t22 56.5t29.5 44.5t42 41t45.5 34
t53 35.5q31 -11 58.5 -36t40.5 -61v157q0 58 -50 63v18zM577 766l63 -88l-105 -171l-28 14l39 91l-42 57z" />
    <glyph glyph-name="dcroat" unicode="&#x111;" horiz-adv-x="551" 
d="M464 753v-152h87l-21 -63h-66v-402q0 -65 61 -65v-24l-90 -56l-82 60q-78 -13 -141 -64q-176 71 -176 251q0 37 6 67.5t22 56.5t29.5 44.5t42 41t45.5 34t53 35.5q31 -11 58.5 -36t40.5 -61v118h-120l21 63h96q-9 34 -47 39v18zM333 95v171q-4 55 -39 98.5t-96 43.5
q-15 0 -32 -3q-17 -60 -17 -107q0 -44 10.5 -79.5t31.5 -61.5t37 -40.5t41 -33.5q30 11 64 12z" />
    <glyph glyph-name="Emacron" unicode="&#x112;" horiz-adv-x="772" 
d="M569 536l-24 30q2 10 2 15q0 34 -36.5 61t-96.5 27q-96 0 -162.5 -72.5t-66.5 -196.5l502 62q-49 -71 -95 -181h-18q-4 47 -63 50l-321 15q17 -108 88.5 -180.5t175.5 -72.5q145 0 256 155l33 -35q-37 -50 -69.5 -85.5t-76 -70.5t-95 -53t-108.5 -18q-147 0 -247.5 109.5
t-100.5 267.5q0 168 114 279.5t282 111.5q146 0 257 -108q-71 -51 -130 -110zM594 949l-22 -87h-335l22 87h335z" />
    <glyph glyph-name="emacron" unicode="&#x113;" horiz-adv-x="426" 
d="M382 382l-218 -218q56 -62 130 -62q45 0 89 23l16 -10q-66 -111 -171 -128q-85 25 -138.5 92.5t-53.5 156.5q0 36 11 68t25.5 55.5t46 53.5t55.5 49t72 55q81 -51 136 -135zM141 197l116 115q-21 80 -106 87q-27 -67 -27 -121q0 -39 17 -81zM413 708l-22 -87h-335l22 87
h335z" />
    <glyph glyph-name="Ebreve" unicode="&#x114;" horiz-adv-x="772" 
d="M569 536l-24 30q2 10 2 15q0 34 -36.5 61t-96.5 27q-96 0 -162.5 -72.5t-66.5 -196.5l502 62q-49 -71 -95 -181h-18q-4 47 -63 50l-321 15q17 -108 88.5 -180.5t175.5 -72.5q145 0 256 155l33 -35q-37 -50 -69.5 -85.5t-76 -70.5t-95 -53t-108.5 -18q-147 0 -247.5 109.5
t-100.5 267.5q0 168 114 279.5t282 111.5q146 0 257 -108q-71 -51 -130 -110zM509 987h88q-13 -88 -58 -146t-124 -58q-78 0 -122 57.5t-58 146.5h90q7 -58 36.5 -103t81.5 -58q59 62 66 161z" />
    <glyph glyph-name="ebreve" unicode="&#x115;" horiz-adv-x="426" 
d="M382 382l-218 -218q56 -62 130 -62q45 0 89 23l16 -10q-66 -111 -171 -128q-85 25 -138.5 92.5t-53.5 156.5q0 36 11 68t25.5 55.5t46 53.5t55.5 49t72 55q81 -51 136 -135zM141 197l116 115q-21 80 -106 87q-27 -67 -27 -121q0 -39 17 -81zM328 746h88q-13 -88 -58 -146
t-124 -58q-78 0 -122 57.5t-58 146.5h90q7 -58 36.5 -103t81.5 -58q59 62 66 161z" />
    <glyph glyph-name="Edotaccent" unicode="&#x116;" horiz-adv-x="772" 
d="M569 536l-24 30q2 10 2 15q0 34 -36.5 61t-96.5 27q-96 0 -162.5 -72.5t-66.5 -196.5l502 62q-49 -71 -95 -181h-18q-4 47 -63 50l-321 15q17 -108 88.5 -180.5t175.5 -72.5q145 0 256 155l33 -35q-37 -50 -69.5 -85.5t-76 -70.5t-95 -53t-108.5 -18q-147 0 -247.5 109.5
t-100.5 267.5q0 168 114 279.5t282 111.5q146 0 257 -108q-71 -51 -130 -110zM481 983v-122l-131 -59v124z" />
    <glyph glyph-name="edotaccent" unicode="&#x117;" horiz-adv-x="426" 
d="M382 382l-218 -218q56 -62 130 -62q45 0 89 23l16 -10q-66 -111 -171 -128q-85 25 -138.5 92.5t-53.5 156.5q0 36 11 68t25.5 55.5t46 53.5t55.5 49t72 55q81 -51 136 -135zM141 197l116 115q-21 80 -106 87q-27 -67 -27 -121q0 -39 17 -81zM301 742v-122l-131 -59v124z
" />
    <glyph glyph-name="Eogonek" unicode="&#x118;" horiz-adv-x="772" 
d="M569 536l-24 30q2 10 2 15q0 34 -36.5 61t-96.5 27q-96 0 -162.5 -72.5t-66.5 -196.5l502 62q-49 -71 -95 -181h-18q-4 47 -63 50l-321 15q17 -108 88.5 -180.5t175.5 -72.5q145 0 256 155l33 -35q-73 -99 -147 -157.5t-171 -67.5q-37 -27 -57 -61q8 -2 26 -2
q71 0 123 21l-8 -106q-18 -14 -62.5 -23.5t-88.5 -9.5q-75 21 -79 90q36 54 98 90q-141 7 -236 115t-95 261q0 168 114 279.5t282 111.5q146 0 257 -108q-71 -51 -130 -110z" />
    <glyph glyph-name="eogonek" unicode="&#x119;" horiz-adv-x="426" 
d="M382 382l-218 -218q56 -62 130 -62q45 0 89 23l16 -10q-19 -32 -41.5 -55t-40 -34.5t-46.5 -26.5q-26 -14 -41 -27.5t-32 -44.5q8 -2 26 -2q71 0 123 21l-8 -106q-18 -14 -62.5 -23.5t-88.5 -9.5q-75 21 -79 90q40 59 106 94q-79 28 -129 93.5t-50 151.5q0 36 11 68
t25.5 55.5t46 53.5t55.5 49t72 55q81 -51 136 -135zM141 197l116 115q-21 80 -106 87q-27 -67 -27 -121q0 -39 17 -81z" />
    <glyph glyph-name="Ecaron" unicode="&#x11a;" horiz-adv-x="772" 
d="M569 536l-24 30q2 10 2 15q0 34 -36.5 61t-96.5 27q-96 0 -162.5 -72.5t-66.5 -196.5l502 62q-49 -71 -95 -181h-18q-4 47 -63 50l-321 15q17 -108 88.5 -180.5t175.5 -72.5q145 0 256 155l33 -35q-37 -50 -69.5 -85.5t-76 -70.5t-95 -53t-108.5 -18q-147 0 -247.5 109.5
t-100.5 267.5q0 168 114 279.5t282 111.5q146 0 257 -108q-71 -51 -130 -110zM569 964l-155 -185l-152 190l56 38l101 -92l106 92z" />
    <glyph glyph-name="ecaron" unicode="&#x11b;" horiz-adv-x="426" 
d="M382 382l-218 -218q56 -62 130 -62q45 0 89 23l16 -10q-66 -111 -171 -128q-85 25 -138.5 92.5t-53.5 156.5q0 36 11 68t25.5 55.5t46 53.5t55.5 49t72 55q81 -51 136 -135zM141 197l116 115q-21 80 -106 87q-27 -67 -27 -121q0 -39 17 -81zM389 723l-155 -185l-152 190
l56 38l101 -92l106 92z" />
    <glyph glyph-name="Gbreve" unicode="&#x11e;" horiz-adv-x="824" 
d="M680 318h-280q-68 0 -103 -35l-18 24l262 257q5 5 5 16q0 33 -36 61t-97 28q-95 0 -157.5 -71t-62.5 -193q0 -137 76 -224.5t180 -87.5q88 0 159.5 61.5t71.5 163.5zM699 646l-224 -211h238q41 0 71 30l21 -25q-13 -34 -36 -45q-12 -100 -50.5 -180t-92.5 -129
t-115 -74.5t-123 -25.5q-97 0 -176 54t-122.5 141.5t-43.5 186.5q0 163 114 274.5t283 111.5q148 0 256 -108zM505 987h88q-13 -88 -58 -146t-124 -58q-78 0 -122 57.5t-58 146.5h90q7 -58 36.5 -103t81.5 -58q59 62 66 161z" />
    <glyph glyph-name="gbreve" unicode="&#x11f;" horiz-adv-x="522" 
d="M345 135v75q0 33 -5.5 57.5t-22.5 50.5t-55 40t-95 14q-19 0 -30 -1q-17 -39 -17 -75q0 -68 50.5 -118.5t121.5 -50.5q21 0 53 8zM476 382v-295q0 -219 -241 -280q-32 60 -84 60q-43 0 -105 -53l-13 19q77 98 148 98q49 0 102 -50q62 76 62 178v31q-42 -16 -64 -34.5
t-59 -59.5q-92 0 -139 55t-47 140q0 110 68.5 208.5t174.5 115.5q42 -59 85.5 -90.5t111.5 -42.5zM354 746h88q-13 -88 -58 -146t-124 -58q-78 0 -122 57.5t-58 146.5h90q7 -58 36.5 -103t81.5 -58q59 62 66 161z" />
    <glyph glyph-name="Gdotaccent" unicode="&#x120;" horiz-adv-x="824" 
d="M680 318h-280q-68 0 -103 -35l-18 24l262 257q5 5 5 16q0 33 -36 61t-97 28q-95 0 -157.5 -71t-62.5 -193q0 -137 76 -224.5t180 -87.5q88 0 159.5 61.5t71.5 163.5zM699 646l-224 -211h238q41 0 71 30l21 -25q-13 -34 -36 -45q-12 -100 -50.5 -180t-92.5 -129
t-115 -74.5t-123 -25.5q-97 0 -176 54t-122.5 141.5t-43.5 186.5q0 163 114 274.5t283 111.5q148 0 256 -108zM487 983v-122l-131 -59v124z" />
    <glyph glyph-name="gdotaccent" unicode="&#x121;" horiz-adv-x="522" 
d="M345 135v75q0 33 -5.5 57.5t-22.5 50.5t-55 40t-95 14q-19 0 -30 -1q-17 -39 -17 -75q0 -68 50.5 -118.5t121.5 -50.5q21 0 53 8zM476 382v-295q0 -219 -241 -280q-32 60 -84 60q-43 0 -105 -53l-13 19q77 98 148 98q49 0 102 -50q62 76 62 178v31q-42 -16 -64 -34.5
t-59 -59.5q-92 0 -139 55t-47 140q0 110 68.5 208.5t174.5 115.5q42 -59 85.5 -90.5t111.5 -42.5zM326 742v-122l-131 -59v124z" />
    <glyph glyph-name="uni0122" unicode="&#x122;" horiz-adv-x="824" 
d="M699 646l-224 -211h238q41 0 71 30l21 -25q-13 -34 -36 -45q-10 -89 -42 -163t-78 -122.5t-98.5 -78.5t-108.5 -40q-3 -71 -41.5 -122.5t-89.5 -61.5l-26 18q43 43 46 167q-125 22 -205 130.5t-80 245.5q0 163 114 274.5t283 111.5q148 0 256 -108zM680 318h-280
q-68 0 -103 -35l-18 24l262 257q5 5 5 16q0 33 -36 61t-97 28q-95 0 -157.5 -71t-62.5 -193q0 -137 76 -224.5t180 -87.5q88 0 159.5 61.5t71.5 163.5z" />
    <glyph glyph-name="uni0123" unicode="&#x123;" horiz-adv-x="522" 
d="M345 135v75q0 33 -5.5 57.5t-22.5 50.5t-55 40t-95 14q-19 0 -30 -1q-17 -39 -17 -75q0 -68 50.5 -118.5t121.5 -50.5q21 0 53 8zM476 382v-295q0 -219 -241 -280q-32 60 -84 60q-43 0 -105 -53l-13 19q77 98 148 98q49 0 102 -50q62 76 62 178v31q-42 -16 -64 -34.5
t-59 -59.5q-92 0 -139 55t-47 140q0 110 68.5 208.5t174.5 115.5q42 -59 85.5 -90.5t111.5 -42.5zM345 782l-39 -91l42 -57l-73 -97l-63 88l105 171z" />
    <glyph glyph-name="Hbar" unicode="&#x126;" horiz-adv-x="961" 
d="M870 746l-4 -42q-107 0 -107 -67v-45h97l-22 -87h-75v-384q0 -74 131 -91q63 0 63 -44q0 -40 -57 -40q-58 0 -75 54h-315l4 41q105 0 105 69v230q-64 6 -135 6q-75 0 -151 -7v-218q0 -36 26 -53.5t93 -25.5l-5 -42h-369l4 41q107 0 107 69v395h-106l22 87h84v33
q0 73 -132 91q-63 0 -63 44q0 40 57 40q60 0 75 -54h318l-4 -42q-107 0 -107 -67v-45h286v33q0 36 -26 53t-93 26l4 42h370zM615 505h-286v-82q74 -7 146 -7q75 0 140 9v80z" />
    <glyph glyph-name="hbar" unicode="&#x127;" horiz-adv-x="544" 
d="M205 753v-152h133l-21 -63h-112v-94q47 21 83 67q112 -10 166 -70.5t54 -151.5q0 -105 -65 -191t-161 -135l-18 19q66 48 100 104.5t34 133.5t-32 123.5t-88 46.5q-35 0 -73 -23v-367h-131v538h-74l21 63h50q-9 34 -48 39l4 18z" />
    <glyph glyph-name="hbar" unicode="&#x45b;" horiz-adv-x="544" 
d="M205 753v-152h133l-21 -63h-112v-94q47 21 83 67q112 -10 166 -70.5t54 -151.5q0 -105 -65 -191t-161 -135l-18 19q66 48 100 104.5t34 133.5t-32 123.5t-88 46.5q-35 0 -73 -23v-367h-131v538h-74l21 63h50q-9 34 -48 39l4 18z" />
    <glyph glyph-name="Itilde" unicode="&#x128;" horiz-adv-x="533" 
d="M440 746l-4 -42q-107 0 -107 -67v-516q0 -74 131 -91q63 0 63 -44q0 -40 -57 -40q-58 0 -75 54h-317l4 41q107 0 107 69v515q0 73 -132 91q-63 0 -63 44q0 40 57 40q59 0 75 -54h318zM416 958l44 -43q-18 -66 -45.5 -94t-68.5 -28q-43 0 -103.5 37t-84.5 41
q-34 -24 -62 -79l-44 43q18 66 45.5 94t67.5 28q44 0 106.5 -37.5t82.5 -40.5q39 25 62 79z" />
    <glyph glyph-name="itilde" unicode="&#x129;" horiz-adv-x="408" 
d="M271 414v-278q0 -65 64 -65l-4 -24l-89 -56l-102 76v272q0 58 -51 63l4 18l94 95q37 -8 60.5 -35.5t23.5 -65.5zM364 717l44 -43q-18 -66 -45.5 -94t-68.5 -28q-43 0 -103.5 37t-84.5 41q-34 -24 -62 -79l-44 43q18 66 45.5 94t67.5 28q44 0 106.5 -37.5t82.5 -40.5
q39 25 62 79z" />
    <glyph glyph-name="Imacron" unicode="&#x12a;" horiz-adv-x="533" 
d="M440 746l-4 -42q-107 0 -107 -67v-516q0 -74 131 -91q63 0 63 -44q0 -40 -57 -40q-58 0 -75 54h-317l4 41q107 0 107 69v515q0 73 -132 91q-63 0 -63 44q0 40 57 40q59 0 75 -54h318zM435 949l-22 -87h-335l22 87h335z" />
    <glyph glyph-name="imacron" unicode="&#x12b;" horiz-adv-x="357" 
d="M246 414v-278q0 -65 64 -65l-4 -24l-89 -56l-102 76v272q0 58 -51 63l4 18l94 95q37 -8 60.5 -35.5t23.5 -65.5zM357 708l-22 -87h-335l22 87h335z" />
    <glyph glyph-name="Ibreve" unicode="&#x12c;" horiz-adv-x="533" 
d="M440 746l-4 -42q-107 0 -107 -67v-516q0 -74 131 -91q63 0 63 -44q0 -40 -57 -40q-58 0 -75 54h-317l4 41q107 0 107 69v515q0 73 -132 91q-63 0 -63 44q0 40 57 40q59 0 75 -54h318zM349 987h88q-13 -88 -58 -146t-124 -58q-78 0 -122 57.5t-58 146.5h90
q7 -58 36.5 -103t81.5 -58q59 62 66 161z" />
    <glyph glyph-name="ibreve" unicode="&#x12d;" horiz-adv-x="362" 
d="M246 414v-278q0 -65 64 -65l-4 -24l-89 -56l-102 76v272q0 58 -51 63l4 18l94 95q37 -8 60.5 -35.5t23.5 -65.5zM274 746h88q-13 -88 -58 -146t-124 -58q-78 0 -122 57.5t-58 146.5h90q7 -58 36.5 -103t81.5 -58q59 62 66 161z" />
    <glyph glyph-name="Iogonek" unicode="&#x12e;" horiz-adv-x="533" 
d="M440 746l-4 -42q-107 0 -107 -67v-516q0 -74 131 -91q63 0 63 -44q0 -40 -57 -40q-58 0 -75 54h-79q-52 -33 -76 -73q8 -2 26 -2q71 0 123 21l-8 -106q-18 -14 -62.5 -23.5t-88.5 -9.5q-75 21 -79 90q48 70 125 103h-198l4 41q107 0 107 69v515q0 73 -132 91
q-63 0 -63 44q0 40 57 40q59 0 75 -54h318z" />
    <glyph glyph-name="iogonek" unicode="&#x12f;" horiz-adv-x="295" 
d="M205 414v-278q0 -65 64 -65l-4 -24q-57 -36 -89.5 -60.5t-42.5 -35.5t-18 -24q8 -2 26 -2q71 0 123 21l-8 -106q-18 -14 -62.5 -23.5t-88.5 -9.5q-75 21 -79 90q24 35 60 65t68 45l-80 60v272q0 58 -51 63l4 18l94 95q37 -8 60.5 -35.5t23.5 -65.5zM207 742v-122
l-131 -59v124z" />
    <glyph glyph-name="Idotaccent" unicode="&#x130;" horiz-adv-x="533" 
d="M440 746l-4 -42q-107 0 -107 -67v-516q0 -74 131 -91q63 0 63 -44q0 -40 -57 -40q-58 0 -75 54h-317l4 41q107 0 107 69v515q0 73 -132 91q-63 0 -63 44q0 40 57 40q59 0 75 -54h318zM322 983v-122l-131 -59v124z" />
    <glyph glyph-name="dotlessi" unicode="&#x131;" horiz-adv-x="295" 
d="M205 414v-278q0 -65 64 -65l-4 -24l-89 -56l-102 76v272q0 58 -51 63l4 18l94 95q37 -8 60.5 -35.5t23.5 -65.5z" />
    <glyph glyph-name="dotlessi" unicode="&#x3b9;" horiz-adv-x="295" 
d="M205 414v-278q0 -65 64 -65l-4 -24l-89 -56l-102 76v272q0 58 -51 63l4 18l94 95q37 -8 60.5 -35.5t23.5 -65.5z" />
    <glyph glyph-name="IJ" unicode="&#x132;" horiz-adv-x="956" 
d="M440 746l-4 -42q-107 0 -107 -67v-516q0 -74 131 -91q63 0 63 -44q0 -40 -57 -40q-58 0 -75 54h-317l4 41q107 0 107 69v515q0 73 -132 91q-63 0 -63 44q0 40 57 40q59 0 75 -54h318zM915 746l21 -18q-39 -68 -39 -153v-409q-43 -246 -309 -350v40q63 25 117 117.5
t54 202.5q0 85 -32.5 173.5t-74.5 142.5l5 20q105 24 168 128q-81 -42 -146 -42q-27 0 -70 8.5t-71 8.5q-69 0 -112 -32l-24 17q46 75 87 109.5t92 49.5q76 -58 190 -58q95 0 144 45z" />
    <glyph glyph-name="ij" unicode="&#x133;" horiz-adv-x="490" 
d="M205 414v-278q0 -65 64 -65l-4 -24l-89 -56l-102 76v272q0 58 -51 63l4 18l94 95q37 -8 60.5 -35.5t23.5 -65.5zM207 745v-122l-131 -59v124zM444 515v-333q0 -349 -202 -366l4 28q67 31 67 178v317q0 58 -51 63l4 18zM444 739v-122l-131 -59v124z" />
    <glyph glyph-name="uni0136" unicode="&#x136;" horiz-adv-x="702" 
d="M650 668l-84 -89q-23 26 -49 26q-51 0 -121 -97q256 -237 276 -508h-218l4 32q24 20 24 61q0 51 -28.5 114.5t-74.5 113.5q-25 27 -52 44.5t-41 22t-22 4.5q-26 0 -42 -25v-255q0 -65 58 -80l-4 -32h-256l4 32q52 14 52 82v526q0 64 -48 66l4 40h245l-4 -40
q-50 -9 -50 -82v-188q122 67 312 323zM278 0h111q0 -75 -39 -129t-92 -64l-26 18q44 44 46 175z" />
    <glyph glyph-name="uni0137" unicode="&#x137;" horiz-adv-x="524" 
d="M205 353v-63q28 5 46 5q35 0 82 -10q3 15 3 32q0 65 -68 96q-32 -35 -63 -60zM205 753v-350q51 52 98 116q70 13 122.5 -41t52.5 -128q0 -20 -3 -45q-50 -23 -111 -32q64 -30 97.5 -95.5t38.5 -177.5h-136q0 236 -159 236v-236h-131v577q0 58 -51 63l4 18zM228 0h111
q0 -75 -39 -129t-92 -64l-26 18q44 44 46 175z" />
    <glyph glyph-name="Lacute" unicode="&#x139;" horiz-adv-x="625" 
d="M583 207l29 -22q-24 -51 -40 -79t-42 -58t-60.5 -43t-81.5 -13q-21 0 -88 6t-110 6q-69 0 -147 -17l-23 38q64 60 64 147v301q0 78 -50 104l4 28q52 13 119 51.5t124 68.5t96 30q58 0 116 -55.5t75 -115.5q-69 -13 -143 -55q0 36 -16.5 62.5t-44.5 40t-58.5 20t-64.5 6.5
q-11 -68 -11 -134v-275q0 -71 -55 -139q62 35 113 35q23 0 74 -12.5t72 -12.5q66 0 149 87zM384 1007l72 -87l-183 -141l-44 43z" />
    <glyph glyph-name="lacute" unicode="&#x13a;" horiz-adv-x="295" 
d="M205 753v-617q0 -65 64 -65l-4 -24l-89 -56l-102 76v510q0 58 -51 63l4 18zM216 1007l72 -87l-183 -141l-44 43z" />
    <glyph glyph-name="uni013B" unicode="&#x13b;" horiz-adv-x="625" 
d="M583 207l29 -22q-19 -40 -31.5 -63.5t-32.5 -51.5t-40.5 -42.5t-50.5 -25t-67 -10.5q-2 -72 -40.5 -123.5t-90.5 -61.5l-26 18q44 44 46 175q-56 4 -89 4q-69 0 -147 -17l-23 38q64 60 64 147v301q0 78 -50 104l4 28q52 13 119 51.5t124 68.5t96 30q58 0 116 -55.5
t75 -115.5q-69 -13 -143 -55q0 36 -16.5 62.5t-44.5 40t-58.5 20t-64.5 6.5q-11 -68 -11 -134v-275q0 -71 -55 -139q62 35 113 35q23 0 74 -12.5t72 -12.5q66 0 149 87z" />
    <glyph glyph-name="uni013C" unicode="&#x13c;" horiz-adv-x="295" 
d="M205 753v-617q0 -65 64 -65l-4 -24l-89 -56l-102 76v510q0 58 -51 63l4 18zM113 -15h108q0 -69 -38 -119t-90 -59l-25 17q43 41 45 161z" />
    <glyph glyph-name="Lcaron" unicode="&#x13d;" horiz-adv-x="701" 
d="M583 207l29 -22q-24 -51 -40 -79t-42 -58t-60.5 -43t-81.5 -13q-21 0 -88 6t-110 6q-69 0 -147 -17l-23 38q64 60 64 147v301q0 78 -50 104l4 28q52 13 119 51.5t124 68.5t96 30q58 0 116 -55.5t75 -115.5q-69 -13 -143 -55q0 36 -16.5 62.5t-44.5 40t-58.5 20t-64.5 6.5
q-11 -68 -11 -134v-275q0 -71 -55 -139q62 35 113 35q23 0 74 -12.5t72 -12.5q66 0 149 87zM651 766l63 -88l-105 -171l-28 14l39 91l-42 57z" />
    <glyph glyph-name="lcaron" unicode="&#x13e;" horiz-adv-x="371" 
d="M205 753v-617q0 -65 64 -65l-4 -24l-89 -56l-102 76v510q0 58 -51 63l4 18zM318 766l63 -88l-105 -171l-28 14l39 91l-42 57z" />
    <glyph glyph-name="Lslash" unicode="&#x141;" horiz-adv-x="625" 
d="M412 459l30 -78l-212 -75v-57q0 -71 -55 -139q62 35 113 35q23 0 74 -12.5t72 -12.5q66 0 149 87l29 -22q-24 -51 -40 -79t-42 -58t-60.5 -43t-81.5 -13q-21 0 -88 6t-110 6q-69 0 -147 -17l-23 38q64 60 64 147v82l-54 -19l-30 78l84 30v130q0 78 -50 104l4 28
q52 13 119 51.5t124 68.5t96 30q58 0 116 -55.5t75 -115.5q-69 -13 -143 -55q0 36 -16.5 62.5t-44.5 40t-58.5 20t-64.5 6.5q-11 -68 -11 -134v-130z" />
    <glyph glyph-name="lslash" unicode="&#x142;" horiz-adv-x="361" 
d="M337 511l24 -64l-118 -42v-269q0 -65 64 -65l-4 -24l-89 -56l-102 76v292l-87 -31l-25 64l112 39v146q0 58 -51 63l4 18l178 95v-275z" />
    <glyph glyph-name="Nacute" unicode="&#x143;" horiz-adv-x="745" 
d="M731 746l-4 -40q-62 -1 -62 -39v-667h-77v49l-415 520v-451q0 -144 -124 -304l-21 13q64 140 64 280v512q0 63 -68 75l3 30l174 38l387 -478v372q0 50 -71 50l4 40h210zM444 1007l72 -87l-183 -141l-44 43z" />
    <glyph glyph-name="nacute" unicode="&#x144;" horiz-adv-x="545" 
d="M205 367v-367h-131v335q0 58 -51 63l4 18l108 95q61 -18 70 -67q95 20 157 67q77 -20 110 -75t33 -156q0 -107 -34 -280h-168q81 195 81 285q0 101 -111 101q-36 0 -68 -19zM344 766l72 -87l-183 -141l-44 43z" />
    <glyph glyph-name="uni0145" unicode="&#x145;" horiz-adv-x="745" 
d="M731 746l-4 -40q-62 -1 -62 -39v-667h-77v49l-415 520v-451q0 -144 -124 -304l-21 13q64 140 64 280v512q0 63 -68 75l3 30l174 38l387 -478v372q0 50 -71 50l4 40h210zM329 0h111q0 -75 -39 -129t-92 -64l-26 18q44 44 46 175z" />
    <glyph glyph-name="uni0146" unicode="&#x146;" horiz-adv-x="545" 
d="M205 367v-367h-131v335q0 58 -51 63l4 18l108 95q61 -18 70 -67q95 20 157 67q77 -20 110 -75t33 -156q0 -107 -34 -280h-168q81 195 81 285q0 101 -111 101q-36 0 -68 -19zM205 -12h96q0 -70 -33.5 -121t-79.5 -60l-23 17q38 41 40 164z" />
    <glyph glyph-name="Ncaron" unicode="&#x147;" horiz-adv-x="745" 
d="M731 746l-4 -40q-62 -1 -62 -39v-667h-77v49l-415 520v-451q0 -144 -124 -304l-21 13q64 140 64 280v512q0 63 -68 75l3 30l174 38l387 -478v372q0 50 -71 50l4 40h210zM526 964l-155 -185l-152 190l56 38l101 -92l106 92z" />
    <glyph glyph-name="ncaron" unicode="&#x148;" horiz-adv-x="545" 
d="M205 367v-367h-131v335q0 58 -51 63l4 18l108 95q61 -18 70 -67q95 20 157 67q77 -20 110 -75t33 -156q0 -107 -34 -280h-168q81 195 81 285q0 101 -111 101q-36 0 -68 -19zM426 723l-155 -185l-152 190l56 38l101 -92l106 92z" />
    <glyph glyph-name="Eng" unicode="&#x14a;" horiz-adv-x="682" 
d="M222 746v-66q118 18 191 80q104 -12 173 -116t69 -235q0 -126 -39.5 -231.5t-109 -180t-161 -122.5t-200.5 -68l-20 28q80 37 135 70.5t103 78.5t76 98t43.5 124.5t15.5 163.5q0 129 -42 198t-109 69q-55 0 -125 -45v-428q0 -102 33 -131v-33h-235v33q58 36 58 97v418
q0 60 -58 97l18 34z" />
    <glyph glyph-name="eng" unicode="&#x14b;" horiz-adv-x="545" 
d="M205 367v-367h-131v335q0 58 -51 63l4 18l108 95q61 -18 70 -67q95 20 157 67q85 -25 114 -80t29 -186q0 -201 -50.5 -313t-151.5 -116l4 28q25 11 38 44t20.5 126.5t7.5 270.5q0 61 -28.5 81t-71.5 20q-36 0 -68 -19z" />
    <glyph glyph-name="Omacron" unicode="&#x14c;" horiz-adv-x="753" 
d="M182 569q-40 -64 -40 -129q0 -109 90 -206q55 -59 129.5 -95t137.5 -36q49 0 87 24q33 65 33 146q0 120 -77 221q-41 55 -98 87t-122 32q-64 0 -140 -44zM401 764q141 -73 217 -170q89 -113 89 -246q0 -140 -97 -235t-242 -124q-140 53 -223 139q-99 102 -99 234
q0 83 42 152.5t116 126t197 123.5zM579 949l-22 -87h-335l22 87h335z" />
    <glyph glyph-name="omacron" unicode="&#x14d;" 
d="M136 373q-13 -27 -13 -61q0 -88 75 -156t147 -68q27 0 56 15q6 19 6 44q0 94 -68 163.5t-154 69.5q-27 0 -49 -7zM275 517q206 -122 206 -287q0 -95 -64.5 -159.5t-163.5 -83.5q-98 36 -157.5 100.5t-59.5 151.5q0 83 57 144t182 134zM454 708l-22 -87h-335l22 87h335z
" />
    <glyph glyph-name="Obreve" unicode="&#x14e;" horiz-adv-x="753" 
d="M182 569q-40 -64 -40 -129q0 -109 90 -206q55 -59 129.5 -95t137.5 -36q49 0 87 24q33 65 33 146q0 120 -77 221q-41 55 -98 87t-122 32q-64 0 -140 -44zM401 764q141 -73 217 -170q89 -113 89 -246q0 -140 -97 -235t-242 -124q-140 53 -223 139q-99 102 -99 234
q0 83 42 152.5t116 126t197 123.5zM493 987h88q-13 -88 -58 -146t-124 -58q-78 0 -122 57.5t-58 146.5h90q7 -58 36.5 -103t81.5 -58q59 62 66 161z" />
    <glyph glyph-name="obreve" unicode="&#x14f;" 
d="M136 373q-13 -27 -13 -61q0 -88 75 -156t147 -68q27 0 56 15q6 19 6 44q0 94 -68 163.5t-154 69.5q-27 0 -49 -7zM275 517q206 -122 206 -287q0 -95 -64.5 -159.5t-163.5 -83.5q-98 36 -157.5 100.5t-59.5 151.5q0 83 57 144t182 134zM368 746h88q-13 -88 -58 -146
t-124 -58q-78 0 -122 57.5t-58 146.5h90q7 -58 36.5 -103t81.5 -58q59 62 66 161z" />
    <glyph glyph-name="Ohungarumlaut" unicode="&#x150;" horiz-adv-x="753" 
d="M182 569q-40 -64 -40 -129q0 -109 90 -206q55 -59 129.5 -95t137.5 -36q49 0 87 24q33 65 33 146q0 120 -77 221q-41 55 -98 87t-122 32q-64 0 -140 -44zM401 764q141 -73 217 -170q89 -113 89 -246q0 -140 -97 -235t-242 -124q-140 53 -223 139q-99 102 -99 234
q0 83 42 152.5t116 126t197 123.5zM621 944l-151 -174l-56 25l116 212zM446 944l-151 -174l-56 25l116 212z" />
    <glyph glyph-name="ohungarumlaut" unicode="&#x151;" 
d="M136 373q-13 -27 -13 -61q0 -88 75 -156t147 -68q27 0 56 15q6 19 6 44q0 94 -68 163.5t-154 69.5q-27 0 -49 -7zM275 517q206 -122 206 -287q0 -95 -64.5 -159.5t-163.5 -83.5q-98 36 -157.5 100.5t-59.5 151.5q0 83 57 144t182 134zM495 703l-151 -174l-56 25l116 212z
M320 703l-151 -174l-56 25l116 212z" />
    <glyph glyph-name="OE" unicode="&#x152;" horiz-adv-x="1308" 
d="M1109 537l-23 30q2 10 2 15q0 34 -34.5 61t-91.5 27q-92 0 -155 -72.5t-63 -196.5l477 62q-43 -67 -90 -182h-17q-4 47 -60 50l-305 15q16 -108 84 -180.5t167 -72.5q140 0 243 155l32 -35q-48 -68 -89.5 -112.5t-106 -79.5t-136.5 -35q-93 0 -169.5 51.5t-119.5 138.5
q-43 -72 -118.5 -120t-167.5 -67q-64 25 -118 58.5t-100 79t-72 106t-26 128.5q0 120 83.5 210t264.5 190q177 -94 249 -223q46 99 136 158t203 59q139 0 245 -108q-68 -51 -124 -110zM185 567q-39 -65 -39 -129q0 -89 59 -168.5t139.5 -123t151.5 -43.5q49 0 85 24
q33 63 33 146q0 130 -87 234t-205 104q-63 0 -137 -44z" />
    <glyph glyph-name="oe" unicode="&#x153;" horiz-adv-x="745" 
d="M703 382l-218 -218q55 -62 130 -62q47 0 90 22l13 -6q-68 -115 -169 -131q-90 39 -138 110q-37 -48 -72.5 -74.5t-88.5 -35.5q-99 37 -158 101t-59 151q0 84 56.5 143.5t182.5 134.5q100 -55 138 -143q55 81 157 143q81 -51 136 -135zM462 197l115 115q-19 80 -105 87
q-25 -62 -25 -118q0 -46 15 -84zM133 373q-13 -26 -13 -63q0 -88 65 -155t135 -67q55 0 67 33q0 101 -56.5 180t-148.5 79q-27 0 -49 -7z" />
    <glyph glyph-name="Racute" unicode="&#x154;" horiz-adv-x="723" 
d="M239 557v-208l147 102q91 63 91 152q0 104 -90 104q-22 0 -43 -6.5t-44 -21.5t-39.5 -46.5t-21.5 -75.5zM484 449l-86 -59q45 -93 117.5 -175.5t121.5 -82.5q31 0 72 33l21 -24q-49 -40 -175 -167q-127 187 -263 343l-52 -36v-82q0 -88 87 -132v-61q-87 24 -141 24
q-81 0 -138 -43l-28 41q69 42 69 104v397q0 81 -65 84l4 38q56 0 130 31q15 6 55 24.5t59.5 25.5t57 14.5t78.5 7.5q102 0 156 -37t54 -100q0 -47 -30.5 -82.5t-103.5 -85.5zM433 1007l72 -87l-183 -141l-44 43z" />
    <glyph glyph-name="racute" unicode="&#x155;" horiz-adv-x="380" 
d="M380 446l-2 -11l-85 -70l-5 2q-9 28 -31 28q-21 0 -52 -28v-367h-131v335q0 58 -51 63l4 18l108 95q60 -17 70 -67q28 50 96 67q23 -52 79 -65zM271 766l72 -87l-183 -141l-44 43z" />
    <glyph glyph-name="uni0156" unicode="&#x156;" horiz-adv-x="723" 
d="M239 557v-208l147 102q91 63 91 152q0 104 -90 104q-22 0 -43 -6.5t-44 -21.5t-39.5 -46.5t-21.5 -75.5zM484 449l-86 -59q45 -93 117.5 -175.5t121.5 -82.5q31 0 72 33l21 -24q-49 -40 -175 -167q-127 187 -263 343l-52 -36v-82q0 -88 87 -132v-61q-87 24 -141 24
q-81 0 -138 -43l-28 41q69 42 69 104v397q0 81 -65 84l4 38q56 0 130 31q15 6 55 24.5t59.5 25.5t57 14.5t78.5 7.5q102 0 156 -37t54 -100q0 -47 -30.5 -82.5t-103.5 -85.5zM371 0h111q0 -75 -39 -129t-92 -64l-26 18q44 44 46 175z" />
    <glyph glyph-name="uni0157" unicode="&#x157;" horiz-adv-x="380" 
d="M380 446l-2 -11l-85 -70l-5 2q-9 28 -31 28q-21 0 -52 -28v-367h-131v335q0 58 -51 63l4 18l108 95q60 -17 70 -67q28 50 96 67q23 -52 79 -65zM92 -14h95q0 -70 -33.5 -120t-79.5 -59l-22 17q38 41 40 162z" />
    <glyph glyph-name="Rcaron" unicode="&#x158;" horiz-adv-x="723" 
d="M239 557v-208l147 102q91 63 91 152q0 104 -90 104q-22 0 -43 -6.5t-44 -21.5t-39.5 -46.5t-21.5 -75.5zM484 449l-86 -59q45 -93 117.5 -175.5t121.5 -82.5q31 0 72 33l21 -24q-49 -40 -175 -167q-127 187 -263 343l-52 -36v-82q0 -88 87 -132v-61q-87 24 -141 24
q-81 0 -138 -43l-28 41q69 42 69 104v397q0 81 -65 84l4 38q56 0 130 31q15 6 55 24.5t59.5 25.5t57 14.5t78.5 7.5q102 0 156 -37t54 -100q0 -47 -30.5 -82.5t-103.5 -85.5zM515 964l-155 -185l-152 190l56 38l101 -92l106 92z" />
    <glyph glyph-name="rcaron" unicode="&#x159;" horiz-adv-x="380" 
d="M380 446l-2 -11l-85 -70l-5 2q-9 28 -31 28q-21 0 -52 -28v-367h-131v335q0 58 -51 63l4 18l108 95q60 -17 70 -67q28 50 96 67q23 -52 79 -65zM353 723l-155 -185l-152 190l56 38l101 -92l106 92z" />
    <glyph glyph-name="Sacute" unicode="&#x15a;" horiz-adv-x="708" 
d="M507 534q-20 44 -72.5 79t-114.5 35q-43 0 -97 -20q-27 -56 -27 -106q0 -148 201 -148q124 0 221 43q50 -108 50 -194q0 -53 -32.5 -98.5t-86 -75.5t-109 -49.5t-114.5 -30.5q-79 22 -162 64t-124 89q87 30 156 76q46 -79 98 -112.5t116 -33.5q51 0 111 23q10 36 10 71
q0 89 -72 130.5t-189 41.5q-96 0 -155 -22q-70 97 -70 177q0 37 18 70t43.5 58t78 56.5t94.5 52.5t120 57q139 -61 247 -158q-72 -20 -139 -75zM471 1007l72 -87l-183 -141l-44 43z" />
    <glyph glyph-name="sacute" unicode="&#x15b;" horiz-adv-x="514" 
d="M357 343q-12 35 -58 58.5t-98 23.5q-18 0 -36 -3q-19 -35 -19 -64q0 -44 38.5 -69.5t109.5 -25.5q83 0 155 29q17 -31 27.5 -71.5t10.5 -65.5q0 -63 -73.5 -107t-175.5 -61q-151 44 -207 102q62 18 121 62q63 -100 176 -100q31 0 49 8q4 7 4 21q0 124 -201 124
q-42 0 -90 -16q-54 74 -54 128q0 59 61.5 102t193.5 95q111 -46 179 -104q-51 -13 -113 -66zM362 766l72 -87l-183 -141l-44 43z" />
    <glyph glyph-name="Scedilla" unicode="&#x15e;" horiz-adv-x="708" 
d="M259 -193l-26 18q41 41 46 159q-72 25 -138 61.5t-101 76.5q87 30 156 76q46 -79 98 -112.5t116 -33.5q51 0 111 23q10 36 10 71q0 89 -72 130.5t-189 41.5q-96 0 -155 -22q-70 97 -70 177q0 37 18 70t43.5 58t78 56.5t94.5 52.5t120 57q139 -61 247 -158
q-72 -20 -139 -75q-20 44 -72.5 79t-114.5 35q-43 0 -97 -20q-27 -56 -27 -106q0 -148 201 -148q124 0 221 43q50 -108 50 -194q0 -46 -24.5 -86t-66.5 -69t-88.5 -49.5t-99.5 -34.5q-4 -69 -42 -118t-88 -59z" />
    <glyph glyph-name="Scedilla" unicode="&#x218;" horiz-adv-x="708" 
d="M259 -193l-26 18q41 41 46 159q-72 25 -138 61.5t-101 76.5q87 30 156 76q46 -79 98 -112.5t116 -33.5q51 0 111 23q10 36 10 71q0 89 -72 130.5t-189 41.5q-96 0 -155 -22q-70 97 -70 177q0 37 18 70t43.5 58t78 56.5t94.5 52.5t120 57q139 -61 247 -158
q-72 -20 -139 -75q-20 44 -72.5 79t-114.5 35q-43 0 -97 -20q-27 -56 -27 -106q0 -148 201 -148q124 0 221 43q50 -108 50 -194q0 -46 -24.5 -86t-66.5 -69t-88.5 -49.5t-99.5 -34.5q-4 -69 -42 -118t-88 -59z" />
    <glyph glyph-name="scedilla" unicode="&#x15f;" horiz-adv-x="514" 
d="M186 -193l-22 18q37 46 40 173q-124 39 -173 91q62 18 121 62q63 -100 176 -100q31 0 49 8q4 7 4 21q0 124 -201 124q-42 0 -90 -16q-54 74 -54 128q0 59 61.5 102t193.5 95q111 -46 179 -104q-51 -13 -113 -66q-12 35 -58 58.5t-98 23.5q-18 0 -36 -3q-19 -35 -19 -64
q0 -44 38.5 -69.5t109.5 -25.5q83 0 155 29q17 -31 27.5 -71.5t10.5 -65.5q0 -53 -53 -93t-135 -62q-1 -75 -34.5 -129t-78.5 -64z" />
    <glyph glyph-name="scedilla" unicode="&#x219;" horiz-adv-x="514" 
d="M186 -193l-22 18q37 46 40 173q-124 39 -173 91q62 18 121 62q63 -100 176 -100q31 0 49 8q4 7 4 21q0 124 -201 124q-42 0 -90 -16q-54 74 -54 128q0 59 61.5 102t193.5 95q111 -46 179 -104q-51 -13 -113 -66q-12 35 -58 58.5t-98 23.5q-18 0 -36 -3q-19 -35 -19 -64
q0 -44 38.5 -69.5t109.5 -25.5q83 0 155 29q17 -31 27.5 -71.5t10.5 -65.5q0 -53 -53 -93t-135 -62q-1 -75 -34.5 -129t-78.5 -64z" />
    <glyph glyph-name="Scaron" unicode="&#x160;" horiz-adv-x="708" 
d="M507 534q-20 44 -72.5 79t-114.5 35q-43 0 -97 -20q-27 -56 -27 -106q0 -148 201 -148q124 0 221 43q50 -108 50 -194q0 -53 -32.5 -98.5t-86 -75.5t-109 -49.5t-114.5 -30.5q-79 22 -162 64t-124 89q87 30 156 76q46 -79 98 -112.5t116 -33.5q51 0 111 23q10 36 10 71
q0 89 -72 130.5t-189 41.5q-96 0 -155 -22q-70 97 -70 177q0 37 18 70t43.5 58t78 56.5t94.5 52.5t120 57q139 -61 247 -158q-72 -20 -139 -75zM553 964l-155 -185l-152 190l56 38l101 -92l106 92z" />
    <glyph glyph-name="scaron" unicode="&#x161;" horiz-adv-x="514" 
d="M357 343q-12 35 -58 58.5t-98 23.5q-18 0 -36 -3q-19 -35 -19 -64q0 -44 38.5 -69.5t109.5 -25.5q83 0 155 29q17 -31 27.5 -71.5t10.5 -65.5q0 -63 -73.5 -107t-175.5 -61q-151 44 -207 102q62 18 121 62q63 -100 176 -100q31 0 49 8q4 7 4 21q0 124 -201 124
q-42 0 -90 -16q-54 74 -54 128q0 59 61.5 102t193.5 95q111 -46 179 -104q-51 -13 -113 -66zM445 723l-155 -185l-152 190l56 38l101 -92l106 92z" />
    <glyph glyph-name="uni0162" unicode="&#x162;" horiz-adv-x="742" 
d="M689 211l33 -22q-26 -40 -46.5 -66.5t-53 -58.5t-74 -51t-91.5 -24q-3 -70 -41 -121t-89 -61l-26 18q43 43 46 168q-108 22 -174 109t-66 227q0 192 113 305q-86 0 -119.5 -10t-72.5 -58l-28 18q50 92 135.5 128.5t230.5 36.5q114 0 282 -18q-52 -75 -76 -156
q-148 48 -269 56q-41 -33 -61.5 -96.5t-20.5 -125.5q0 -134 88.5 -224t194.5 -90q113 0 185 116z" />
    <glyph glyph-name="uni0162" unicode="&#x21a;" horiz-adv-x="742" 
d="M689 211l33 -22q-26 -40 -46.5 -66.5t-53 -58.5t-74 -51t-91.5 -24q-3 -70 -41 -121t-89 -61l-26 18q43 43 46 168q-108 22 -174 109t-66 227q0 192 113 305q-86 0 -119.5 -10t-72.5 -58l-28 18q50 92 135.5 128.5t230.5 36.5q114 0 282 -18q-52 -75 -76 -156
q-148 48 -269 56q-41 -33 -61.5 -96.5t-20.5 -125.5q0 -134 88.5 -224t194.5 -90q113 0 185 116z" />
    <glyph glyph-name="uni0163" unicode="&#x163;" horiz-adv-x="315" 
d="M315 505l-25 -89h-85v-280q0 -65 64 -65l-4 -24l-39 -24q-4 -84 -41.5 -143.5t-87.5 -72.5l-25 22q42 53 45 206l-43 32v289q0 55 -51 60l4 22q83 65 169 175h9v-108h110z" />
    <glyph glyph-name="uni0163" unicode="&#x21b;" horiz-adv-x="315" 
d="M315 505l-25 -89h-85v-280q0 -65 64 -65l-4 -24l-39 -24q-4 -84 -41.5 -143.5t-87.5 -72.5l-25 22q42 53 45 206l-43 32v289q0 55 -51 60l4 22q83 65 169 175h9v-108h110z" />
    <glyph glyph-name="Tcaron" unicode="&#x164;" horiz-adv-x="742" 
d="M524 964l-155 -185l-152 190l56 38l101 -92l106 92zM689 211l33 -22q-28 -45 -50.5 -73t-59.5 -62t-86 -51t-108 -17q-136 0 -223.5 90t-87.5 253q0 192 113 305q-86 0 -119.5 -10t-72.5 -58l-28 18q50 92 135.5 128.5t230.5 36.5q114 0 282 -18q-52 -75 -76 -156
q-148 48 -269 56q-41 -33 -61.5 -96.5t-20.5 -125.5q0 -134 88.5 -224t194.5 -90q113 0 185 116z" />
    <glyph glyph-name="tcaron" unicode="&#x165;" horiz-adv-x="438" 
d="M315 505l-25 -89h-85v-280q0 -65 64 -65l-4 -24l-89 -56l-102 76v289q0 55 -51 60l4 22q83 65 169 175h9v-108h110zM385 766l63 -88l-105 -171l-28 14l39 91l-42 57z" />
    <glyph glyph-name="Tbar" unicode="&#x166;" horiz-adv-x="742" 
d="M689 211l33 -22q-28 -45 -50.5 -73t-59.5 -62t-86 -51t-108 -17q-138 0 -224 95.5t-86 280.5h-85l22 87h75q27 112 100 185q-86 0 -119.5 -10t-72.5 -58l-28 18q50 92 135.5 128.5t230.5 36.5q114 0 282 -18q-52 -75 -76 -156q-148 48 -269 56q-66 -53 -80 -182h157
l-22 -87h-134q17 -117 101 -192t179 -75q113 0 185 116z" />
    <glyph glyph-name="tbar" unicode="&#x167;" horiz-adv-x="357" 
d="M357 327l-22 -87h-130v-104q0 -65 64 -65l-4 -24l-89 -56l-102 76v173h-74l22 87h52v29q0 55 -51 60l4 22q83 65 169 175h9v-108h110l-25 -89h-85v-89h152z" />
    <glyph glyph-name="Utilde" unicode="&#x168;" horiz-adv-x="749" 
d="M726 746l-4 -36q-61 -3 -61 -74v-464q0 -63 66 -78l-1 -28l-110 -81q-35 14 -63 44.5t-32 69.5q-21 -48 -68 -76t-107 -28q-50 0 -99 20t-92 58.5t-70 105t-27 149.5q0 193 137 369h-132l4 49h319l-4 -41q-50 -13 -86 -45.5t-55.5 -77t-28 -89.5t-8.5 -93
q0 -128 55 -206.5t141 -78.5q57 0 88 35.5t31 91.5v405q0 31 -20.5 47t-50.5 16l4 36h274zM576 958l44 -43q-18 -66 -45.5 -94t-68.5 -28q-43 0 -103.5 37t-84.5 41q-34 -24 -62 -79l-44 43q18 66 45.5 94t67.5 28q44 0 106.5 -37.5t82.5 -40.5q39 25 62 79z" />
    <glyph glyph-name="utilde" unicode="&#x169;" horiz-adv-x="564" 
d="M487 505v-335q0 -58 51 -63l-4 -18l-109 -95q-59 16 -67 84q-88 -26 -171 -84q-155 37 -155 215q0 50 15 117.5t15 94.5q0 46 -20 84h140q20 -26 20 -68q0 -35 -23 -122t-23 -115q0 -43 30 -63.5t77 -20.5q53 0 92 30v359h132zM442 717l44 -43q-18 -66 -45.5 -94
t-68.5 -28q-43 0 -103.5 37t-84.5 41q-34 -24 -62 -79l-44 43q18 66 45.5 94t67.5 28q44 0 106.5 -37.5t82.5 -40.5q39 25 62 79z" />
    <glyph glyph-name="Umacron" unicode="&#x16a;" horiz-adv-x="749" 
d="M726 746l-4 -36q-61 -3 -61 -74v-464q0 -63 66 -78l-1 -28l-110 -81q-35 14 -63 44.5t-32 69.5q-21 -48 -68 -76t-107 -28q-50 0 -99 20t-92 58.5t-70 105t-27 149.5q0 193 137 369h-132l4 49h319l-4 -41q-50 -13 -86 -45.5t-55.5 -77t-28 -89.5t-8.5 -93
q0 -128 55 -206.5t141 -78.5q57 0 88 35.5t31 91.5v405q0 31 -20.5 47t-50.5 16l4 36h274zM595 949l-22 -87h-335l22 87h335z" />
    <glyph glyph-name="umacron" unicode="&#x16b;" horiz-adv-x="564" 
d="M487 505v-335q0 -58 51 -63l-4 -18l-109 -95q-59 16 -67 84q-88 -26 -171 -84q-155 37 -155 215q0 50 15 117.5t15 94.5q0 46 -20 84h140q20 -26 20 -68q0 -35 -23 -122t-23 -115q0 -43 30 -63.5t77 -20.5q53 0 92 30v359h132zM460 708l-22 -87h-335l22 87h335z" />
    <glyph glyph-name="Uring" unicode="&#x16e;" horiz-adv-x="749" 
d="M726 746l-4 -36q-61 -3 -61 -74v-464q0 -63 66 -78l-1 -28l-110 -81q-35 14 -63 44.5t-32 69.5q-21 -48 -68 -76t-107 -28q-50 0 -99 20t-92 58.5t-70 105t-27 149.5q0 193 137 369h-132l4 49h319l-4 -41q-50 -13 -86 -45.5t-55.5 -77t-28 -89.5t-8.5 -93
q0 -128 55 -206.5t141 -78.5q57 0 88 35.5t31 91.5v405q0 31 -20.5 47t-50.5 16l4 36h274zM365 931q-6 -11 -6 -22q0 -32 32.5 -57t63.5 -25q12 0 24 6q2 5 2 16q0 35 -29 60t-65 25q-11 0 -22 -3zM426 1007q111 -55 111 -128q0 -43 -34.5 -71.5t-88.5 -37.5q-53 16 -85 45
t-32 68q0 37 31 64.5t98 59.5z" />
    <glyph glyph-name="uring" unicode="&#x16f;" horiz-adv-x="564" 
d="M487 505v-335q0 -58 51 -63l-4 -18l-109 -95q-59 16 -67 84q-88 -26 -171 -84q-155 37 -155 215q0 50 15 117.5t15 94.5q0 46 -20 84h140q20 -26 20 -68q0 -35 -23 -122t-23 -115q0 -43 30 -63.5t77 -20.5q53 0 92 30v359h132zM230 690q-6 -10 -6 -22q0 -32 32.5 -57
t63.5 -25q12 0 24 6q2 5 2 16q0 34 -29 59.5t-65 25.5q-12 0 -22 -3zM291 766q111 -55 111 -128q0 -43 -34.5 -71.5t-88.5 -37.5q-53 16 -85 45t-32 68q0 37 31 64.5t98 59.5z" />
    <glyph glyph-name="Uhungarumlaut" unicode="&#x170;" horiz-adv-x="749" 
d="M726 746l-4 -36q-61 -3 -61 -74v-464q0 -63 66 -78l-1 -28l-110 -81q-35 14 -63 44.5t-32 69.5q-21 -48 -68 -76t-107 -28q-50 0 -99 20t-92 58.5t-70 105t-27 149.5q0 193 137 369h-132l4 49h319l-4 -41q-50 -13 -86 -45.5t-55.5 -77t-28 -89.5t-8.5 -93
q0 -128 55 -206.5t141 -78.5q57 0 88 35.5t31 91.5v405q0 31 -20.5 47t-50.5 16l4 36h274zM637 944l-151 -174l-56 25l116 212zM462 944l-151 -174l-56 25l116 212z" />
    <glyph glyph-name="uhungarumlaut" unicode="&#x171;" horiz-adv-x="564" 
d="M487 505v-335q0 -58 51 -63l-4 -18l-109 -95q-59 16 -67 84q-88 -26 -171 -84q-155 37 -155 215q0 50 15 117.5t15 94.5q0 46 -20 84h140q20 -26 20 -68q0 -35 -23 -122t-23 -115q0 -43 30 -63.5t77 -20.5q53 0 92 30v359h132zM503 703l-151 -174l-56 25l116 212z
M328 703l-151 -174l-56 25l116 212z" />
    <glyph glyph-name="Uogonek" unicode="&#x172;" horiz-adv-x="749" 
d="M726 746l-4 -36q-61 -3 -61 -74v-464q0 -63 66 -78l-1 -28q-69 -44 -112.5 -83t-52.5 -56q8 -2 26 -2q71 0 123 21l-8 -106q-18 -14 -62.5 -23.5t-88.5 -9.5q-75 21 -79 90q45 67 119 101q-63 37 -70 101q-21 -48 -68 -76t-107 -28q-50 0 -99 20t-92 58.5t-70 105
t-27 149.5q0 193 137 369h-132l4 49h319l-4 -41q-50 -13 -86 -45.5t-55.5 -77t-28 -89.5t-8.5 -93q0 -128 55 -206.5t141 -78.5q57 0 88 35.5t31 91.5v405q0 31 -20.5 47t-50.5 16l4 36h274z" />
    <glyph glyph-name="uogonek" unicode="&#x173;" horiz-adv-x="564" 
d="M487 505v-335q0 -58 51 -63l-4 -18q-100 -80 -132 -111t-44 -51q8 -2 26 -2q71 0 123 21l-8 -106q-18 -14 -62.5 -23.5t-88.5 -9.5q-75 21 -79 90q23 35 60 63.5t70 43.5q-35 22 -41 74q-88 -26 -171 -84q-155 37 -155 215q0 50 15 117.5t15 94.5q0 46 -20 84h140
q20 -26 20 -68q0 -35 -23 -122t-23 -115q0 -43 30 -63.5t77 -20.5q53 0 92 30v359h132z" />
    <glyph glyph-name="Wcircumflex" unicode="&#x174;" horiz-adv-x="1105" 
d="M675 607l-4 20q84 49 119 118q16 4 36 4q107 0 175.5 -86.5t68.5 -228.5q0 -126 -67.5 -223t-239.5 -228h-14q-116 118 -156 211q-73 -95 -222 -211h-14q-130 131 -175.5 225.5t-53.5 210.5q-4 60 -8 89.5t-16 71t-35.5 73t-62.5 63.5l4 30h158q40 -39 62.5 -87.5t29 -86
t14.5 -115.5q11 -107 44.5 -184t123.5 -163q70 59 100.5 118t30.5 129q0 108 -59.5 184t-158.5 76q-38 0 -72 -10l-4 20q84 49 119 118q18 4 38 4q92 0 151.5 -60t80.5 -165q9 -47 9 -97q0 -30 -2 -44q31 -155 159 -273q70 59 100.5 118t30.5 129q0 108 -59.5 184t-158.5 76
q-38 0 -72 -10zM574 1007l152 -190l-56 -38l-101 92l-106 -92l-44 43z" />
    <glyph glyph-name="wcircumflex" unicode="&#x175;" horiz-adv-x="788" 
d="M501 413l-8 22q58 31 82 81q12 3 27 3q61 0 103 -46t42 -138q0 -95 -52.5 -176t-172.5 -176h-8q-78 81 -113 145q-55 -71 -150 -145h-9q-86 91 -117.5 156t-38.5 149q-8 92 -20 122.5t-58 56.5l4 38h134q36 -38 46 -74t18 -122q3 -34 5 -51.5t8.5 -44t16.5 -44t28 -39
t43 -41.5q78 75 78 173q0 62 -32 110.5t-80 48.5q-17 0 -47 -8l-8 22q58 31 82 81q12 3 27 3q61 0 103 -46t42 -139q0 -28 -4 -49q19 -125 110 -196q78 75 78 173q0 62 -32 110.5t-80 48.5q-17 0 -47 -8zM385 766l152 -190l-56 -38l-101 92l-106 -92l-44 43z" />
    <glyph glyph-name="Ycircumflex" unicode="&#x176;" horiz-adv-x="727" 
d="M324 607l-4 20q83 48 118 118q13 4 37 4q94 0 155.5 -66t61.5 -189q0 -125 -70 -234t-216 -228q-10 -17 -10 -43q0 -28 15.5 -45t45.5 -17q51 0 134 67l28 -17q-42 -76 -101.5 -118.5t-118.5 -42.5q-57 0 -86 36.5t-29 81.5q0 49 41 87q-116 124 -158 208.5t-48 189.5
q-4 64 -7.5 94t-14.5 72t-33 72t-58 59v30h160q53 -52 70 -109t29 -180q11 -105 46.5 -176t121.5 -157q80 73 116 132t36 132q0 94 -52.5 161.5t-141.5 67.5q-36 0 -67 -10zM365 1007l152 -190l-56 -38l-101 92l-106 -92l-44 43z" />
    <glyph glyph-name="ycircumflex" unicode="&#x177;" horiz-adv-x="522" 
d="M232 413l-8 22q57 28 83 81q12 3 28 3q61 0 103.5 -44t42.5 -133q0 -52 -14.5 -95.5t-51 -88.5t-67 -74t-94.5 -84q-63 -55 -70 -188h-140q21 73 69.5 126.5t116.5 77.5q-76 84 -106 145t-37 134q-10 98 -21 123t-58 51l4 36h135q36 -36 46.5 -71t18.5 -118
q7 -75 26 -120t76 -90q79 72 79 167q0 57 -32.5 102.5t-80.5 45.5q-16 0 -48 -8zM262 766l152 -190l-56 -38l-101 92l-106 -92l-44 43z" />
    <glyph glyph-name="Ydieresis" unicode="&#x178;" horiz-adv-x="727" 
d="M324 607l-4 20q83 48 118 118q13 4 37 4q94 0 155.5 -66t61.5 -189q0 -125 -70 -234t-216 -228q-10 -17 -10 -43q0 -28 15.5 -45t45.5 -17q51 0 134 67l28 -17q-42 -76 -101.5 -118.5t-118.5 -42.5q-57 0 -86 36.5t-29 81.5q0 49 41 87q-116 124 -158 208.5t-48 189.5
q-4 64 -7.5 94t-14.5 72t-33 72t-58 59v30h160q53 -52 70 -109t29 -180q11 -105 46.5 -176t121.5 -157q80 73 116 132t36 132q0 94 -52.5 161.5t-141.5 67.5q-36 0 -67 -10zM529 993v-122l-131 -59v124zM329 973v-122l-131 -59v124z" />
    <glyph glyph-name="Zacute" unicode="&#x179;" horiz-adv-x="697" 
d="M595 748l41 -36q-287 -293 -406 -540q14 7 50 7q27 0 109.5 -19t116.5 -19q61 0 98.5 37t47.5 78l31 -7q-35 -259 -225 -259q-35 0 -135 14.5t-144 14.5q-66 0 -115 -32l-35 32q164 268 235 363.5t189 196.5q-34 -10 -73 -10q-32 0 -86.5 14.5t-95.5 14.5
q-36 0 -63.5 -17.5t-71.5 -79.5l-31 21q15 38 27.5 64.5t33 57.5t42.5 49.5t54 31.5t70 13q37 0 111 -17t110 -17q64 0 115 44zM420 1007l72 -87l-183 -141l-44 43z" />
    <glyph glyph-name="zacute" unicode="&#x17a;" horiz-adv-x="510" 
d="M464 505l-4 -35q-165 -209 -258 -349h112q92 0 150 55l16 -20l-54 -130q-11 -26 -41 -26h-351l4 43q143 196 279 348h-115q-61 0 -141 -44l-13 13l31 145h385zM336 766l72 -87l-183 -141l-44 43z" />
    <glyph glyph-name="Zdotaccent" unicode="&#x17b;" horiz-adv-x="697" 
d="M595 748l41 -36q-287 -293 -406 -540q14 7 50 7q27 0 109.5 -19t116.5 -19q61 0 98.5 37t47.5 78l31 -7q-35 -259 -225 -259q-35 0 -135 14.5t-144 14.5q-66 0 -115 -32l-35 32q164 268 235 363.5t189 196.5q-34 -10 -73 -10q-32 0 -86.5 14.5t-95.5 14.5
q-36 0 -63.5 -17.5t-71.5 -79.5l-31 21q15 38 27.5 64.5t33 57.5t42.5 49.5t54 31.5t70 13q37 0 111 -17t110 -17q64 0 115 44zM414 983v-122l-131 -59v124z" />
    <glyph glyph-name="zdotaccent" unicode="&#x17c;" horiz-adv-x="510" 
d="M464 505l-4 -35q-165 -209 -258 -349h112q92 0 150 55l16 -20l-54 -130q-11 -26 -41 -26h-351l4 43q143 196 279 348h-115q-61 0 -141 -44l-13 13l31 145h385zM330 742v-122l-131 -59v124z" />
    <glyph glyph-name="Zcaron" unicode="&#x17d;" horiz-adv-x="697" 
d="M595 748l41 -36q-287 -293 -406 -540q14 7 50 7q27 0 109.5 -19t116.5 -19q61 0 98.5 37t47.5 78l31 -7q-35 -259 -225 -259q-35 0 -135 14.5t-144 14.5q-66 0 -115 -32l-35 32q164 268 235 363.5t189 196.5q-34 -10 -73 -10q-32 0 -86.5 14.5t-95.5 14.5
q-36 0 -63.5 -17.5t-71.5 -79.5l-31 21q15 38 27.5 64.5t33 57.5t42.5 49.5t54 31.5t70 13q37 0 111 -17t110 -17q64 0 115 44zM502 964l-155 -185l-152 190l56 38l101 -92l106 92z" />
    <glyph glyph-name="zcaron" unicode="&#x17e;" horiz-adv-x="510" 
d="M464 505l-4 -35q-165 -209 -258 -349h112q92 0 150 55l16 -20l-54 -130q-11 -26 -41 -26h-351l4 43q143 196 279 348h-115q-61 0 -141 -44l-13 13l31 145h385zM408 723l-155 -185l-152 190l56 38l101 -92l106 92z" />
    <glyph glyph-name="uni018E" unicode="&#x18e;" horiz-adv-x="772" 
d="M604 340l-502 -62q49 71 95 181h18q4 -47 63 -50l321 -15q-17 108 -88.5 180.5t-175.5 72.5q-145 0 -256 -155l-33 35q37 50 69.5 85.5t76 70.5t95 53t108.5 18q147 0 247.5 -109.5t100.5 -267.5q0 -168 -114 -279.5t-282 -111.5q-146 0 -257 108q71 51 130 110l24 -30
q-2 -10 -2 -15q0 -34 36.5 -61t96.5 -27q96 0 162.5 72.5t66.5 196.5z" />
    <glyph glyph-name="uni018F" unicode="&#x18f;" horiz-adv-x="812" 
d="M102 492l-33 35q37 50 69.5 85.5t76 70.5t95 53t108.5 18q147 0 247.5 -109.5t100.5 -266.5q0 -168 -114.5 -280t-271.5 -112q-147 0 -240 101t-93 245q0 27 5 62h570q-17 108 -88.5 180.5t-175.5 72.5q-145 0 -256 -155zM627 340h-425q1 -123 59 -196t147 -73
q91 0 155 73t64 196z" />
    <glyph glyph-name="uni018F" unicode="&#x4d8;" horiz-adv-x="812" 
d="M102 492l-33 35q37 50 69.5 85.5t76 70.5t95 53t108.5 18q147 0 247.5 -109.5t100.5 -266.5q0 -168 -114.5 -280t-271.5 -112q-147 0 -240 101t-93 245q0 27 5 62h570q-17 108 -88.5 180.5t-175.5 72.5q-145 0 -256 -155zM627 340h-425q1 -123 59 -196t147 -73
q91 0 155 73t64 196z" />
    <glyph glyph-name="florin" unicode="&#x192;" horiz-adv-x="518" 
d="M520 682l-87 -89q-33 45 -89 45q-19 0 -31 -4q4 -13 4 -41q0 -35 -31 -150h121l-9 -54h-126l-56 -211q-92 -346 -300 -362l7 28q78 33 118 178l99 367h-76l9 54h43q48 8 48 65q0 19 -9 29t-33 12l5 18q186 141 322 182q10 -55 71 -67z" />
    <glyph glyph-name="uni0194" unicode="&#x194;" horiz-adv-x="729" 
d="M326 607l-4 20q84 49 118 118q16 4 38 4q91 0 153.5 -65.5t62.5 -196.5q0 -128 -54 -231.5t-162 -171.5q31 -29 44.5 -43.5t24.5 -36t11 -43.5q0 -53 -44.5 -97.5t-104.5 -56.5q-61 22 -102 61t-41 90q0 50 46 93q-97 86 -141 186t-50 182q-4 65 -7.5 95.5t-15 71.5
t-33.5 70.5t-59 59.5l4 30h158q46 -56 65.5 -116t33.5 -173q12 -97 56.5 -181t105.5 -145q78 50 118 111t40 150q0 91 -52.5 158t-141.5 67q-34 0 -67 -10zM487 -110q-2 17 -8.5 30t-19.5 25.5t-24.5 20t-35 22.5t-38.5 25q-24 -19 -24 -38q0 -31 41.5 -59.5t85.5 -28.5
q11 0 23 3z" />
    <glyph glyph-name="uni019D" unicode="&#x19d;" horiz-adv-x="745" 
d="M731 746l-4 -40q-62 -1 -62 -39v-667h-77v49l-415 520v-428q0 -145 -72 -231.5t-210 -102.5l-6 35q96 37 151.5 116.5t55.5 225.5v435q0 63 -68 75l3 30l174 38l387 -478v372q0 50 -71 50l4 40h210z" />
    <glyph glyph-name="Ohorn" unicode="&#x1a0;" horiz-adv-x="753" 
d="M627 906h126q31 -65 31 -116q0 -50 -32.5 -75t-106.5 -25q-89 0 -142 11q106 -76 155 -167.5t49 -185.5q0 -140 -97 -235t-242 -124q-64 24 -119 57.5t-102 79t-74 106.5t-27 130q0 83 42 152.5t116 126t197 123.5q88 -30 214 -30q44 0 57 7t13 31q0 70 -58 134zM182 569
q-40 -64 -40 -129q0 -68 36 -132t89.5 -108t115.5 -70.5t116 -26.5q49 0 87 24q33 65 33 146t-38 159t-107.5 129.5t-151.5 51.5q-64 0 -140 -44z" />
    <glyph glyph-name="ohorn" unicode="&#x1a1;" 
d="M391 665h126q31 -65 31 -114q0 -47 -30 -74.5t-88 -27.5q-26 0 -73 10q124 -102 124 -230q0 -94 -64.5 -158.5t-163.5 -83.5q-98 36 -157.5 100.5t-59.5 151.5q0 83 57 144t182 134q75 -24 131 -24q26 0 34.5 8t8.5 26q0 16 -3.5 32.5t-11.5 33t-13.5 26t-16.5 26.5
t-13 20zM136 373q-13 -27 -13 -61q0 -88 75 -156t147 -68q27 0 56 15q6 19 6 44q0 94 -68 163.5t-154 69.5q-27 0 -49 -7z" />
    <glyph glyph-name="Uhorn" unicode="&#x1af;" horiz-adv-x="790" 
d="M664 906h126q31 -65 31 -115q0 -78 -71 -92q-55 -11 -72 -21t-17 -42v-464q0 -63 66 -78l-1 -28l-110 -81q-35 14 -63 44.5t-32 69.5q-21 -48 -68 -76t-107 -28q-50 0 -99 20t-92 58.5t-70 105t-27 149.5q0 193 137 369h-132l4 49h319l-4 -41q-50 -13 -86 -45.5
t-55.5 -77t-28 -89.5t-8.5 -93q0 -128 55 -206.5t141 -78.5q57 0 88 35.5t31 91.5v405q0 31 -20.5 47t-50.5 16l4 36h250q12 0 16 5t4 16t-1.5 22.5t-6 23t-7.5 20t-10.5 21l-10.5 17.5t-11.5 18.5t-10.5 16.5z" />
    <glyph glyph-name="uhorn" unicode="&#x1b0;" horiz-adv-x="564" 
d="M438 665h126q31 -65 31 -114q0 -44 -27 -71t-81 -31v-279q0 -58 51 -63l-4 -18l-109 -95q-59 16 -67 84q-88 -26 -171 -84q-155 37 -155 215q0 50 15 117.5t15 94.5q0 46 -20 84h140q20 -26 20 -68q0 -35 -23 -122t-23 -115q0 -43 30 -63.5t77 -20.5q53 0 92 30v359h113
q20 0 20 28q0 53 -50 132z" />
    <glyph glyph-name="uni01DD" unicode="&#x1dd;" horiz-adv-x="426" 
d="M40 379l-16 10q66 111 171 128q85 -25 138.5 -92.5t53.5 -156.5q0 -36 -11 -68t-25.5 -55.5t-46 -53.5t-55.5 -49t-72 -55q-81 51 -136 135l218 218q-56 62 -130 62q-45 0 -89 -23zM282 307l-116 -115q21 -80 106 -87q27 67 27 121q0 39 -17 81z" />
    <glyph glyph-name="uni01DD" unicode="&#x4d9;" horiz-adv-x="426" 
d="M40 379l-16 10q66 111 171 128q85 -25 138.5 -92.5t53.5 -156.5q0 -36 -11 -68t-25.5 -55.5t-46 -53.5t-55.5 -49t-72 -55q-81 51 -136 135l218 218q-56 62 -130 62q-45 0 -89 -23zM282 307l-116 -115q21 -80 106 -87q27 67 27 121q0 39 -17 81z" />
    <glyph glyph-name="Gcaron" unicode="&#x1e6;" horiz-adv-x="824" 
d="M680 318h-280q-68 0 -103 -35l-18 24l262 257q5 5 5 16q0 33 -36 61t-97 28q-95 0 -157.5 -71t-62.5 -193q0 -137 76 -224.5t180 -87.5q88 0 159.5 61.5t71.5 163.5zM699 646l-224 -211h238q41 0 71 30l21 -25q-13 -34 -36 -45q-12 -100 -50.5 -180t-92.5 -129
t-115 -74.5t-123 -25.5q-97 0 -176 54t-122.5 141.5t-43.5 186.5q0 163 114 274.5t283 111.5q148 0 256 -108zM575 964l-155 -185l-152 190l56 38l101 -92l106 92z" />
    <glyph glyph-name="gcaron" unicode="&#x1e7;" horiz-adv-x="522" 
d="M345 135v75q0 33 -5.5 57.5t-22.5 50.5t-55 40t-95 14q-19 0 -30 -1q-17 -39 -17 -75q0 -68 50.5 -118.5t121.5 -50.5q21 0 53 8zM476 382v-295q0 -219 -241 -280q-32 60 -84 60q-43 0 -105 -53l-13 19q77 98 148 98q49 0 102 -50q62 76 62 178v31q-42 -16 -64 -34.5
t-59 -59.5q-92 0 -139 55t-47 140q0 110 68.5 208.5t174.5 115.5q42 -59 85.5 -90.5t111.5 -42.5zM414 723l-155 -185l-152 190l56 38l101 -92l106 92z" />
    <glyph glyph-name="uni01F4" unicode="&#x1f4;" horiz-adv-x="824" 
d="M680 318h-280q-68 0 -103 -35l-18 24l262 257q5 5 5 16q0 33 -36 61t-97 28q-95 0 -157.5 -71t-62.5 -193q0 -137 76 -224.5t180 -87.5q88 0 159.5 61.5t71.5 163.5zM699 646l-224 -211h238q41 0 71 30l21 -25q-13 -34 -36 -45q-12 -100 -50.5 -180t-92.5 -129
t-115 -74.5t-123 -25.5q-97 0 -176 54t-122.5 141.5t-43.5 186.5q0 163 114 274.5t283 111.5q148 0 256 -108zM483 1007l72 -87l-183 -141l-44 43z" />
    <glyph glyph-name="uni01F5" unicode="&#x1f5;" horiz-adv-x="522" 
d="M345 135v75q0 33 -5.5 57.5t-22.5 50.5t-55 40t-95 14q-19 0 -30 -1q-17 -39 -17 -75q0 -68 50.5 -118.5t121.5 -50.5q21 0 53 8zM476 382v-295q0 -219 -241 -280q-32 60 -84 60q-43 0 -105 -53l-13 19q77 98 148 98q49 0 102 -50q62 76 62 178v31q-42 -16 -64 -34.5
t-59 -59.5q-92 0 -139 55t-47 140q0 110 68.5 208.5t174.5 115.5q42 -59 85.5 -90.5t111.5 -42.5zM332 766l72 -87l-183 -141l-44 43z" />
    <glyph glyph-name="uni01F8" unicode="&#x1f8;" horiz-adv-x="745" 
d="M731 746l-4 -40q-62 -1 -62 -39v-667h-77v49l-415 520v-451q0 -144 -124 -304l-21 13q64 140 64 280v512q0 63 -68 75l3 30l174 38l387 -478v372q0 50 -71 50l4 40h210zM314 1007l152 -190l-56 -38l-192 157z" />
    <glyph glyph-name="uni01F9" unicode="&#x1f9;" horiz-adv-x="545" 
d="M205 367v-367h-131v335q0 58 -51 63l4 18l108 95q61 -18 70 -67q95 20 157 67q77 -20 110 -75t33 -156q0 -107 -34 -280h-168q81 195 81 285q0 101 -111 101q-36 0 -68 -19zM214 766l152 -190l-56 -38l-192 157z" />
    <glyph glyph-name="uni0237" unicode="&#x237;" horiz-adv-x="265" 
d="M219 515v-333q0 -349 -202 -366l4 28q67 31 67 178v317q0 58 -51 63l4 18z" />
    <glyph glyph-name="uni0241" unicode="&#x241;" horiz-adv-x="579" 
d="M362 254v-133q0 -21 8 -37t20 -25.5t31 -15.5t35 -8.5t37 -4.5q19 -1 29.5 -3.5t22 -12t11.5 -27.5q0 -41 -57 -41q-58 0 -75 54h-317l4 41q107 0 107 69v141q0 102 34 146q46 -43 86 -43q39 0 59.5 39.5t20.5 87.5q0 76 -46 147.5t-115 71.5q-43 0 -66.5 -37t-38.5 -129
q-67 55 -139 75q108 97 247 158q152 -72 217.5 -137t65.5 -153t-68 -181q-30 24 -62 24q-51 0 -51 -66z" />
    <glyph glyph-name="uni0242" unicode="&#x242;" horiz-adv-x="499" 
d="M309 173v-37q0 -65 64 -65l-4 -24l-89 -56l-102 76v104q0 70 27 100q35 -28 72 -28q30 0 52 19t22 52q0 48 -43 89.5t-85 41.5q-59 0 -94 -118q-26 27 -107 88q75 55 204 102q123 -22 179 -73t56 -115q0 -58 -61 -128q-23 16 -51 16q-40 0 -40 -44z" />
    <glyph glyph-name="uni024C" unicode="&#x24c;" horiz-adv-x="766" 
d="M527 449l-86 -59q45 -93 117.5 -175.5t121.5 -82.5q32 0 72 33l21 -24q-49 -40 -175 -167q-127 187 -263 343l-52 -36v-82q0 -88 87 -132v-61q-87 24 -141 24q-81 0 -138 -43l-28 41q69 42 69 104v131h-132l17 88h115v178q0 81 -65 84l4 38q56 0 130 31q15 6 55 24.5
t59.5 25.5t57 14.5t78.5 7.5q102 0 156 -37t54 -100q0 -47 -30.5 -82.5t-103.5 -85.5zM282 557v-208l147 102q91 63 91 152q0 104 -90 104q-22 0 -43 -6.5t-44 -21.5t-39.5 -46.5t-21.5 -75.5z" />
    <glyph glyph-name="uni024D" unicode="&#x24d;" horiz-adv-x="380" 
d="M380 446l-2 -11l-85 -70l-5 2q-9 28 -31 28q-21 0 -52 -28v-72h152l-22 -87h-130v-208h-131v208h-74l22 87h52v40q0 58 -51 63l4 18l108 95q60 -17 70 -67q28 50 96 67q23 -52 79 -65z" />
    <glyph glyph-name="uni0263" unicode="&#x263;" horiz-adv-x="522" 
d="M232 413l-8 22q58 30 84 81q12 3 28 3q62 0 103.5 -46t41.5 -146q0 -90 -36.5 -175.5t-110.5 -135.5q30 -30 42.5 -49t12.5 -43q0 -41 -30.5 -75t-71.5 -42q-42 17 -70.5 46.5t-28.5 67.5q0 37 32 71q-122 122 -132 278q-6 91 -19.5 131t-60.5 66l4 38h135
q36 -38 46.5 -74t18.5 -122q16 -178 89 -257q45 31 68.5 84.5t23.5 114.5q0 76 -33 123t-80 47q-16 0 -48 -8zM341 -130q4 20 -15 38.5t-72 54.5q-17 -14 -17 -31q0 -31 35.5 -53t68.5 -9z" />
    <glyph glyph-name="uni0272" unicode="&#x272;" horiz-adv-x="545" 
d="M471 0h-168q81 195 81 285q0 101 -111 101q-36 0 -68 -19q0 -205 -24.5 -326t-67.5 -170t-113 -55l4 28q26 12 39.5 45.5t22 140t8.5 305.5q0 58 -51 63l4 18l108 95q61 -18 70 -67q95 20 157 67q77 -20 110 -75t33 -157q0 -106 -34 -279z" />
    <glyph glyph-name="circumflex" unicode="&#x2c6;" horiz-adv-x="314" 
d="M183 766l152 -190l-56 -38l-101 92l-106 -92l-44 43z" />
    <glyph glyph-name="caron" unicode="&#x2c7;" horiz-adv-x="377" 
d="M342 723l-155 -185l-152 190l56 38l101 -92l106 92z" />
    <glyph glyph-name="breve" unicode="&#x2d8;" horiz-adv-x="409" 
d="M297 746h88q-13 -88 -58 -146t-124 -58q-78 0 -122 57.5t-58 146.5h90q7 -58 36.5 -103t81.5 -58q59 62 66 161z" />
    <glyph glyph-name="dotaccent" unicode="&#x2d9;" horiz-adv-x="201" 
d="M166 742v-122l-131 -59v124z" />
    <glyph glyph-name="ring" unicode="&#x2da;" horiz-adv-x="310" 
d="M103 690q-6 -10 -6 -22q0 -32 32.5 -57t63.5 -25q12 0 24 6q2 5 2 16q0 34 -29 59.5t-65 25.5q-11 0 -22 -3zM164 766q111 -55 111 -128q0 -43 -34.5 -71.5t-88.5 -37.5q-53 16 -85 45t-32 68q0 37 31 64.5t98 59.5z" />
    <glyph glyph-name="ogonek" unicode="&#x2db;" horiz-adv-x="308" 
d="M273 -54l-8 -106q-18 -14 -62.5 -23.5t-88.5 -9.5q-75 21 -79 90q48 70 125 103h40q-52 -33 -76 -73q8 -2 26 -2q71 0 123 21z" />
    <glyph glyph-name="tilde" unicode="&#x2dc;" horiz-adv-x="478" 
d="M399 717l44 -43q-18 -66 -45.5 -94t-68.5 -28q-43 0 -103.5 37t-84.5 41q-34 -24 -62 -79l-44 43q18 66 45.5 94t67.5 28q44 0 106.5 -37.5t82.5 -40.5q39 25 62 79z" />
    <glyph glyph-name="hungarumlaut" unicode="&#x2dd;" horiz-adv-x="452" 
d="M417 703l-151 -174l-56 25l116 212zM242 703l-151 -174l-56 25l116 212z" />
    <glyph glyph-name="gravecomb" unicode="&#x300;" horiz-adv-x="0" 
d="M-318 766l152 -190l-56 -38l-192 157z" />
    <glyph glyph-name="acutecomb" unicode="&#x301;" horiz-adv-x="0" 
d="M-189 766l72 -87l-183 -141l-44 43z" />
    <glyph glyph-name="uni0302" unicode="&#x302;" horiz-adv-x="0" 
d="M-259 766l152 -190l-56 -38l-101 92l-106 -92l-44 43z" />
    <glyph glyph-name="tildecomb" unicode="&#x303;" horiz-adv-x="0" 
d="M-100 717l44 -43q-18 -66 -45.5 -94t-68.5 -28q-43 0 -103.5 37t-84.5 41q-34 -24 -62 -79l-44 43q18 66 45.5 94t67.5 28q44 0 106.5 -37.5t82.5 -40.5q39 25 62 79z" />
    <glyph glyph-name="uni0304" unicode="&#x304;" horiz-adv-x="0" 
d="M-82 708l-22 -87h-335l22 87h335z" />
    <glyph glyph-name="uni0306" unicode="&#x306;" horiz-adv-x="0" 
d="M-166 746h88q-13 -88 -58 -146t-124 -58q-78 0 -122 57.5t-58 146.5h90q7 -58 36.5 -103t81.5 -58q59 62 66 161z" />
    <glyph glyph-name="uni0307" unicode="&#x307;" horiz-adv-x="0" 
d="M-195 742v-122l-131 -59v124z" />
    <glyph glyph-name="uni0308" unicode="&#x308;" horiz-adv-x="0" 
d="M-95 752v-122l-131 -59v124zM-295 732v-122l-131 -59v124z" />
    <glyph glyph-name="hookabovecomb" unicode="&#x309;" horiz-adv-x="0" 
d="M-254 553l-58 20q30 10 56 45t26 66q0 21 -13 34q-17 -5 -31 -16.5t-20 -21t-17 -29.5q-30 33 -72 46q48 43 119 69q69 -30 95 -52.5t26 -50.5q0 -31 -25.5 -54t-85.5 -56z" />
    <glyph glyph-name="uni030A" unicode="&#x30a;" horiz-adv-x="0" 
d="M-312 690q-6 -11 -6 -22q0 -32 32.5 -57t63.5 -25q12 0 24 6q2 5 2 16q0 34 -29 59.5t-65 25.5q-12 0 -22 -3zM-251 766q111 -55 111 -128q0 -43 -34.5 -71.5t-88.5 -37.5q-53 16 -85 45t-32 68q0 37 31 64.5t98 59.5z" />
    <glyph glyph-name="uni030B" unicode="&#x30b;" horiz-adv-x="0" 
d="M-39 703l-151 -174l-56 25l116 212zM-214 703l-151 -174l-56 25l116 212z" />
    <glyph glyph-name="uni030C" unicode="&#x30c;" horiz-adv-x="0" 
d="M-107 723l-155 -185l-152 190l56 38l101 -92l106 92z" />
    <glyph glyph-name="uni0313" unicode="&#x313;" horiz-adv-x="0" 
d="M-194 752l-39 -91l42 -57l-73 -97l-63 88l105 171z" />
    <glyph glyph-name="uni031B" unicode="&#x31b;" horiz-adv-x="43" 
d="M-91 665h126q31 -65 31 -114q0 -102 -124 -102q-44 0 -107 15v35q48 -6 83 -6t48 7q1 8 1 23q0 17 -3 33t-11 33t-12.5 25.5t-17 27.5t-14.5 23z" />
    <glyph glyph-name="dotbelowcomb" unicode="&#x323;" horiz-adv-x="0" 
d="M-195 -30v-112l-131 -52v114z" />
    <glyph glyph-name="uni0326" unicode="&#x326;" horiz-adv-x="0" 
d="M-332 0h111q0 -75 -39 -129t-92 -64l-26 18q44 44 46 175z" />
    <glyph glyph-name="uni0328" unicode="&#x328;" horiz-adv-x="0" 
d="M-141 -54l-8 -106q-18 -14 -62.5 -23.5t-88.5 -9.5q-75 21 -79 90q48 70 125 103h40q-52 -33 -76 -73q8 -2 26 -2q71 0 123 21z" />
    <glyph glyph-name="uni032D" unicode="&#x32d;" horiz-adv-x="0" 
d="M-258 -14l148 -149l-54 -30l-99 73l-104 -73l-43 34z" />
    <glyph glyph-name="tonos" unicode="&#x384;" horiz-adv-x="130" 
d="M130 766l-55 -243h-61v243h116z" />
    <glyph glyph-name="dieresistonos" unicode="&#x385;" horiz-adv-x="454" 
d="M152 722v-122l-131 -59v124zM299 766l-55 -243h-61v243h116zM434 762v-122l-131 -59v124z" />
    <glyph glyph-name="Alphatonos" unicode="&#x386;" horiz-adv-x="838" 
d="M130 766l-55 -243h-61v243h116zM480 695h-80q0 -100 -19 -264h200l-21 191q-5 42 -21.5 57.5t-58.5 15.5zM740 746l-4 -44q-21 0 -32.5 -21t-7.5 -61l50 -464q12 -113 72 -113l-4 -43h-386l4 41q179 0 179 101q0 29 -7 83l-11 82h-238q-51 -185 -162 -319
q-29 28 -123 111l20 21q10 -6 21 -6q19 0 45.5 20.5t57 67t57.5 112t47.5 165.5t26.5 216h-196l10 51h581z" />
    <glyph glyph-name="anoteleia" unicode="&#x387;" horiz-adv-x="234" 
d="M122 521l77 -84l-87 -103l-77 91z" />
    <glyph glyph-name="Epsilontonos" unicode="&#x388;" horiz-adv-x="763" 
d="M721 207l29 -22q-24 -51 -40 -79t-42 -58t-60.5 -43t-81.5 -13q-21 0 -113.5 6t-135.5 6q-69 0 -147 -17l-23 38q64 60 64 147v301q0 78 -50 104l4 28q52 13 119 51.5t124 68.5t96 30q191 0 269 -26q-34 -45 -74 -154q-210 83 -331 83q-11 -68 -11 -134v-108l310 30
q-48 -82 -84 -165h-18q-2 21 -18.5 35t-44.5 15l-145 6v-88q0 -71 -55 -139q62 35 113 35q23 0 99.5 -12.5t97.5 -12.5q66 0 149 87zM126 766l-55 -243h-61v243h116z" />
    <glyph glyph-name="Etatonos" unicode="&#x389;" horiz-adv-x="1131" 
d="M130 766l-55 -243h-61v243h116zM1040 746l-4 -42q-107 0 -107 -67v-516q0 -74 131 -91q63 0 63 -44q0 -40 -57 -40q-58 0 -75 54h-315l4 41q105 0 105 69v230q-65 6 -135 6q-75 0 -151 -7v-218q0 -36 26 -53.5t93 -25.5l-5 -42h-369l4 41q107 0 107 69v515q0 73 -132 91
q-63 0 -63 44q0 40 57 40q60 0 75 -54h318l-4 -42q-107 0 -107 -67v-214q74 -7 146 -7q75 0 140 9v200q0 36 -26 53t-93 26l4 42h370z" />
    <glyph glyph-name="Iotatonos" unicode="&#x38a;" horiz-adv-x="693" 
d="M130 766l-55 -243h-61v243h116zM600 746l-4 -42q-107 0 -107 -67v-516q0 -74 131 -91q63 0 63 -44q0 -40 -57 -40q-58 0 -75 54h-317l4 41q107 0 107 69v515q0 73 -132 91q-63 0 -63 44q0 40 57 40q59 0 75 -54h318z" />
    <glyph glyph-name="Omicrontonos" unicode="&#x38c;" horiz-adv-x="786" 
d="M130 766l-55 -243h-61v243h116zM215 569q-40 -64 -40 -129q0 -109 90 -206q55 -59 129.5 -95t137.5 -36q50 0 87 24q33 65 33 146q0 120 -77 221q-41 55 -98 87t-122 32q-64 0 -140 -44zM434 764q141 -73 217 -170q89 -113 89 -246q0 -140 -97 -235t-242 -124
q-140 53 -223 139q-99 102 -99 234q0 83 42 152.5t116 126t197 123.5z" />
    <glyph glyph-name="Upsilontonos" unicode="&#x38e;" horiz-adv-x="777" 
d="M130 766l-55 -243h-61v243h116zM429 647l-9 22q63 34 89 82q4 0 8.5 0.5t10.5 0.5q25 0 53 -6t56.5 -20.5t51.5 -35t37.5 -52t14.5 -68.5q0 -71 -50 -136.5t-144 -106.5v-128q0 -88 87 -132v-61q-87 24 -141 24q-81 0 -138 -43l-28 41q69 42 69 104v186
q-67 42 -101.5 107t-43.5 132q-10 76 -22.5 98.5t-62.5 52.5v38h170q31 -23 42 -54.5t28 -133.5q14 -85 41 -134.5t74 -67.5q47 29 65.5 73.5t18.5 84.5q0 58 -35 100t-90 42q-24 0 -51 -9z" />
    <glyph glyph-name="Omegatonos" unicode="&#x38f;" horiz-adv-x="821" 
d="M130 766l-55 -243h-61v243h116zM771 207l29 -22q-41 -96 -84 -140.5t-109 -44.5h-120l13 72q58 19 98 62.5t55 89.5t15 93q0 119 -95.5 207.5t-203.5 88.5q-63 0 -138 -44q-40 -64 -40 -119q0 -93 75.5 -214.5t159.5 -167.5l-17 -68h-159q-71 0 -145 -23l33 96
q68 25 145 25q-92 57 -140 119.5t-48 154.5q0 118 85 205t270 187q165 -89 235.5 -188t70.5 -210q0 -134 -95 -239q27 8 48 23t39 34t23 23z" />
    <glyph glyph-name="iotadieresistonos" unicode="&#x390;" horiz-adv-x="413" 
d="M264 414v-278q0 -65 64 -65l-4 -24l-89 -56l-102 76v272q0 58 -51 63l4 18l94 95q37 -8 60.5 -35.5t23.5 -65.5zM131 722v-122l-131 -59v124zM278 766l-55 -243h-61v243h116zM413 762v-122l-131 -59v124z" />
    <glyph glyph-name="Gamma" unicode="&#x393;" horiz-adv-x="625" 
d="M230 524v-325q0 -88 87 -132v-61q-87 24 -136 24q-81 0 -138 -43l-28 41q69 42 69 104v341q0 78 -50 104l4 28q45 11 97.5 38t90 50.5t90.5 42.5t106 19q104 0 203 -26q-41 -55 -69 -147q-111 44 -180 60t-135 16q-11 -68 -11 -134z" />
    <glyph glyph-name="Gamma" unicode="&#x413;" horiz-adv-x="625" 
d="M230 524v-325q0 -88 87 -132v-61q-87 24 -136 24q-81 0 -138 -43l-28 41q69 42 69 104v341q0 78 -50 104l4 28q45 11 97.5 38t90 50.5t90.5 42.5t106 19q104 0 203 -26q-41 -55 -69 -147q-111 44 -180 60t-135 16q-11 -68 -11 -134z" />
    <glyph glyph-name="uni0394" unicode="&#x394;" horiz-adv-x="835" 
d="M466 746l308 -681q11 -24 42 -30l-4 -35h-797l4 34q23 0 55 29t84 117q65 109 126 247.5t61 192.5q0 26 -14 50.5t-43 24.5h-22l9 51h191zM554 167l-131 318q-15 36 -33 36q-17 0 -32 -35q-81 -193 -157 -327q-6 -11 -15 -26t-14 -23.5t-10 -18t-7 -16t-2 -11.5
q0 -21 31 -21h295q41 0 64.5 17t23.5 51q0 24 -13 56z" />
    <glyph glyph-name="Epsilon" unicode="&#x395;" horiz-adv-x="676" 
d="M634 207l29 -22q-24 -51 -40 -79t-42 -58t-60.5 -43t-81.5 -13q-21 0 -113.5 6t-135.5 6q-69 0 -147 -17l-23 38q64 60 64 147v301q0 78 -50 104l4 28q52 13 119 51.5t124 68.5t96 30q191 0 269 -26q-34 -45 -74 -154q-210 83 -331 83q-11 -68 -11 -134v-108l310 30
q-48 -82 -84 -165h-18q-2 21 -18.5 35t-44.5 15l-145 6v-88q0 -71 -55 -139q62 35 113 35q23 0 99.5 -12.5t97.5 -12.5q66 0 149 87z" />
    <glyph glyph-name="Epsilon" unicode="&#x415;" horiz-adv-x="676" 
d="M634 207l29 -22q-24 -51 -40 -79t-42 -58t-60.5 -43t-81.5 -13q-21 0 -113.5 6t-135.5 6q-69 0 -147 -17l-23 38q64 60 64 147v301q0 78 -50 104l4 28q52 13 119 51.5t124 68.5t96 30q191 0 269 -26q-34 -45 -74 -154q-210 83 -331 83q-11 -68 -11 -134v-108l310 30
q-48 -82 -84 -165h-18q-2 21 -18.5 35t-44.5 15l-145 6v-88q0 -71 -55 -139q62 35 113 35q23 0 99.5 -12.5t97.5 -12.5q66 0 149 87z" />
    <glyph glyph-name="Eta" unicode="&#x397;" horiz-adv-x="961" 
d="M870 746l-4 -42q-107 0 -107 -67v-516q0 -74 131 -91q63 0 63 -44q0 -40 -57 -40q-58 0 -75 54h-315l4 41q105 0 105 69v230q-64 6 -135 6q-75 0 -151 -7v-218q0 -36 26 -53.5t93 -25.5l-5 -42h-369l4 41q107 0 107 69v515q0 73 -132 91q-63 0 -63 44q0 40 57 40
q60 0 75 -54h318l-4 -42q-107 0 -107 -67v-214q74 -7 146 -7q75 0 140 9v200q0 36 -26 53t-93 26l4 42h370z" />
    <glyph glyph-name="Eta" unicode="&#x41d;" horiz-adv-x="961" 
d="M870 746l-4 -42q-107 0 -107 -67v-516q0 -74 131 -91q63 0 63 -44q0 -40 -57 -40q-58 0 -75 54h-315l4 41q105 0 105 69v230q-64 6 -135 6q-75 0 -151 -7v-218q0 -36 26 -53.5t93 -25.5l-5 -42h-369l4 41q107 0 107 69v515q0 73 -132 91q-63 0 -63 44q0 40 57 40
q60 0 75 -54h318l-4 -42q-107 0 -107 -67v-214q74 -7 146 -7q75 0 140 9v200q0 36 -26 53t-93 26l4 42h370z" />
    <glyph glyph-name="Theta" unicode="&#x398;" horiz-adv-x="753" 
d="M182 569q-40 -64 -40 -129q0 -109 90 -206q55 -59 129.5 -95t137.5 -36q49 0 87 24q33 65 33 146q0 120 -77 221q-41 55 -98 87t-122 32q-64 0 -140 -44zM401 764q141 -73 217 -170q89 -113 89 -246q0 -140 -97 -235t-242 -124q-140 53 -223 139q-99 102 -99 234
q0 83 42 152.5t116 126t197 123.5zM545 416l-38 -115q-25 15 -58 15h-133q-44 0 -70 -16l-22 12l39 114q26 -15 57 -15h133q46 0 70 16z" />
    <glyph glyph-name="Lambda" unicode="&#x39b;" horiz-adv-x="835" 
d="M466 746l308 -681q11 -24 42 -30l-4 -35h-322l4 43h15q36 0 47 14t11 46t-13 64l-131 318q-15 36 -33 36q-17 0 -32 -35q-82 -194 -157 -327q-6 -11 -15 -26t-14 -23.5t-10 -18t-7 -16t-2 -11.5q0 -21 31 -21h27l-4 -43h-192l4 34q23 0 55 29t84 117q65 109 126 247.5
t61 192.5q0 26 -14 50.5t-43 24.5h-22l9 51h191z" />
    <glyph glyph-name="Xi" unicode="&#x39e;" horiz-adv-x="677" 
d="M648 -34l-31 -12q-12 24 -33 35t-66 11h-401q-44 0 -70 -14l-19 10l66 162q23 -13 53 -13h320q93 0 134 -45.5t47 -133.5zM668 746l-73 -168h-16q-1 14 -13 22t-27 8h-355q-83 0 -121 -76l-21 10q24 122 62 163t130 41h434zM544 433l-48 -135q-32 18 -70 18h-164
q-56 0 -86 -19l-27 13l47 135q31 -17 71 -17h164q56 0 86 19z" />
    <glyph glyph-name="Pi" unicode="&#x3a0;" horiz-adv-x="769" 
d="M734 746l-4 -44q-53 -1 -53 -68v-479q0 -114 72 -116l-4 -39h-277l4 46q58 0 58 100v470q0 24 -21 42.5t-70 18.5h-109q-49 0 -70 -18.5t-21 -42.5v-470q0 -100 62 -100l-4 -46h-277l4 39q68 1 68 116v479q0 66 -57 68l4 44h695z" />
    <glyph glyph-name="Pi" unicode="&#x41f;" horiz-adv-x="769" 
d="M734 746l-4 -44q-53 -1 -53 -68v-479q0 -114 72 -116l-4 -39h-277l4 46q58 0 58 100v470q0 24 -21 42.5t-70 18.5h-109q-49 0 -70 -18.5t-21 -42.5v-470q0 -100 62 -100l-4 -46h-277l4 39q68 1 68 116v479q0 66 -57 68l4 44h695z" />
    <glyph glyph-name="Sigma" unicode="&#x3a3;" horiz-adv-x="676" 
d="M634 207l29 -22q-24 -51 -40 -79t-42 -58t-60.5 -43t-81.5 -13q-21 0 -113.5 6t-135.5 6q-69 0 -147 -17l-24 59q41 25 137.5 121t134.5 148q-116 91 -257 280l4 28q56 14 172.5 73t166.5 59q191 0 269 -26q-34 -45 -74 -154q-210 83 -331 83q24 -87 67 -146t133 -131
q-6 -10 -134 -138t-132 -133q62 35 113 35q23 0 99.5 -12.5t97.5 -12.5q66 0 149 87z" />
    <glyph glyph-name="Tau" unicode="&#x3a4;" horiz-adv-x="742" 
d="M29 566l-28 18q79 166 437 166q78 0 311 -19q-52 -75 -76 -156q-130 31 -229 45v-508q0 -65 59 -80l-4 -32h-256l4 32q52 14 52 82v520q-13 1 -37 1q-176 0 -233 -69z" />
    <glyph glyph-name="Tau" unicode="&#x422;" horiz-adv-x="742" 
d="M29 566l-28 18q79 166 437 166q78 0 311 -19q-52 -75 -76 -156q-130 31 -229 45v-508q0 -65 59 -80l-4 -32h-256l4 32q52 14 52 82v520q-13 1 -37 1q-176 0 -233 -69z" />
    <glyph glyph-name="Upsilon" unicode="&#x3a5;" horiz-adv-x="613" 
d="M269 647l-9 22q63 34 89 82q4 0 8.5 0.5t10.5 0.5q25 0 53 -6t56.5 -20.5t51.5 -35t37.5 -52t14.5 -68.5q0 -71 -50 -136.5t-144 -106.5v-128q0 -88 87 -132v-61q-87 24 -141 24q-81 0 -138 -43l-28 41q69 42 69 104v186q-67 42 -101.5 107t-43.5 132q-10 76 -22.5 98.5
t-62.5 52.5v38h170q31 -23 42 -54.5t28 -133.5q14 -85 41 -134.5t74 -67.5q47 29 65.5 73.5t18.5 84.5q0 58 -35 100t-90 42q-24 0 -51 -9z" />
    <glyph glyph-name="Upsilon" unicode="&#x4ae;" horiz-adv-x="613" 
d="M269 647l-9 22q63 34 89 82q4 0 8.5 0.5t10.5 0.5q25 0 53 -6t56.5 -20.5t51.5 -35t37.5 -52t14.5 -68.5q0 -71 -50 -136.5t-144 -106.5v-128q0 -88 87 -132v-61q-87 24 -141 24q-81 0 -138 -43l-28 41q69 42 69 104v186q-67 42 -101.5 107t-43.5 132q-10 76 -22.5 98.5
t-62.5 52.5v38h170q31 -23 42 -54.5t28 -133.5q14 -85 41 -134.5t74 -67.5q47 29 65.5 73.5t18.5 84.5q0 58 -35 100t-90 42q-24 0 -51 -9z" />
    <glyph glyph-name="Phi" unicode="&#x3a6;" horiz-adv-x="948" 
d="M402 166v394q-100 0 -178 -29q-27 -74 -27 -143q0 -42 11 -79.5t33.5 -70t64 -52t96.5 -20.5zM657 746l-4 -42q-55 0 -81 -18.5t-26 -59.5q153 0 252.5 -78t119.5 -185q-44 -117 -136 -184t-236 -68q2 -37 35.5 -59t95.5 -22q63 0 63 -44q0 -40 -57 -40q-58 0 -75 54
h-317l4 41q104 0 107 70q-144 1 -236 68t-136 184q20 107 119.5 185t252.5 78q0 72 -132 90q-63 0 -63 44q0 40 57 40q59 0 75 -54h318zM546 561v-394q104 0 185 48q29 67 29 148q0 86 -53.5 141.5t-160.5 56.5z" />
    <glyph glyph-name="Phi" unicode="&#x424;" horiz-adv-x="948" 
d="M402 166v394q-100 0 -178 -29q-27 -74 -27 -143q0 -42 11 -79.5t33.5 -70t64 -52t96.5 -20.5zM657 746l-4 -42q-55 0 -81 -18.5t-26 -59.5q153 0 252.5 -78t119.5 -185q-44 -117 -136 -184t-236 -68q2 -37 35.5 -59t95.5 -22q63 0 63 -44q0 -40 -57 -40q-58 0 -75 54
h-317l4 41q104 0 107 70q-144 1 -236 68t-136 184q20 107 119.5 185t252.5 78q0 72 -132 90q-63 0 -63 44q0 40 57 40q59 0 75 -54h318zM546 561v-394q104 0 185 48q29 67 29 148q0 86 -53.5 141.5t-160.5 56.5z" />
    <glyph glyph-name="Psi" unicode="&#x3a8;" horiz-adv-x="943" 
d="M943 639l-10 -44q-67 -11 -83 -43.5t-22 -143.5q-4 -69 -44 -113.5t-96 -62.5t-136 -24v-96q0 -65 58 -80l-4 -32h-256l4 32q52 14 52 82v90q-163 2 -235 51q-38 25 -52 66t-24 133q-10 107 -58 107q-18 0 -36 -8l6 38l177 57q14 -4 24.5 -11t17.5 -19t11 -22t6.5 -29
t3.5 -29t2 -33t2 -31q7 -105 40.5 -152t114.5 -59v377q0 64 -48 66l4 40h245l-4 -40q-51 -10 -51 -82v-362q116 9 164 44q3 20 3 37q0 41 -22 101.5t-22 94.5q0 55 40 82z" />
    <glyph glyph-name="uni03A9" unicode="&#x3a9;" horiz-adv-x="750" 
d="M700 207l29 -22q-41 -96 -84 -140.5t-109 -44.5h-120l13 72q58 19 98 62.5t55 89.5t15 93q0 119 -95.5 207.5t-203.5 88.5q-63 0 -138 -44q-40 -64 -40 -119q0 -93 75.5 -214.5t159.5 -167.5l-17 -68h-159q-71 0 -145 -23l33 96q68 25 145 25q-92 57 -140 119.5
t-48 154.5q0 118 85 205t270 187q165 -89 235.5 -188t70.5 -210q0 -134 -95 -239q27 8 48 23t39 34t23 23z" />
    <glyph glyph-name="Upsilondieresis" unicode="&#x3ab;" horiz-adv-x="613" 
d="M269 647l-9 22q63 34 89 82q4 0 8.5 0.5t10.5 0.5q25 0 53 -6t56.5 -20.5t51.5 -35t37.5 -52t14.5 -68.5q0 -71 -50 -136.5t-144 -106.5v-128q0 -88 87 -132v-61q-87 24 -141 24q-81 0 -138 -43l-28 41q69 42 69 104v186q-67 42 -101.5 107t-43.5 132q-10 76 -22.5 98.5
t-62.5 52.5v38h170q31 -23 42 -54.5t28 -133.5q14 -85 41 -134.5t74 -67.5q47 29 65.5 73.5t18.5 84.5q0 58 -35 100t-90 42q-24 0 -51 -9zM489 993v-122l-131 -59v124zM289 973v-122l-131 -59v124z" />
    <glyph glyph-name="alphatonos" unicode="&#x3ac;" horiz-adv-x="592" 
d="M426 505h111q0 -195 -70 -327q30 -64 101 -107l-4 -24l-78 -56l-102 80q-69 -61 -161 -84q-187 67 -187 251q0 86 44.5 144.5t151.5 134.5q53 -15 92.5 -50t58.5 -70t37 -84q6 77 6 192zM141 382q-18 -35 -18 -84q0 -81 42.5 -138.5t105.5 -57.5q50 0 95 27
q-50 151 -90 208.5t-83 57.5q-20 0 -52 -13zM354 766l-55 -243h-61v243h116z" />
    <glyph glyph-name="epsilontonos" unicode="&#x3ad;" horiz-adv-x="400" 
d="M368 409l-89 -77q-5 5 -20 20.5t-23.5 23t-22.5 19t-28 18t-29 10.5q-9 -36 -9 -51q0 -79 132 -89l-5 -47q-12 0 -37.5 1t-33.5 1q-49 0 -49 -59q0 -25 10.5 -42t28 -24t32 -10t30.5 -3q49 0 112 37l18 -19q-23 -42 -75.5 -76t-121.5 -55q-30 14 -50.5 26t-43.5 30
t-35.5 41t-12.5 49q0 30 17 62t53 53q-39 28 -54.5 46.5t-15.5 45.5q0 97 183 177q100 -42 139 -108zM310 766l-55 -243h-61v243h116z" />
    <glyph glyph-name="etatonos" unicode="&#x3ae;" horiz-adv-x="545" 
d="M205 367v-367h-131v335q0 58 -51 63l4 18l108 95q61 -18 70 -67q95 20 157 67q80 -24 111.5 -85t31.5 -169q0 -99 -20 -223t-57 -222h-156q109 265 109 457q0 62 -21 89.5t-86 27.5q-37 0 -69 -19zM352 766l-55 -243h-61v243h116z" />
    <glyph glyph-name="iotatonos" unicode="&#x3af;" horiz-adv-x="295" 
d="M205 414v-278q0 -65 64 -65l-4 -24l-89 -56l-102 76v272q0 58 -51 63l4 18l94 95q37 -8 60.5 -35.5t23.5 -65.5zM205 766l-55 -243h-61v243h116z" />
    <glyph glyph-name="upsilondieresistonos" unicode="&#x3b0;" horiz-adv-x="522" 
d="M232 413l-8 22q59 31 83 81q12 3 28 3q76 0 117 -66t41 -158q0 -73 -24.5 -138.5t-78.5 -114.5t-128 -59q-47 12 -79.5 36t-49.5 46.5t-27.5 65.5t-12.5 66t-5 75q-1 11 -1 16q-5 88 -18 120.5t-61 58.5l4 38h135q10 -11 18 -22t13.5 -19t9 -21t5.5 -19.5t3.5 -24
t1.5 -24.5t0.5 -30t0.5 -32q1 -52 6 -87.5t18 -70t39 -52t65 -17.5q18 0 37 4q44 41 44 133q0 78 -34 138t-93 60q-17 0 -49 -8zM185 722v-122l-131 -59v124zM332 766l-55 -243h-61v243h116zM467 762v-122l-131 -59v124z" />
    <glyph glyph-name="alpha" unicode="&#x3b1;" horiz-adv-x="582" 
d="M426 505h111q0 -195 -70 -327q30 -64 101 -107l-4 -24l-78 -56l-102 80q-69 -61 -161 -84q-187 67 -187 251q0 86 44.5 144.5t151.5 134.5q53 -15 92.5 -50t58.5 -70t37 -84q6 77 6 192zM141 382q-18 -35 -18 -84q0 -81 42.5 -138.5t105.5 -57.5q50 0 95 27
q-50 151 -90 208.5t-83 57.5q-20 0 -52 -13z" />
    <glyph glyph-name="beta" unicode="&#x3b2;" horiz-adv-x="573" 
d="M4 549l4 18q149 143 283 186q31 -56 86.5 -97.5t105.5 -54.5q0 -31 -33.5 -81.5t-63.5 -80.5q74 -48 108.5 -97t34.5 -115q0 -92 -57 -159.5t-118 -81.5q-86 21 -156 83v-257h-131v691q0 20 -17.5 32t-45.5 14zM198 531v-382q74 -53 146 -53q21 0 51 7q7 42 7 68
q0 136 -154 170l-12 28q41 29 75 68t43 68q-22 51 -63 83t-87 32q-17 0 -26 -3q20 -42 20 -86z" />
    <glyph glyph-name="gamma" unicode="&#x3b3;" horiz-adv-x="522" 
d="M232 413l-8 22q59 31 83 81q12 3 28 3q61 0 103.5 -46t42.5 -138q0 -80 -38.5 -150t-121.5 -146v-227h-131v232q-54 66 -75.5 120t-27.5 124q-8 92 -20 123t-59 56l4 38h135q36 -38 46.5 -74t18.5 -122q4 -42 7.5 -64.5t13.5 -52.5t29.5 -54t51.5 -49q79 75 79 173
q0 63 -32 111t-81 48q-16 0 -48 -8z" />
    <glyph glyph-name="gamma" unicode="&#x4af;" horiz-adv-x="522" 
d="M232 413l-8 22q59 31 83 81q12 3 28 3q61 0 103.5 -46t42.5 -138q0 -80 -38.5 -150t-121.5 -146v-227h-131v232q-54 66 -75.5 120t-27.5 124q-8 92 -20 123t-59 56l4 38h135q36 -38 46.5 -74t18.5 -122q4 -42 7.5 -64.5t13.5 -52.5t29.5 -54t51.5 -49q79 75 79 173
q0 63 -32 111t-81 48q-16 0 -48 -8z" />
    <glyph glyph-name="delta" unicode="&#x3b4;" 
d="M365 602q-16 39 -60 59t-95 20q-19 0 -37 -3q-19 -34 -19 -59q0 -46 84 -97q13 -8 49.5 -28t63.5 -37t47 -35q38 -35 60.5 -89.5t22.5 -106.5q0 -91 -66.5 -156.5t-161.5 -82.5q-101 37 -159 101.5t-58 153.5q0 61 29 113t87 82q-108 65 -108 140q0 56 62.5 98.5
t192.5 91.5q111 -45 179 -101q-51 -13 -113 -64zM183 423q-15 -6 -37.5 -44.5t-22.5 -78.5q0 -75 76 -143.5t146 -68.5q27 0 56 15q6 19 6 46q0 118 -91 197q-48 42 -133 77z" />
    <glyph glyph-name="epsilon" unicode="&#x3b5;" horiz-adv-x="400" 
d="M368 409l-89 -77q-5 5 -20 20.5t-23.5 23t-22.5 19t-28 18t-29 10.5q-9 -36 -9 -51q0 -79 132 -89l-5 -47q-12 0 -37.5 1t-33.5 1q-49 0 -49 -59q0 -25 10.5 -42t28 -24t32 -10t30.5 -3q49 0 112 37l18 -19q-23 -42 -75.5 -76t-121.5 -55q-30 14 -50.5 26t-43.5 30
t-35.5 41t-12.5 49q0 30 17 62t53 53q-39 28 -54.5 46.5t-15.5 45.5q0 97 183 177q100 -42 139 -108z" />
    <glyph glyph-name="zeta" unicode="&#x3b6;" horiz-adv-x="438" 
d="M421 769l17 -22q-6 -22 -16.5 -35t-39.5 -38t-52 -48q-95 -97 -126.5 -184t-31.5 -180q0 -96 26.5 -137t95.5 -41q55 0 93 20q31 -67 31 -131q0 -62 -66.5 -105t-153.5 -61q-121 41 -167 99q51 19 97 61q52 -98 155 -98q29 0 39.5 7.5t10.5 28.5q0 77 -102 105
q-38 10 -70.5 28t-63 46t-48 71.5t-17.5 96.5q0 42 13 84.5t28 72t49.5 72t52.5 62t64.5 65.5t59.5 60q-18 -6 -67 -6q-26 0 -65.5 4.5t-48.5 4.5q-42 0 -95 -27l-23 21q37 53 69 77.5t73 35.5q27 -18 82 -30.5t93 -12.5q56 0 104 34z" />
    <glyph glyph-name="eta" unicode="&#x3b7;" horiz-adv-x="545" 
d="M205 367v-367h-131v335q0 58 -51 63l4 18l108 95q61 -18 70 -67q95 20 157 67q80 -24 111.5 -85t31.5 -169q0 -99 -20 -223t-57 -222h-156q109 265 109 457q0 62 -21 89.5t-86 27.5q-37 0 -69 -19z" />
    <glyph glyph-name="theta" unicode="&#x3b8;" 
d="M275 767q206 -138 206 -421q0 -159 -59.5 -242.5t-168.5 -116.5q-217 84 -217 370q0 79 15 139.5t48.5 108.5t73.5 84t102 78zM330 318h-119q-37 0 -60 -9q39 -221 189 -221q16 0 34 3q9 57 9 133q0 36 -3 84q-23 10 -50 10zM198 402h110q37 0 58 9q-43 217 -175 217
q-19 0 -29 -2q-20 -107 -20 -213q23 -11 56 -11z" />
    <glyph glyph-name="kappa" unicode="&#x3ba;" horiz-adv-x="524" 
d="M524 456l-69 -83q-16 15 -38 15q-48 0 -131 -95q196 -20 214 -293h-136q0 236 -159 236v-236h-131v335q0 58 -51 63l4 18l106 95q34 -7 53 -29t19 -47v-136q80 50 194 214z" />
    <glyph glyph-name="kappa" unicode="&#x43a;" horiz-adv-x="524" 
d="M524 456l-69 -83q-16 15 -38 15q-48 0 -131 -95q196 -20 214 -293h-136q0 236 -159 236v-236h-131v335q0 58 -51 63l4 18l106 95q34 -7 53 -29t19 -47v-136q80 50 194 214z" />
    <glyph glyph-name="lambda" unicode="&#x3bb;" horiz-adv-x="594" 
d="M186 762l139 -79q24 -34 45.5 -78.5t35 -79t28.5 -91t20.5 -80t17.5 -81t13 -61.5q30 -140 85 -179l-4 -33h-134q-48 54 -77 180q-2 10 -22 117t-38 162q-140 -201 -140 -375q0 -44 10 -84h-142q18 325 250 512q-29 63 -64.5 97t-92.5 40l-8 18z" />
    <glyph glyph-name="uni03BC" unicode="&#x3bc;" horiz-adv-x="572" 
d="M495 414v-244q0 -58 51 -63l-4 -18l-109 -95q-32 9 -47 23.5t-18 44.5q-15 -25 -43 -42t-58 -17q-63 0 -101 66q10 -145 66 -257h-158v527q0 58 -51 63l4 18l94 95q37 -8 60.5 -35.5t23.5 -65.5v-200q0 -54 27 -84.5t67 -30.5q33 0 65 23v217q0 58 -51 63l4 18l94 95
q37 -8 60.5 -35.5t23.5 -65.5z" />
    <glyph glyph-name="nu" unicode="&#x3bd;" horiz-adv-x="522" 
d="M232 413l-8 22q59 31 83 81q12 3 28 3q61 0 103.5 -46t42.5 -138q0 -94 -53 -175.5t-174 -176.5h-9q-59 91 -95 169t-50 125t-34 135q-9 38 -58 55l4 38h123q31 -16 44 -72q22 -103 44.5 -161t93.5 -180q76 72 76 169q0 64 -32 112t-81 48q-16 0 -48 -8z" />
    <glyph glyph-name="xi" unicode="&#x3be;" horiz-adv-x="429" 
d="M395 769l17 -22q0 -11 -6 -20.5t-21.5 -18.5t-26.5 -14.5t-37 -16.5t-37 -16q-60 -27 -95 -62t-35 -90q0 -41 27.5 -64t100.5 -29l-5 -47q-10 -1 -25 -1q-16 0 -38 3q-28 -15 -40.5 -41.5t-12.5 -76.5q0 -168 136 -168q53 0 90 19q31 -67 31 -131q0 -62 -66.5 -105
t-153.5 -61q-121 41 -167 99q51 19 97 61q31 -59 67 -78.5t78 -19.5q37 0 48.5 9.5t11.5 28.5q0 75 -102 103q-32 9 -63.5 25t-64 41.5t-52.5 66t-20 88.5q0 98 81 153q-75 38 -75 110q0 67 69 121q46 36 109 55q-23 -4 -55 0q-20 2 -33 2q-49 0 -104 -28l-23 21
q37 53 69 77.5t73 35.5q64 -43 139 -43q66 0 114 34z" />
    <glyph glyph-name="pi" unicode="&#x3c0;" horiz-adv-x="605" 
d="M605 505l-25 -89h-108q23 -23 23 -58v-222q0 -65 64 -65l-4 -24l-89 -56l-102 76v293q0 56 -59 56h-113q23 -23 23 -58v-358h-131v363q0 53 -42 53h-31l25 89h569z" />
    <glyph glyph-name="rho" unicode="&#x3c1;" horiz-adv-x="520" 
d="M215 409q-61 -72 -61 -151q0 -76 51 -121t114 -45q15 0 33 3q17 51 17 105q0 81 -41.5 129.5t-112.5 79.5zM193 -188h-147q-10 248 -10 286q0 128 23 204t69.5 122t138.5 93q87 -36 152 -115.5t65 -171.5q0 -43 -14.5 -78.5t-46.5 -66t-60.5 -51.5t-77.5 -51
q-33 12 -83 52t-63 76q4 -137 54 -299z" />
    <glyph glyph-name="uni03C2" unicode="&#x3c2;" horiz-adv-x="412" 
d="M366 409l-85 -77q-52 48 -143 70q-2 -28 -2 -47q0 -46 7 -89.5t23.5 -86t48 -68.5t75.5 -26q40 0 77 19q31 -67 31 -133q0 -62 -59.5 -105t-140.5 -59q-121 41 -167 99q51 19 97 61q31 -59 67 -78.5t78 -19.5q25 0 32.5 6.5t7.5 26.5q0 28 -9 48.5t-26.5 32.5t-28.5 17
t-28 10q-30 9 -47.5 15.5t-47 24t-46.5 38.5t-30.5 58t-13.5 84q0 48 12 85t42 72.5t60 61t87 68.5q98 -58 129 -108z" />
    <glyph glyph-name="sigma" unicode="&#x3c3;" horiz-adv-x="536" 
d="M520 560l16 -20q-10 -53 -18 -80t-23 -44.5t-33 -22t-54 -6.5q73 -75 73 -163q0 -89 -66.5 -154.5t-161.5 -82.5q-100 37 -158.5 102t-58.5 151q0 44 14.5 79t50.5 68t70.5 56.5t99.5 61.5q53 -8 89 -8q90 0 160 63zM136 373q-13 -27 -13 -61q0 -88 75 -156t147 -68
q27 0 56 15q6 19 6 44q0 94 -68 163.5t-154 69.5q-27 0 -49 -7z" />
    <glyph glyph-name="tau" unicode="&#x3c4;" horiz-adv-x="455" 
d="M455 505l-25 -89h-158q23 -23 23 -58v-222q0 -65 64 -65l-4 -24l-89 -56l-102 76v293q0 56 -59 56h-98l25 89h423z" />
    <glyph glyph-name="tau" unicode="&#x442;" horiz-adv-x="455" 
d="M455 505l-25 -89h-158q23 -23 23 -58v-222q0 -65 64 -65l-4 -24l-89 -56l-102 76v293q0 56 -59 56h-98l25 89h423z" />
    <glyph glyph-name="upsilon" unicode="&#x3c5;" horiz-adv-x="522" 
d="M232 413l-8 22q59 31 83 81q12 3 28 3q76 0 117 -66t41 -158q0 -73 -24.5 -138.5t-78.5 -114.5t-128 -59q-47 12 -79.5 36t-49.5 46.5t-27.5 65.5t-12.5 66t-5 75q-1 11 -1 16q-5 88 -18 120.5t-61 58.5l4 38h135q10 -11 18 -22t13.5 -19t9 -21t5.5 -19.5t3.5 -24
t1.5 -24.5t0.5 -30t0.5 -32q1 -52 6 -87.5t18 -70t39 -52t65 -17.5q18 0 37 4q44 41 44 133q0 78 -34 138t-93 60q-17 0 -49 -8z" />
    <glyph glyph-name="phi" unicode="&#x3c6;" horiz-adv-x="723" 
d="M427 753v-244q112 -19 186 -81.5t74 -165.5q0 -72 -39.5 -128.5t-96 -87t-124.5 -45.5v-189h-131v183q-113 12 -187 83t-74 167q0 92 71 163.5t190 95.5v73q0 58 -51 63l4 18zM296 103v322q-95 -12 -157 -46q-1 -10 -1 -30q0 -85 44 -150.5t114 -95.5zM427 402v-322
q74 0 157 47q1 10 1 29q0 78 -42 143.5t-116 102.5z" />
    <glyph glyph-name="phi" unicode="&#x444;" horiz-adv-x="723" 
d="M427 753v-244q112 -19 186 -81.5t74 -165.5q0 -72 -39.5 -128.5t-96 -87t-124.5 -45.5v-189h-131v183q-113 12 -187 83t-74 167q0 92 71 163.5t190 95.5v73q0 58 -51 63l4 18zM296 103v322q-95 -12 -157 -46q-1 -10 -1 -30q0 -85 44 -150.5t114 -95.5zM427 402v-322
q74 0 157 47q1 10 1 29q0 78 -42 143.5t-116 102.5z" />
    <glyph glyph-name="chi" unicode="&#x3c7;" horiz-adv-x="501" 
d="M227 433l36 -123q74 144 169 205q20 -52 47 -95q-117 -92 -185 -205l102 -287q14 -39 94 -41l11 -24l-91 -56l-141 76l-52 195q-74 -145 -105 -188q-42 -58 -90 -78l-10 21q43 29 81.5 102.5t95.5 219.5l-58 184q-18 58 -112 63l-8 18l78 95z" />
    <glyph glyph-name="psi" unicode="&#x3c8;" horiz-adv-x="702" 
d="M702 505l-4 -38q-51 -28 -61.5 -56.5t-11.5 -114.5q-3 -251 -199 -297v-187h-131v178q-105 8 -154 68q-22 27 -34 69t-14 68.5t-6 92.5q-6 106 -19.5 135t-59.5 34l4 38l135 18q14 -15 24 -31t15 -28.5t8 -33t3.5 -31.5t1 -37t0.5 -39q4 -111 27.5 -163.5t68.5 -71.5v499
q0 58 -51 63l4 18l178 95v-682q60 13 89 40.5t29 85.5q0 39 -18 105.5t-18 93.5q0 56 37 90z" />
    <glyph glyph-name="omega" unicode="&#x3c9;" horiz-adv-x="770" 
d="M469 413l-8 22q59 31 83 81q12 3 28 3q77 0 119.5 -66t42.5 -159q0 -72 -25.5 -138t-80.5 -114.5t-129 -58.5q-86 36 -121 117q-33 -50 -70 -78t-92 -35q-86 29 -133 99t-47 162q0 181 195 271l55 -25q-133 -52 -133 -204q0 -92 38.5 -148.5t98.5 -56.5q15 0 23 1
q37 56 37 128q0 22 -6 74l92 25q1 -52 6 -87.5t18 -70t39 -52t65 -17.5q18 0 37 4q44 41 44 133q0 78 -34 138t-93 60q-17 0 -49 -8z" />
    <glyph glyph-name="upsilondieresis" unicode="&#x3cb;" horiz-adv-x="522" 
d="M232 413l-8 22q59 31 83 81q12 3 28 3q76 0 117 -66t41 -158q0 -73 -24.5 -138.5t-78.5 -114.5t-128 -59q-47 12 -79.5 36t-49.5 46.5t-27.5 65.5t-12.5 66t-5 75q-1 11 -1 16q-5 88 -18 120.5t-61 58.5l4 38h135q10 -11 18 -22t13.5 -19t9 -21t5.5 -19.5t3.5 -24
t1.5 -24.5t0.5 -30t0.5 -32q1 -52 6 -87.5t18 -70t39 -52t65 -17.5q18 0 37 4q44 41 44 133q0 78 -34 138t-93 60q-17 0 -49 -8zM426 752v-122l-131 -59v124zM226 732v-122l-131 -59v124z" />
    <glyph glyph-name="omicrontonos" unicode="&#x3cc;" 
d="M136 373q-13 -27 -13 -61q0 -88 75 -156t147 -68q27 0 56 15q6 19 6 44q0 94 -68 163.5t-154 69.5q-27 0 -49 -7zM275 517q206 -122 206 -287q0 -95 -64.5 -159.5t-163.5 -83.5q-98 36 -157.5 100.5t-59.5 151.5q0 83 57 144t182 134zM357 766l-55 -243h-61v243h116z" />
    <glyph glyph-name="upsilontonos" unicode="&#x3cd;" horiz-adv-x="522" 
d="M232 413l-8 22q59 31 83 81q12 3 28 3q76 0 117 -66t41 -158q0 -73 -24.5 -138.5t-78.5 -114.5t-128 -59q-47 12 -79.5 36t-49.5 46.5t-27.5 65.5t-12.5 66t-5 75q-1 11 -1 16q-5 88 -18 120.5t-61 58.5l4 38h135q10 -11 18 -22t13.5 -19t9 -21t5.5 -19.5t3.5 -24
t1.5 -24.5t0.5 -30t0.5 -32q1 -52 6 -87.5t18 -70t39 -52t65 -17.5q18 0 37 4q44 41 44 133q0 78 -34 138t-93 60q-17 0 -49 -8zM327 766l-55 -243h-61v243h116z" />
    <glyph glyph-name="omegatonos" unicode="&#x3ce;" horiz-adv-x="770" 
d="M469 413l-8 22q59 31 83 81q12 3 28 3q77 0 119.5 -66t42.5 -159q0 -72 -25.5 -138t-80.5 -114.5t-129 -58.5q-86 36 -121 117q-33 -50 -70 -78t-92 -35q-86 29 -133 99t-47 162q0 181 195 271l55 -25q-133 -52 -133 -204q0 -92 38.5 -148.5t98.5 -56.5q15 0 23 1
q37 56 37 128q0 22 -6 74l92 25q1 -52 6 -87.5t18 -70t39 -52t65 -17.5q18 0 37 4q44 41 44 133q0 78 -34 138t-93 60q-17 0 -49 -8zM461 766l-55 -243h-61v243h116z" />
    <glyph glyph-name="uni0400" unicode="&#x400;" horiz-adv-x="676" 
d="M634 207l29 -22q-24 -51 -40 -79t-42 -58t-60.5 -43t-81.5 -13q-21 0 -113.5 6t-135.5 6q-69 0 -147 -17l-23 38q64 60 64 147v301q0 78 -50 104l4 28q52 13 119 51.5t124 68.5t96 30q191 0 269 -26q-34 -45 -74 -154q-210 83 -331 83q-11 -68 -11 -134v-108l310 30
q-48 -82 -84 -165h-18q-2 21 -18.5 35t-44.5 15l-145 6v-88q0 -71 -55 -139q62 35 113 35q23 0 99.5 -12.5t97.5 -12.5q66 0 149 87zM298 1007l152 -190l-56 -38l-192 157z" />
    <glyph glyph-name="uni0401" unicode="&#x401;" horiz-adv-x="676" 
d="M634 207l29 -22q-24 -51 -40 -79t-42 -58t-60.5 -43t-81.5 -13q-21 0 -113.5 6t-135.5 6q-69 0 -147 -17l-23 38q64 60 64 147v301q0 78 -50 104l4 28q52 13 119 51.5t124 68.5t96 30q191 0 269 -26q-34 -45 -74 -154q-210 83 -331 83q-11 -68 -11 -134v-108l310 30
q-48 -82 -84 -165h-18q-2 21 -18.5 35t-44.5 15l-145 6v-88q0 -71 -55 -139q62 35 113 35q23 0 99.5 -12.5t97.5 -12.5q66 0 149 87zM505 993v-122l-131 -59v124zM305 973v-122l-131 -59v124z" />
    <glyph glyph-name="uni0402" unicode="&#x402;" horiz-adv-x="831" 
d="M29 566l-28 18q79 166 437 166q78 0 311 -19q-52 -75 -76 -156q-178 44 -313 55v-149q73 30 150 30q134 0 200.5 -75.5t66.5 -198.5q0 -375 -619 -430l4 31q134 33 224 76t136.5 96t64.5 107.5t18 124.5q0 102 -33 147t-97 45q-39 0 -115 -30v-292q0 -65 59 -80l-4 -32
h-256l4 32q52 14 52 82v520q-136 -8 -186 -68z" />
    <glyph glyph-name="uni0403" unicode="&#x403;" horiz-adv-x="625" 
d="M230 524v-325q0 -88 87 -132v-61q-87 24 -136 24q-81 0 -138 -43l-28 41q69 42 69 104v341q0 78 -50 104l4 28q45 11 97.5 38t90 50.5t90.5 42.5t106 19q104 0 203 -26q-41 -55 -69 -147q-111 44 -180 60t-135 16q-11 -68 -11 -134zM404 1007l72 -87l-183 -141l-44 43z
" />
    <glyph glyph-name="uni0409" unicode="&#x409;" horiz-adv-x="1154" 
d="M743 746l-4 -44q-53 -1 -53 -68v-180q35 0 72.5 11t59.5 27q120 -6 188.5 -61t117.5 -157q-8 -46 -33 -92t-64.5 -88.5t-100.5 -74t-134 -43.5q-20 8 -69 26.5t-71 26t-57 19t-62 15.5t-52 4l-18 34q76 68 76 135v400q0 24 -21 42.5t-70 18.5h-35q-37 0 -55 -19t-18 -42
v-68q0 -297 -51 -410q-52 -117 -175 -172l-114 92l86 95q27 -28 50 -28q68 0 103 97q39 105 39 325v67q0 66 -60 68l4 44h521zM686 401v-290q7 -28 38 -43t67 -15q33 0 69.5 13t60.5 33q30 74 30 150q0 93 -35.5 139t-112.5 58q-18 -14 -51.5 -28.5t-65.5 -16.5z" />
    <glyph glyph-name="uni040A" unicode="&#x40a;" horiz-adv-x="1230" 
d="M870 746l-4 -42q-107 0 -107 -67v-183q37 0 75 11t60 27q120 -6 188.5 -61t117.5 -157q-8 -46 -33 -92t-64.5 -88.5t-100.5 -74t-134 -43.5q-20 8 -69 26.5t-71 26t-57 19t-62 15.5t-52 4l-18 34q76 68 76 134v105q-64 6 -135 6q-75 0 -151 -7v-218q0 -36 26 -53.5
t93 -25.5l-5 -42h-369l4 41q107 0 107 69v515q0 73 -132 91q-63 0 -63 44q0 40 57 40q60 0 75 -54h318l-4 -42q-107 0 -107 -67v-214q74 -7 146 -7q75 0 140 9v200q0 36 -26 53t-93 26l4 42h370zM759 401v-276q0 -35 33.5 -53.5t74.5 -18.5q33 0 69.5 13t60.5 33
q30 74 30 150q0 93 -35.5 139t-112.5 58q-18 -14 -52.5 -28.5t-67.5 -16.5z" />
    <glyph glyph-name="uni040B" unicode="&#x40b;" horiz-adv-x="831" 
d="M29 566l-28 18q79 166 437 166q78 0 311 -19q-52 -75 -76 -156q-178 44 -313 55v-149q73 30 150 30q134 0 200.5 -75.5t66.5 -200.5q0 -51 -9.5 -125.5t-21.5 -109.5h-194l4 32q49 19 49 190q0 112 -29 162t-100 50q-40 0 -116 -30v-292q0 -65 59 -80l-4 -32h-256l4 32
q52 14 52 82v520q-136 -8 -186 -68z" />
    <glyph glyph-name="uni040C" unicode="&#x40c;" horiz-adv-x="702" 
d="M650 668l-84 -89q-23 26 -49 26q-51 0 -121 -97q256 -237 276 -508h-218l4 32q24 20 24 61q0 51 -28.5 114.5t-74.5 113.5q-25 27 -52 44.5t-41 22t-22 4.5q-26 0 -42 -25v-255q0 -65 58 -80l-4 -32h-256l4 32q52 14 52 82v526q0 64 -48 66l4 40h245l-4 -40
q-50 -9 -50 -82v-188q122 67 312 323zM422 1007l72 -87l-183 -141l-44 43z" />
    <glyph glyph-name="uni040D" unicode="&#x40d;" horiz-adv-x="961" 
d="M870 746l-4 -42q-107 0 -107 -67v-516q0 -39 34 -65t97 -26t63 -44q0 -40 -57 -40q-58 0 -75 54h-315l4 41q105 0 105 69l1 335q0 52 -15 52q-13 0 -39 -38l-233 -338q0 -36 26 -53.5t93 -25.5l-5 -42h-369l4 41q107 0 107 69v515q0 41 -39.5 64t-92.5 27q-20 1 -31 3.5
t-21.5 12t-10.5 27.5q0 41 57 41q60 0 75 -54h318l-4 -42q-107 0 -107 -67v-325q0 -52 19 -52q15 0 44 41l223 321q-1 40 -26 56.5t-93 25.5l4 42h370zM422 1007l152 -190l-56 -38l-192 157z" />
    <glyph glyph-name="uni040E" unicode="&#x40e;" horiz-adv-x="717" 
d="M324 607l-4 20q83 48 118 118q13 4 37 4q94 0 155.5 -66t61.5 -189q0 -80 -18 -163.5t-56.5 -167.5t-93 -154t-133 -124.5t-170.5 -77.5q-38 67 -99 67q-51 0 -125 -59l-15 21q90 110 175 110q57 0 121 -56q72 30 140 99q-279 108 -299 430q-4 64 -7.5 94t-14.5 72
t-33 72t-58 59l2 30h158q53 -52 70 -109t29 -180q6 -59 15.5 -99.5t32 -89.5t66 -95t110.5 -92q96 153 96 307q0 94 -52.5 161.5t-141.5 67.5q-36 0 -67 -10zM451 987h88q-13 -88 -58 -146t-124 -58q-78 0 -122 57.5t-58 146.5h90q7 -58 36.5 -103t81.5 -58q59 62 66 161z
" />
    <glyph glyph-name="uni040F" unicode="&#x40f;" horiz-adv-x="739" 
d="M704 746l-4 -44q-53 -1 -53 -68v-479q0 -115 72 -116l-3 -39h-293q6 -121 48 -170l-28 -23q-49 12 -88 64.5t-50 128.5h-285l4 39q68 1 68 116v479q0 66 -57 68l4 44h262l-4 -43q-29 0 -43.5 -22.5t-14.5 -56.5v-458q0 -49 19.5 -72t71.5 -23h79q53 0 72 20.5t19 74.5
v470q0 24 -15 44.5t-47 22.5l4 43h262z" />
    <glyph glyph-name="uni0411" unicode="&#x411;" horiz-adv-x="711" 
d="M243 524v-70q82 3 131 38q66 -4 116 -21.5t85.5 -49.5t58.5 -65t47 -82q-8 -46 -33 -92t-64.5 -88.5t-100.5 -74t-134 -43.5q-20 8 -69 26.5t-71 26t-57 19t-62 15.5t-52 4l-18 34q75 67 75 134v242q0 74 -49 100l4 28q45 11 97.5 38t90 50.5t90.5 42.5t106 19
q104 0 203 -26q-44 -59 -73 -154q-119 47 -184.5 65t-126.5 18q-10 -61 -10 -134zM243 401v-276q0 -35 32.5 -53.5t72.5 -18.5q33 0 69.5 13t60.5 33q30 74 30 149q0 94 -36.5 140t-111.5 58q-54 -40 -117 -45z" />
    <glyph glyph-name="uni0414" unicode="&#x414;" horiz-adv-x="802" 
d="M721 746l-4 -44q-53 -1 -53 -68v-479q0 -58 17.5 -81t69.5 -23q2 -166 49 -221l-28 -23q-49 12 -88 64.5t-50 128.5h-484q-11 -76 -49.5 -128.5t-87.5 -64.5l-13 28q15 17 22.5 51.5t9 66.5t2.5 98q79 22 124.5 70.5t68.5 126.5q29 100 29 319v67q0 66 -60 68l4 44h521z
M426 697h-35q-37 0 -55 -19t-18 -42v-68q0 -214 -35 -343q-34 -126 -103 -174h266q36 0 53.5 26.5t17.5 68.5v490q0 24 -21 42.5t-70 18.5z" />
    <glyph glyph-name="uni0416" unicode="&#x416;" horiz-adv-x="953" 
d="M943 676l-73 -95q-22 25 -39 25q-29 0 -62 -34.5t-87 -110.5q53 -46 88.5 -86t67.5 -94.5t50 -124t23 -156.5h-218l4 32q24 21 24 68q0 37 -5.5 77t-18 85t-39.5 74t-64 29q-29 0 -45 -25v-228q0 -65 58 -80l-4 -32h-256l4 32q52 14 52 82v227q-16 24 -44 24
q-37 0 -64 -29t-39.5 -74t-18 -85t-5.5 -77q0 -47 24 -68l4 -32h-218q5 87 23 156.5t50 124t67.5 94.5t88.5 86q-54 76 -87 110.5t-62 34.5q-17 0 -39 -25l-73 95l149 83q149 -256 244 -323v204q0 64 -48 66l4 40h245l-4 -40q-50 -9 -50 -82v-188q95 67 244 323z" />
    <glyph glyph-name="uni0418" unicode="&#x418;" horiz-adv-x="961" 
d="M870 746l-4 -42q-107 0 -107 -67v-516q0 -39 34 -65t97 -26t63 -44q0 -40 -57 -40q-58 0 -75 54h-315l4 41q105 0 105 69l1 335q0 52 -15 52q-13 0 -39 -38l-233 -338q0 -36 26 -53.5t93 -25.5l-5 -42h-369l4 41q107 0 107 69v515q0 41 -39.5 64t-92.5 27q-20 1 -31 3.5
t-21.5 12t-10.5 27.5q0 41 57 41q60 0 75 -54h318l-4 -42q-107 0 -107 -67v-325q0 -52 19 -52q15 0 44 41l223 321q-1 40 -26 56.5t-93 25.5l4 42h370z" />
    <glyph glyph-name="uni0419" unicode="&#x419;" horiz-adv-x="961" 
d="M870 746l-4 -42q-107 0 -107 -67v-516q0 -39 34 -65t97 -26t63 -44q0 -40 -57 -40q-58 0 -75 54h-315l4 41q105 0 105 69l1 335q0 52 -15 52q-13 0 -39 -38l-233 -338q0 -36 26 -53.5t93 -25.5l-5 -42h-369l4 41q107 0 107 69v515q0 41 -39.5 64t-92.5 27q-20 1 -31 3.5
t-21.5 12t-10.5 27.5q0 41 57 41q60 0 75 -54h318l-4 -42q-107 0 -107 -67v-325q0 -52 19 -52q15 0 44 41l223 321q-1 40 -26 56.5t-93 25.5l4 42h370zM573 987h88q-13 -88 -58 -146t-124 -58q-78 0 -122 57.5t-58 146.5h90q7 -58 36.5 -103t81.5 -58q59 62 66 161z" />
    <glyph glyph-name="uni041B" unicode="&#x41b;" horiz-adv-x="778" 
d="M743 746l-4 -44q-53 -1 -53 -68v-479q0 -114 72 -116l-4 -39h-277l4 46q58 0 58 100v490q0 24 -21 42.5t-70 18.5h-35q-37 0 -55 -19t-18 -42v-68q0 -297 -51 -410q-52 -117 -175 -172l-114 92l86 95q27 -28 50 -28q68 0 103 97q39 105 39 325v67q0 66 -60 68l4 44h521z
" />
    <glyph glyph-name="uni0423" unicode="&#x423;" horiz-adv-x="717" 
d="M324 607l-4 20q83 48 118 118q13 4 37 4q94 0 155.5 -66t61.5 -189q0 -80 -18 -163.5t-56.5 -167.5t-93 -154t-133 -124.5t-170.5 -77.5q-38 67 -99 67q-51 0 -125 -59l-15 21q90 110 175 110q57 0 121 -56q72 30 140 99q-279 108 -299 430q-4 64 -7.5 94t-14.5 72
t-33 72t-58 59l2 30h158q53 -52 70 -109t29 -180q6 -59 15.5 -99.5t32 -89.5t66 -95t110.5 -92q96 153 96 307q0 94 -52.5 161.5t-141.5 67.5q-36 0 -67 -10z" />
    <glyph glyph-name="uni0426" unicode="&#x426;" horiz-adv-x="768" 
d="M704 746l-4 -44q-53 -1 -53 -68v-479q0 -60 15 -82t57 -22q2 -166 49 -221l-28 -23q-49 12 -88 64.5t-50 128.5h-582l4 39q68 1 68 116v479q0 66 -57 68l4 44h262l-4 -43q-29 0 -43.5 -22.5t-14.5 -56.5v-458q0 -49 19.5 -72t71.5 -23h79q53 0 72 20.5t19 74.5v470
q0 24 -15 44.5t-47 22.5l4 43h262z" />
    <glyph glyph-name="uni0427" unicode="&#x427;" horiz-adv-x="724" 
d="M689 746l-4 -44q-53 -1 -53 -68v-479q0 -114 72 -116l-4 -39h-277l4 46q58 0 58 100v118q-31 -16 -84.5 -26.5t-104.5 -10.5q-112 0 -181 52.5t-69 149.5q0 162 190 268h-185l4 49h319l-4 -41q-98 -41 -138 -95.5t-40 -130.5q0 -163 164 -163q81 0 129 26v292
q0 66 -59 68l4 44h259z" />
    <glyph glyph-name="uni0428" unicode="&#x428;" horiz-adv-x="1089" 
d="M1054 746l-4 -44q-53 -1 -53 -68v-479q0 -115 72 -116l-3 -39h-1046l4 39q68 1 68 116v479q0 66 -57 68l4 44h254l-4 -43q-54 0 -54 -79v-458q0 -49 19.5 -72t71.5 -23h56q53 0 72 20.5t19 74.5v470q0 63 -58 67l4 43h255l-4 -43q-54 0 -54 -79v-458q0 -49 19.5 -72
t71.5 -23h56q53 0 72 20.5t19 74.5v470q0 63 -58 67l4 43h254z" />
    <glyph glyph-name="uni0429" unicode="&#x429;" horiz-adv-x="1119" 
d="M1054 746l-4 -44q-53 -1 -53 -68v-479q0 -63 15.5 -83.5t57.5 -20.5q2 -166 49 -221l-28 -23q-49 12 -88 64.5t-50 128.5h-933l4 39q68 1 68 116v479q0 66 -57 68l4 44h254l-4 -43q-54 0 -54 -79v-458q0 -49 19.5 -72t71.5 -23h56q53 0 72 20.5t19 74.5v470q0 63 -58 67
l4 43h255l-4 -43q-54 0 -54 -79v-458q0 -49 19.5 -72t71.5 -23h56q53 0 72 20.5t19 74.5v470q0 63 -58 67l4 43h254z" />
    <glyph glyph-name="uni042A" unicode="&#x42a;" horiz-adv-x="909" 
d="M441 401v-276q0 -35 32.5 -53.5t72.5 -18.5q33 0 69.5 13t60.5 33q30 74 30 150q0 93 -35.5 139t-112.5 58q-18 -14 -51.5 -28.5t-65.5 -16.5zM461 746l19 -18q-39 -76 -39 -153v-121q35 0 72.5 11t59.5 27q120 -6 188.5 -61t117.5 -157q-8 -46 -33 -92t-64.5 -88.5
t-100.5 -74t-134 -43.5q-20 8 -69 26.5t-71 26t-57 19t-62 15.5t-52 4l-18 34q47 44 61 74.5t14 82.5q0 83 -23 148t-66 92l2 15q110 28 163 127q-41 -25 -64.5 -33.5t-53.5 -8.5q-27 0 -65.5 8.5t-63.5 8.5q-57 0 -96 -32l-26 17q41 75 77.5 109.5t83.5 49.5
q68 -58 171 -58q84 0 129 45z" />
    <glyph glyph-name="uni042B" unicode="&#x42b;" horiz-adv-x="1120" 
d="M243 401v-276q0 -35 32.5 -53.5t72.5 -18.5q33 0 69.5 13t60.5 33q30 74 30 150q0 93 -35.5 139t-112.5 58q-18 -14 -51.5 -28.5t-65.5 -16.5zM297 746l-5 -40q-49 -9 -49 -82v-170q35 0 72.5 11t59.5 27q120 -6 188.5 -61t117.5 -157q-8 -46 -33 -92t-64.5 -88.5
t-100.5 -74t-134 -43.5q-20 8 -69 26.5t-71 26t-57 19t-62 15.5t-52 4l-18 34q75 67 75 134v405q0 64 -48 66l4 40h246zM1029 746l-4 -42q-107 0 -107 -67v-516q0 -74 131 -91q63 0 63 -44q0 -40 -57 -40q-58 0 -75 54h-317l4 41q107 0 107 69v515q0 73 -132 91
q-63 0 -63 44q0 40 57 40q59 0 75 -54h318z" />
    <glyph glyph-name="uni042C" unicode="&#x42c;" horiz-adv-x="711" 
d="M243 401v-276q0 -35 32.5 -53.5t72.5 -18.5q33 0 69.5 13t60.5 33q30 74 30 150q0 93 -35.5 139t-112.5 58q-18 -14 -51.5 -28.5t-65.5 -16.5zM297 746l-5 -40q-49 -9 -49 -82v-170q35 0 72.5 11t59.5 27q120 -6 188.5 -61t117.5 -157q-8 -46 -33 -92t-64.5 -88.5
t-100.5 -74t-134 -43.5q-20 8 -69 26.5t-71 26t-57 19t-62 15.5t-52 4l-18 34q75 67 75 134v405q0 64 -48 66l4 40h246z" />
    <glyph glyph-name="uni042D" unicode="&#x42d;" horiz-adv-x="773" 
d="M408 438h188q-30 231 -227 231q-62 0 -110.5 -23.5t-56.5 -76.5l-17 -16l-95 93q106 108 269 108q169 0 276.5 -113.5t107.5 -275.5q0 -161 -105 -270t-262 -109q-111 0 -204 56.5t-144 145.5q56 42 117 106q11 -93 80 -160t170 -67q106 0 155 77.5t49 208.5
q-19 -32 -108 -32h-93q-58 0 -103 -35l-18 24z" />
    <glyph glyph-name="uni042E" unicode="&#x42e;" horiz-adv-x="1108" 
d="M440 746l-4 -42q-107 0 -107 -67v-214q33 -9 76 -9q16 100 100.5 179.5t250.5 170.5q82 -43 142.5 -94.5t95.5 -105t51.5 -107t16.5 -108.5q0 -141 -97 -236t-242 -124q-87 33 -155 80t-116 120.5t-51 160.5q-34 0 -72 -11v-218q0 -36 26 -53.5t93 -25.5l-5 -42h-369
l4 41q107 0 107 69v515q0 73 -132 91q-63 0 -63 44q0 40 57 40q60 0 75 -54h318zM537 569q-40 -64 -40 -129q0 -89 60 -169t142 -124t155 -44q50 0 87 24q33 65 33 147q0 132 -88.5 235.5t-209.5 103.5q-63 0 -139 -44z" />
    <glyph glyph-name="uni042F" unicode="&#x42f;" horiz-adv-x="723" 
d="M699 651l-4 -38q-61 -3 -61 -84v-397q0 -62 69 -104l-28 -41q-57 43 -138 43q-54 0 -141 -24v61q87 44 87 132v82l-77 58l-27 -64.5t-27.5 -59.5t-32.5 -59t-36.5 -50.5t-46 -48.5t-55 -38.5t-67.5 -32.5l-114 92l86 95q26 -26 63 -26q60 0 115 58t87 167l-50 34
q-107 73 -151.5 119t-44.5 97q0 59 54.5 95.5t156.5 36.5q41 0 78 -7.5t56.5 -14.5t59 -25.5t55.5 -24.5q74 -31 134 -31zM484 349v208q0 44 -15.5 75.5t-40.5 46.5t-48 21.5t-47 6.5q-46 0 -75 -19q-7 -25 -7 -53q0 -59 30.5 -112.5t87.5 -93.5z" />
    <glyph glyph-name="uni0431" unicode="&#x431;" horiz-adv-x="511" 
d="M467 799l37 -7q-26 -123 -56.5 -168.5t-104.5 -45.5q-26 0 -83 7.5t-81 7.5q-19 0 -41 -3q-16 -53 -16 -179q41 15 63 33.5t60 61.5q58 -3 104.5 -34t73 -76t40 -91.5t13.5 -88.5q0 -85 -55.5 -148.5t-148.5 -80.5q-138 31 -188.5 111.5t-50.5 244.5q0 385 213 385
q16 0 50 -3.5t56 -3.5q46 0 70 16t45 62zM122 359q0 -86 32 -146q27 -50 76 -85t102 -35q28 0 53 11q4 19 4 42q0 92 -65.5 155t-153.5 63q-21 0 -48 -5z" />
    <glyph glyph-name="uni0432" unicode="&#x432;" horiz-adv-x="530" 
d="M23 394l4 18q94 59 160 82t128 23q74 0 115.5 -26.5t41.5 -74.5q0 -16 -5 -30.5t-11 -24t-18 -21t-18.5 -16.5t-20.5 -14t-17 -11q54 -15 87.5 -52.5t33.5 -94.5q0 -69 -53.5 -109t-172.5 -78q-36 41 -54 59t-59 41.5t-90 31.5v234q0 58 -51 63zM274 248l-73 -46v-83
q51 -39 140 -39q25 0 44 4q14 25 14 49q0 42 -37.5 72.5t-87.5 42.5zM201 420v-158l67 41q80 49 80 102q0 48 -63 48q-66 0 -84 -33z" />
    <glyph glyph-name="uni0433" unicode="&#x433;" horiz-adv-x="417" 
d="M417 505l-32 -89h-180v-277q0 -66 64 -68l-4 -24l-89 -56l-102 76v274q0 28 -14 43.5t-37 17.5l4 18l84 85h306z" />
    <glyph glyph-name="uni0434" unicode="&#x434;" horiz-adv-x="593" 
d="M527 505l-4 -27q-15 -6 -26.5 -22t-11.5 -31v-319q0 -59 65 -64q2 -132 43 -179l-24 -18q-42 8 -75.5 51t-43.5 104h-307q-10 -61 -43.5 -104t-75.5 -51l-24 18q39 43 43 179q67 16 107 113q36 87 36 228v46q0 44 -45 46l3 30h383zM303 452h-33q-28 0 -28 -31v-35
q0 -161 -37 -254q-22 -54 -54 -90h165q38 0 38 42v307q0 29 -13.5 45t-37.5 16z" />
    <glyph glyph-name="uni0436" unicode="&#x436;" horiz-adv-x="677" 
d="M677 456l-69 -83q-15 15 -38 15q-22 0 -43.5 -24t-46.5 -71q48 -5 81 -29t51.5 -65.5t27.5 -88t13 -110.5h-136q0 116 -31.5 175.5t-81.5 60.5v-236h-131v236q-58 0 -85.5 -53.5t-27.5 -182.5h-136q5 84 19.5 140.5t51.5 98.5t97 54q-26 48 -44.5 70t-40.5 22
q-23 0 -38 -15l-69 86l127 57q84 -141 109 -173q19 -23 37 -37v36q0 38 -5.5 52.5t-20.5 18.5l4 18l95 87q58 -29 58 -110v-106q7 5 14 11.5t15 16.5l14 17.5t15.5 21.5t15 22.5t17 28t17 28.5t20 33t20.5 35z" />
    <glyph glyph-name="uni0437" unicode="&#x437;" horiz-adv-x="461" 
d="M41 367l-19 19q42 57 88.5 88.5t113.5 49.5q71 -13 121 -54t50 -85q0 -52 -86 -86q58 -8 91.5 -46t33.5 -85q0 -56 -53.5 -109.5t-167.5 -93.5q-48 5 -98.5 38t-80.5 74l72 74q52 -54 167 -97q39 29 39 74q0 44 -36.5 76.5t-98.5 32.5q-7 0 -12 -0.5t-8 -0.5l2 47
q64 17 84.5 31.5t20.5 45.5q0 30 -16 43t-52 13q-88 0 -155 -49z" />
    <glyph glyph-name="uni0438" unicode="&#x438;" horiz-adv-x="590" 
d="M496 429v-293q0 -65 64 -65l-4 -24l-89 -56l-102 76v197q0 49 -9 49q-8 0 -25 -38l-126 -275h-131v339q0 59 -51 63l4 18l94 95q37 -8 60.5 -32.5t23.5 -64.5v-224q0 -42 9 -42q8 0 25 36l153 327z" />
    <glyph glyph-name="uni0439" unicode="&#x439;" horiz-adv-x="590" 
d="M496 429v-293q0 -65 64 -65l-4 -24l-89 -56l-102 76v197q0 49 -9 49q-8 0 -25 -38l-126 -275h-131v339q0 59 -51 63l4 18l94 95q37 -8 60.5 -32.5t23.5 -64.5v-224q0 -42 9 -42q8 0 25 36l153 327zM388 746h88q-13 -88 -58 -146t-124 -58q-78 0 -122 57.5t-58 146.5h90
q7 -58 36.5 -103t81.5 -58q59 62 66 161z" />
    <glyph glyph-name="uni043B" unicode="&#x43b;" horiz-adv-x="604" 
d="M551 505l-4 -27q-14 -6 -26 -22t-12 -31v-289q0 -65 64 -65l-4 -24l-89 -56l-102 76v324q0 29 -14 45t-37 16h-30q-18 0 -24.5 -6.5t-6.5 -23.5v-36q0 -181 -48 -280q-32 -65 -103 -115l-115 58l69 83q23 -15 38 -15q46 0 69 41q34 64 34 225v46q0 44 -45 46l3 30h383z
" />
    <glyph glyph-name="uni043C" unicode="&#x43c;" horiz-adv-x="680" 
d="M586 437v-301q0 -65 64 -65l-4 -24l-89 -56l-93 71v239l-134 -248l-136 219v-272h-120v339q0 59 -51 63l4 18l94 95q42 -9 67.5 -25.5t47.5 -54.5l112 -195l138 284z" />
    <glyph glyph-name="uni043D" unicode="&#x43d;" horiz-adv-x="590" 
d="M496 418v-282q0 -65 64 -65l-4 -24l-89 -56l-102 76v135q-36 6 -76 6q-42 0 -84 -7v-201h-131v339q0 58 -51 63l4 18l94 95q34 -4 59 -31t25 -66v-138q36 -6 80 -6q48 0 80 8v57q0 58 -51 63l4 18l94 95q34 -4 59 -31t25 -66z" />
    <glyph glyph-name="uni043F" unicode="&#x43f;" horiz-adv-x="590" 
d="M537 505l-4 -27q-14 -6 -26 -22t-12 -31v-289q0 -65 64 -65l-4 -24l-89 -56l-102 76v288q0 29 -14 45t-37 16h-131q23 -23 23 -58v-358h-131v341q0 28 -14 43.5t-37 17.5l4 18l84 85h426z" />
    <glyph glyph-name="uni0446" unicode="&#x446;" horiz-adv-x="603" 
d="M495 418v-254q0 -38 12.5 -49.5t52.5 -11.5v-61q2 -132 43 -179l-24 -18q-42 8 -75.5 51t-43.5 104h-427l4 27q37 12 37 40v272q0 58 -51 63l4 18l94 95q34 -4 59 -31t25 -66v-268q0 -29 14.5 -45t37.5 -16h130q-23 23 -23 58v192q0 58 -51 63l4 18l94 95q34 -4 59 -31
t25 -66z" />
    <glyph glyph-name="uni0447" unicode="&#x447;" horiz-adv-x="590" 
d="M496 414v-278q0 -65 64 -65l-4 -24l-89 -56l-102 76v99q-59 -32 -138 -32q-71 0 -119 32t-48 97q0 19 6 44t6 37q0 28 -14.5 42t-34.5 16l4 18l94 95q84 -21 84 -96q0 -18 -7.5 -63.5t-7.5 -64.5q0 -80 85 -80q35 0 59.5 9t30.5 21v98q0 58 -51 63l4 18l94 95
q37 -8 60.5 -35.5t23.5 -65.5z" />
    <glyph glyph-name="uni0448" unicode="&#x448;" horiz-adv-x="827" 
d="M745 418v-254q0 -28 14 -43.5t37 -17.5l-4 -18l-84 -85h-675l4 27q37 12 37 40v272q0 58 -51 63l4 18l94 95q34 -4 59 -31t25 -66v-268q0 -29 14.5 -45t37.5 -16h110q-23 23 -23 58v192q0 58 -51 63l4 18l94 95q34 -4 59 -31t25 -66v-268q0 -29 14 -45t37 -16h111
q-23 23 -23 58v192q0 58 -51 63l4 18l94 95q34 -4 59 -31t25 -66z" />
    <glyph glyph-name="uni0449" unicode="&#x449;" horiz-adv-x="853" 
d="M745 418v-254q0 -37 12.5 -49t52.5 -12q1 -113 10.5 -164t32.5 -76l-24 -18q-42 8 -75.5 51t-43.5 104h-677l4 27q37 12 37 40v272q0 58 -51 63l4 18l94 95q34 -4 59 -31t25 -66v-268q0 -29 14.5 -45t37.5 -16h110q-23 23 -23 58v192q0 58 -51 63l4 18l94 95
q34 -4 59 -31t25 -66v-268q0 -29 14 -45t37 -16h111q-23 23 -23 58v192q0 58 -51 63l4 18l94 95q34 -4 59 -31t25 -66z" />
    <glyph glyph-name="uni044A" unicode="&#x44a;" horiz-adv-x="709" 
d="M358 218v-95q49 -43 133 -43q25 0 42 4q14 28 14 56q0 46 -31.5 79.5t-77.5 46.5q-50 -38 -80 -48zM375 528l17 -22q-34 -54 -34 -109v-121q76 27 132 74q182 -53 182 -186q0 -75 -55 -117t-183 -82q-35 40 -55.5 59.5t-61 42t-90.5 30.5q0 119 -13 170t-48 74l2 16
q70 22 110 76q-38 -28 -78 -28q-19 0 -55 8t-54 8q-33 0 -68 -18l-23 21q37 53 69 77.5t73 35.5q64 -43 129 -43q56 0 104 34z" />
    <glyph glyph-name="uni044B" unicode="&#x44b;" horiz-adv-x="793" 
d="M205 418v-142q76 27 132 74q182 -53 182 -186q0 -75 -55 -117t-183 -82q-35 40 -55.5 59.5t-61 42t-90.5 30.5v242q0 58 -51 63l4 18l94 95q34 -4 59 -31t25 -66zM205 218v-95q49 -43 133 -43q25 0 42 4q14 28 14 56q0 46 -31.5 79.5t-77.5 46.5q-50 -38 -80 -48z
M703 414v-278q0 -65 64 -65l-4 -24l-89 -56l-102 76v272q0 58 -51 63l4 18l94 95q37 -8 60.5 -35.5t23.5 -65.5z" />
    <glyph glyph-name="uni044C" unicode="&#x44c;" horiz-adv-x="556" 
d="M205 418v-142q76 27 132 74q182 -53 182 -186q0 -75 -55 -117t-183 -82q-35 40 -55.5 59.5t-61 42t-90.5 30.5v242q0 58 -51 63l4 18l94 95q34 -4 59 -31t25 -66zM205 218v-95q49 -43 133 -43q25 0 42 4q14 28 14 56q0 46 -31.5 79.5t-77.5 46.5q-50 -38 -80 -48z" />
    <glyph glyph-name="uni044D" unicode="&#x44d;" horiz-adv-x="412" 
d="M180 319h86q-19 39 -57 55.5t-75 16.5q-52 0 -97 -24l-19 19q49 91 182 131q77 -36 126.5 -98.5t49.5 -148.5q0 -58 -28.5 -109t-68 -86t-112.5 -88q-90 36 -137 90l63 76q25 -23 75.5 -37t100.5 -14q13 63 13 104q0 10 -2 32q-24 -14 -75 -14h-35q-47 0 -84 -28l-14 19z
" />
    <glyph glyph-name="uni044E" unicode="&#x44e;" horiz-adv-x="756" 
d="M205 418v-138q36 -7 72 -7q11 69 68 123.5t169 120.5q206 -122 206 -287q0 -95 -64.5 -159.5t-163.5 -83.5q-89 32 -147 89t-68 133q-45 -2 -72 -8v-201h-131v339q0 58 -51 63l4 18l94 95q34 -4 59 -31t25 -66zM375 373q-13 -27 -13 -61q0 -88 75 -156t147 -68
q28 0 56 15q6 20 6 44q0 94 -68 163.5t-154 69.5q-27 0 -49 -7z" />
    <glyph glyph-name="uni044F" unicode="&#x44f;" horiz-adv-x="547" 
d="M453 382v-246q0 -65 64 -65l-4 -24l-89 -56l-102 76v135q-34 11 -44 16q-27 -129 -163 -227l-115 58l69 83q23 -15 40 -15q12 0 25 4t31 15.5t33.5 38.5t24.5 67q-85 40 -127 83t-42 84q0 45 52 74t150 32q40 -56 81.5 -82.5t115.5 -50.5zM322 262v92q0 53 -27 76t-55 23
q-21 0 -33.5 -14.5t-12.5 -42.5q0 -84 128 -134z" />
    <glyph glyph-name="uni0452" unicode="&#x452;" horiz-adv-x="544" 
d="M338 601l-21 -63h-112v-94q47 21 83 67q122 -13 171 -77t49 -180q0 -190 -111.5 -304t-334.5 -143l-9 21q335 115 335 395q0 82 -28.5 124.5t-80.5 42.5q-36 0 -74 -23v-367h-131v538h-74l21 63h50q-9 34 -48 39l4 18l178 95v-152h133z" />
    <glyph glyph-name="uni0453" unicode="&#x453;" horiz-adv-x="417" 
d="M417 505l-32 -89h-180v-277q0 -66 64 -68l-4 -24l-89 -56l-102 76v274q0 28 -14 43.5t-37 17.5l4 18l84 85h306zM310 766l72 -87l-183 -141l-44 43z" />
    <glyph glyph-name="uni0454" unicode="&#x454;" horiz-adv-x="412" 
d="M293 185h-30q-3 35 -37 36l-86 5q18 -56 59 -84.5t85 -28.5q49 0 94 24l19 -19q-46 -91 -178 -131q-79 37 -131 100.5t-52 151.5q0 81 47 140t154 138q98 -58 129 -108l-85 -77q-52 48 -143 70q-10 -51 -10 -94q0 -20 1 -29l212 25q-34 -65 -48 -119z" />
    <glyph glyph-name="uni0459" unicode="&#x459;" horiz-adv-x="860" 
d="M551 505l-4 -27q-14 -6 -26 -22t-12 -31v-149q76 27 132 74q182 -53 182 -186q0 -75 -55 -117t-183 -82q-35 40 -55.5 59.5t-61 42t-90.5 30.5v294q0 29 -14 45t-37 16h-30q-18 0 -24.5 -6.5t-6.5 -23.5v-36q0 -181 -48 -280q-32 -65 -103 -115l-115 58l69 83
q23 -15 38 -15q46 0 69 41q34 64 34 225v46q0 44 -45 46l3 30h383zM509 218v-95q49 -43 133 -43q25 0 42 4q14 28 14 56q0 46 -31.5 79.5t-77.5 46.5q-50 -38 -80 -48z" />
    <glyph glyph-name="uni045A" unicode="&#x45a;" horiz-adv-x="847" 
d="M496 418v-142q76 27 132 74q182 -53 182 -186q0 -75 -55 -117t-183 -82q-35 40 -55.5 59.5t-61 42t-90.5 30.5v105q-36 6 -76 6q-42 0 -84 -7v-201h-131v339q0 58 -51 63l4 18l94 95q34 -4 59 -31t25 -66v-138q36 -6 80 -6q48 0 80 8v57q0 58 -51 63l4 18l94 95
q34 -4 59 -31t25 -66zM496 218v-95q49 -43 133 -43q25 0 42 4q14 28 14 56q0 46 -31.5 79.5t-77.5 46.5q-50 -38 -80 -48z" />
    <glyph glyph-name="uni045C" unicode="&#x45c;" horiz-adv-x="524" 
d="M524 456l-69 -83q-16 15 -38 15q-48 0 -131 -95q196 -20 214 -293h-136q0 236 -159 236v-236h-131v335q0 58 -51 63l4 18l106 95q34 -7 53 -29t19 -47v-136q80 50 194 214zM333 766l72 -87l-183 -141l-44 43z" />
    <glyph glyph-name="uni045D" unicode="&#x45d;" horiz-adv-x="590" 
d="M496 429v-293q0 -65 64 -65l-4 -24l-89 -56l-102 76v197q0 49 -9 49q-8 0 -25 -38l-126 -275h-131v339q0 59 -51 63l4 18l94 95q37 -8 60.5 -32.5t23.5 -64.5v-224q0 -42 9 -42q8 0 25 36l153 327zM237 766l152 -190l-56 -38l-192 157z" />
    <glyph glyph-name="uni045E" unicode="&#x45e;" horiz-adv-x="522" 
d="M232 413l-8 22q57 28 83 81q12 3 28 3q61 0 103.5 -44t42.5 -133q0 -52 -14.5 -95.5t-51 -88.5t-67 -74t-94.5 -84q-63 -55 -70 -188h-140q21 73 69.5 126.5t116.5 77.5q-76 84 -106 145t-37 134q-10 98 -21 123t-58 51l4 36h135q36 -36 46.5 -71t18.5 -118
q7 -75 26 -120t76 -90q79 72 79 167q0 57 -32.5 102.5t-80.5 45.5q-16 0 -48 -8zM354 746h88q-13 -88 -58 -146t-124 -58q-78 0 -122 57.5t-58 146.5h90q7 -58 36.5 -103t81.5 -58q59 62 66 161z" />
    <glyph glyph-name="uni045F" unicode="&#x45f;" horiz-adv-x="576" 
d="M495 418v-254q0 -28 14 -43.5t37 -17.5l-4 -18l-84 -85h-124q6 -97 42 -137l-24 -18q-42 8 -75.5 51t-43.5 104h-200l4 27q37 12 37 40v272q0 58 -51 63l4 18l94 95q34 -4 59 -31t25 -66v-268q0 -29 14.5 -45t37.5 -16h130q-23 23 -23 58v192q0 58 -51 63l4 18l94 95
q34 -4 59 -31t25 -66z" />
    <glyph glyph-name="uni0490" unicode="&#x490;" horiz-adv-x="625" 
d="M569 844h83q0 -100 -28.5 -173t-68.5 -89q-111 44 -180 60t-134 16q-11 -68 -11 -134v-325q0 -88 87 -132v-61q-87 24 -136 24q-81 0 -138 -43l-28 41q69 42 69 104v341q0 78 -50 104l4 28q45 11 97.5 38t90.5 50.5t91 42.5t105 19q59 0 143 -14q2 33 4 103z" />
    <glyph glyph-name="uni0491" unicode="&#x491;" horiz-adv-x="453" 
d="M399 630h76q0 -83 -26.5 -143t-63.5 -71h-180v-277q0 -66 64 -68l-4 -24l-89 -56l-102 76v274q0 28 -14 43.5t-37 17.5l4 18l84 85h279q7 40 9 125z" />
    <glyph glyph-name="uni0492" unicode="&#x492;" horiz-adv-x="625" 
d="M389 406l-22 -87h-137v-120q0 -88 87 -132v-61q-87 24 -136 24q-81 0 -138 -43l-28 41q69 42 69 104v187h-52l22 87h30v67q0 78 -50 104l4 28q45 11 97.5 38t90 50.5t90.5 42.5t106 19q104 0 203 -26q-41 -55 -69 -147q-111 44 -180 60t-135 16q-11 -68 -11 -134v-118
h159z" />
    <glyph glyph-name="uni0493" unicode="&#x493;" horiz-adv-x="417" 
d="M341 288l-20 -77h-116v-72q0 -66 64 -68l-4 -24l-89 -56l-102 76v144h-48l19 77h29v53q0 28 -14 43.5t-37 17.5l4 18l84 85h306l-32 -89h-180v-128h136z" />
    <glyph glyph-name="uni0496" unicode="&#x496;" horiz-adv-x="1053" 
d="M943 676l-73 -95q-22 25 -39 25q-29 0 -62 -34.5t-87 -110.5q100 -88 154 -178t70 -232h98q2 -166 49 -221l-28 -23q-49 12 -88 64.5t-50 128.5h-194l4 32q24 21 24 68q0 37 -5.5 77t-18 85t-39.5 74t-64 29q-29 0 -45 -25v-228q0 -65 58 -80l-4 -32h-256l4 32
q52 14 52 82v227q-16 24 -44 24q-37 0 -64 -29t-39.5 -74t-18 -85t-5.5 -77q0 -47 24 -68l4 -32h-218q5 87 23 156.5t50 124t67.5 94.5t88.5 86q-54 76 -87 110.5t-62 34.5q-17 0 -39 -25l-73 95l149 83q149 -256 244 -323v204q0 64 -48 66l4 40h245l-4 -40q-50 -9 -50 -82
v-188q95 67 244 323z" />
    <glyph glyph-name="uni0497" unicode="&#x497;" horiz-adv-x="772" 
d="M677 456l-69 -83q-15 15 -38 15q-22 0 -43.5 -24t-46.5 -71q83 -9 121 -73.5t49 -177.5h79q2 -132 43 -179l-24 -18q-42 8 -75.5 51t-43.5 104h-112q0 116 -31.5 175.5t-81.5 60.5v-236h-131v236q-58 0 -85.5 -53.5t-27.5 -182.5h-136q5 84 19.5 140.5t51.5 98.5t97 54
q-26 48 -44.5 70t-40.5 22q-23 0 -38 -15l-69 86l127 57q84 -141 109 -173q19 -23 37 -37v36q0 38 -5.5 52.5t-20.5 18.5l4 18l95 87q58 -29 58 -110v-106q7 5 14 11.5t15 16.5l14 17.5t15.5 21.5t15 22.5t17 28t17 28.5t20 33t20.5 35z" />
    <glyph glyph-name="uni0498" unicode="&#x498;" horiz-adv-x="646" 
d="M27 613l2 38q22 6 95 46q106 57 217 57q99 0 151 -37.5t52 -102.5q0 -97 -134 -165q204 -22 204 -183q0 -75 -51.5 -141t-171.5 -126q-7 -75 -46.5 -128t-89.5 -64l-28 21q41 44 47 155q-194 36 -252 159q73 12 145 33q15 -106 195 -143q43 26 71 69.5t28 96.5
q0 63 -46.5 106.5t-143.5 53.5l3 67q80 25 109 61.5t29 96.5q0 65 -26.5 93t-83.5 28q-49 0 -78.5 -23.5t-51.5 -84.5q-15 -3 -32 -3q-57 0 -113 20z" />
    <glyph glyph-name="uni0499" unicode="&#x499;" horiz-adv-x="461" 
d="M41 367l-19 19q42 57 88.5 88.5t113.5 49.5q71 -13 121 -54t50 -85q0 -52 -86 -86q58 -8 91.5 -46t33.5 -85q0 -105 -157 -177q-7 -72 -41 -123t-78 -61l-24 20q35 43 41 146q-40 13 -78.5 42t-62.5 62l72 74q52 -54 167 -97q39 29 39 74q0 44 -36.5 76.5t-98.5 32.5
q-7 0 -12 -0.5t-8 -0.5l2 47q64 17 84.5 31.5t20.5 45.5q0 30 -16 43t-52 13q-88 0 -155 -49z" />
    <glyph glyph-name="uni049A" unicode="&#x49a;" horiz-adv-x="817" 
d="M650 668l-84 -89q-23 26 -49 26q-51 0 -121 -97q232 -214 270 -457h102q2 -166 49 -221l-28 -23q-49 12 -88 64.5t-50 128.5h-197l4 32q24 20 24 61q0 51 -28.5 114.5t-74.5 113.5q-25 27 -52 44.5t-41 22t-22 4.5q-26 0 -42 -25v-255q0 -65 58 -80l-4 -32h-256l4 32
q52 14 52 82v526q0 64 -48 66l4 40h245l-4 -40q-50 -9 -50 -82v-188q122 67 312 323z" />
    <glyph glyph-name="uni049B" unicode="&#x49b;" horiz-adv-x="598" 
d="M524 456l-69 -83q-16 15 -38 15q-48 0 -131 -95q181 -19 210 -251h58q2 -132 43 -179l-24 -18q-42 8 -75.5 51t-43.5 104h-90q0 236 -159 236v-236h-131v335q0 58 -51 63l4 18l106 95q34 -7 53 -29t19 -47v-136q80 50 194 214z" />
    <glyph glyph-name="uni04A0" unicode="&#x4a0;" horiz-adv-x="921" 
d="M869 668l-84 -89q-23 26 -49 26q-51 0 -121 -97q256 -237 276 -508h-218l4 32q24 20 24 61q0 51 -28.5 114.5t-74.5 113.5q-25 27 -51.5 44.5t-40.5 22t-22 4.5q-9 0 -22.5 -6.5t-20.5 -18.5v-255q0 -65 58 -80l-4 -32h-256l4 32q52 14 52 82v139q0 183 -91 245l2 15
q110 28 163 127q-41 -25 -64.5 -33.5t-53.5 -8.5q-27 0 -65.5 8.5t-63.5 8.5q-57 0 -96 -32l-26 17q41 75 77.5 109.5t83.5 49.5q68 -58 171 -58q84 0 129 45l19 -18q-39 -76 -39 -153l1 -139q122 67 312 323z" />
    <glyph glyph-name="uni04A1" unicode="&#x4a1;" horiz-adv-x="677" 
d="M677 456l-69 -83q-16 15 -38 15q-48 0 -131 -95q196 -20 214 -293h-136q0 236 -159 236v-236h-131v169q0 68 -13.5 109t-47.5 63l2 16q70 22 110 76q-38 -28 -78 -28q-19 0 -55 8t-54 8q-33 0 -68 -18l-23 21q37 53 69 77.5t73 35.5q64 -43 129 -43q56 0 104 34l17 -22
q-34 -54 -34 -109v-98q80 50 194 214z" />
    <glyph glyph-name="uni04A2" unicode="&#x4a2;" horiz-adv-x="990" 
d="M870 746l-4 -42q-107 0 -107 -67v-516q0 -43 40.5 -67t153.5 -24q1 -164 37 -205l-21 -18q-85 20 -112 193h-351l4 41q105 0 105 69v230q-64 6 -135 6q-75 0 -151 -7v-218q0 -36 26 -53.5t93 -25.5l-5 -42h-369l4 41q107 0 107 69v515q0 73 -132 91q-63 0 -63 44
q0 40 57 40q60 0 75 -54h318l-4 -42q-107 0 -107 -67v-214q74 -7 146 -7q75 0 140 9v200q0 36 -26 53t-93 26l4 42h370z" />
    <glyph glyph-name="uni04A3" unicode="&#x4a3;" horiz-adv-x="604" 
d="M496 418v-282q0 -65 64 -65q2 -153 42 -205l-24 -21q-37 9 -67.5 48.5t-44.5 97.5l-101 76v135q-36 6 -76 6q-42 0 -84 -7v-201h-131v339q0 58 -51 63l4 18l94 95q34 -4 59 -31t25 -66v-138q36 -6 80 -6q48 0 80 8v57q0 58 -51 63l4 18l94 95q34 -4 59 -31t25 -66z" />
    <glyph glyph-name="uni04AA" unicode="&#x4aa;" horiz-adv-x="773" 
d="M569 536l-24 30q2 10 2 15q0 34 -36.5 61t-96.5 27q-95 0 -158.5 -71t-63.5 -191q0 -129 72 -221.5t190 -92.5q145 0 256 155l33 -35q-63 -84 -124.5 -139t-137.5 -76q-12 -75 -50.5 -127.5t-86.5 -63.5l-27 23q38 45 46 157q-136 12 -226.5 119.5t-90.5 256.5
q0 168 114 279.5t282 111.5q146 0 257 -108q-71 -51 -130 -110z" />
    <glyph glyph-name="uni04B0" unicode="&#x4b0;" horiz-adv-x="613" 
d="M269 647l-9 22q63 34 89 82q4 0 8.5 0.5t10.5 0.5q25 0 53 -6t56.5 -20.5t51.5 -35t37.5 -52t14.5 -68.5q0 -71 -50 -136.5t-144 -106.5v-46h100l-22 -87h-78q2 -84 87 -127v-61q-87 24 -141 24q-81 0 -138 -43l-28 41q69 42 69 104v62h-106l22 87h84v37
q-67 42 -101.5 107t-43.5 132q-10 76 -22.5 98.5t-62.5 52.5v38h170q31 -23 42 -54.5t28 -133.5q14 -85 41 -134.5t74 -67.5q47 29 65.5 73.5t18.5 84.5q0 58 -35 100t-90 42q-24 0 -51 -9z" />
    <glyph glyph-name="uni04B1" unicode="&#x4b1;" horiz-adv-x="522" 
d="M232 413l-8 22q59 31 83 81q12 3 28 3q61 0 103.5 -46t42.5 -138q0 -73 -31 -136.5t-98 -129.5h79l-22 -87h-88v-170h-131v170h-116l22 87h74q-42 56 -59.5 105t-23.5 114q-8 92 -20 123t-59 56l4 38h135q36 -38 46.5 -74t18.5 -122q4 -42 7.5 -64.5t13.5 -52.5t29.5 -54
t51.5 -49q79 75 79 173q0 63 -32 111t-81 48q-16 0 -48 -8z" />
    <glyph glyph-name="uni04B2" unicode="&#x4b2;" horiz-adv-x="746" 
d="M278 652l82 -149q103 176 245 246q20 -55 54 -110q-131 -53 -243 -231l160 -284q26 -44 107 -46l14 -28q2 -165 49 -220l-28 -23q-48 12 -86 61.5t-50 122.5l-152 82l-106 193q-64 -108 -129.5 -173t-161.5 -93l-13 24q37 15 71 43t57.5 56.5t49.5 73t40.5 74t36.5 78.5
l-107 195q-38 69 -128 73l-11 20l90 110z" />
    <glyph glyph-name="uni04B3" unicode="&#x4b3;" horiz-adv-x="547" 
d="M231 433l36 -72q67 109 169 154q20 -52 47 -95q-95 -52 -167 -146l84 -162q20 -39 94 -41l11 -24q2 -136 43 -183l-24 -19q-41 8 -74.5 49.5t-44.5 101.5l-132 71l-45 89q-58 -83 -95 -113.5t-107 -49.5l-10 21q64 32 92 65.5t83 144.5l-56 115q-28 59 -112 63l-8 18
l78 95z" />
    <glyph glyph-name="uni04B6" unicode="&#x4b6;" horiz-adv-x="755" 
d="M689 746l-4 -44q-53 -1 -53 -68v-479q0 -57 14.5 -80.5t59.5 -23.5q2 -166 49 -221l-28 -23q-49 12 -88 64.5t-50 128.5h-166l4 46q58 0 58 100v118q-31 -16 -84.5 -26.5t-104.5 -10.5q-112 0 -181 52.5t-69 149.5q0 162 190 268h-185l4 49h319l-4 -41
q-98 -41 -138 -95.5t-40 -130.5q0 -163 164 -163q81 0 129 26v292q0 66 -59 68l4 44h259z" />
    <glyph glyph-name="uni04B7" unicode="&#x4b7;" horiz-adv-x="603" 
d="M496 414v-278q0 -65 64 -65q2 -152 43 -205l-24 -21q-37 9 -68 49t-45 98l-101 75v99q-59 -32 -138 -32q-71 0 -119 32t-48 97q0 19 6 44t6 37q0 28 -14.5 42t-34.5 16l4 18l94 95q84 -21 84 -96q0 -18 -7.5 -63.5t-7.5 -64.5q0 -80 85 -80q35 0 59.5 9t30.5 21v98
q0 58 -51 63l4 18l94 95q37 -8 60.5 -35.5t23.5 -65.5z" />
    <glyph glyph-name="uni04BA" unicode="&#x4ba;" horiz-adv-x="692" 
d="M277 746l-4 -40q-52 -10 -52 -82v-143q73 30 150 30q134 0 200.5 -75.5t66.5 -200.5q0 -51 -9.5 -125.5t-21.5 -109.5h-194l4 32q49 19 49 190q0 112 -29 162t-100 50q-40 0 -116 -30v-292q0 -65 59 -80l-4 -32h-256l4 32q52 14 52 82v526q0 64 -48 66l4 40h245z" />
    <glyph glyph-name="uni04C3" unicode="&#x4c3;" horiz-adv-x="702" 
d="M650 668l-84 -89q-23 26 -49 26q-51 0 -121 -97q276 -256 276 -459q0 -105 -63.5 -168t-151.5 -74l-24 29q66 35 66 180q0 194 -118 307q-35 33 -70 51t-48 18q-8 0 -21 -7t-20 -18v-255q0 -65 58 -80l-4 -32h-256l4 32q52 14 52 82v526q0 64 -48 66l4 40h245l-4 -40
q-50 -9 -50 -82v-188q122 67 312 323z" />
    <glyph glyph-name="uni04C4" unicode="&#x4c4;" horiz-adv-x="524" 
d="M524 456l-69 -83q-16 15 -38 15q-48 0 -131 -95q105 -11 159.5 -85.5t54.5 -171.5q0 -98 -53 -158.5t-121 -70.5l-25 22q63 50 63 184q0 223 -159 223v-236h-131v335q0 58 -51 63l4 18l106 95q34 -7 53 -29t19 -47v-136q80 50 194 214z" />
    <glyph glyph-name="uni04C7" unicode="&#x4c7;" horiz-adv-x="913" 
d="M870 746l-4 -42q-107 0 -107 -67v-544q0 -111 -50.5 -191t-119.5 -95l-35 27q61 68 61 259v247q-64 6 -135 6q-75 0 -151 -7v-218q0 -36 26 -53.5t93 -25.5l-5 -42h-369l4 41q107 0 107 69v515q0 73 -132 91q-63 0 -63 44q0 40 57 40q60 0 75 -54h318l-4 -42
q-107 0 -107 -67v-214q74 -7 146 -7q75 0 140 9v200q0 36 -26 53t-93 26l4 42h370z" />
    <glyph glyph-name="uni04C8" unicode="&#x4c8;" horiz-adv-x="590" 
d="M496 418v-346q0 -102 -46 -176.5t-109 -88.5l-31 25q55 63 55 240v130q-36 6 -76 6q-42 0 -84 -7v-201h-131v339q0 58 -51 63l4 18l94 95q34 -4 59 -31t25 -66v-138q36 -6 80 -6q48 0 80 8v57q0 58 -51 63l4 18l94 95q34 -4 59 -31t25 -66z" />
    <glyph glyph-name="uni04E2" unicode="&#x4e2;" horiz-adv-x="961" 
d="M870 746l-4 -42q-107 0 -107 -67v-516q0 -39 34 -65t97 -26t63 -44q0 -40 -57 -40q-58 0 -75 54h-315l4 41q105 0 105 69l1 335q0 52 -15 52q-13 0 -39 -38l-233 -338q0 -36 26 -53.5t93 -25.5l-5 -42h-369l4 41q107 0 107 69v515q0 41 -39.5 64t-92.5 27q-20 1 -31 3.5
t-21.5 12t-10.5 27.5q0 41 57 41q60 0 75 -54h318l-4 -42q-107 0 -107 -67v-325q0 -52 19 -52q15 0 44 41l223 321q-1 40 -26 56.5t-93 25.5l4 42h370zM659 949l-22 -87h-335l22 87h335z" />
    <glyph glyph-name="uni04E3" unicode="&#x4e3;" horiz-adv-x="590" 
d="M496 429v-293q0 -65 64 -65l-4 -24l-89 -56l-102 76v197q0 49 -9 49q-8 0 -25 -38l-126 -275h-131v339q0 59 -51 63l4 18l94 95q37 -8 60.5 -32.5t23.5 -64.5v-224q0 -42 9 -42q8 0 25 36l153 327zM473 708l-22 -87h-335l22 87h335z" />
    <glyph glyph-name="uni04E8" unicode="&#x4e8;" horiz-adv-x="753" 
d="M401 764q82 -43 142.5 -94.5t95.5 -105t51.5 -107t16.5 -108.5q0 -141 -97 -236t-242 -124q-139 52 -230.5 146.5t-91.5 226.5q0 83 42 152.5t116 126t197 123.5zM179 405h413q-37 91 -109 149.5t-161 58.5q-64 0 -140 -44q-40 -64 -40 -129q0 -20 1 -29q14 -6 36 -6z
M576 320h-405q48 -93 144.5 -155t183.5 -62q49 0 87 24q33 65 33 144q0 21 -3 40q-19 9 -40 9z" />
    <glyph glyph-name="uni04E9" unicode="&#x4e9;" 
d="M275 517q206 -122 206 -287q0 -95 -64.5 -159.5t-163.5 -83.5q-98 36 -157.5 100.5t-59.5 151.5q0 83 57 144t182 134zM342 201h-185q34 -49 88.5 -81t99.5 -32q27 0 56 15q6 19 6 43q0 21 -5 46q-29 9 -60 9zM188 281h175q-32 45 -79.5 72t-98.5 27q-27 0 -49 -7
q-13 -27 -13 -61q0 -14 1 -21q29 -10 64 -10z" />
    <glyph glyph-name="uni04EE" unicode="&#x4ee;" horiz-adv-x="717" 
d="M324 607l-4 20q83 48 118 118q13 4 37 4q94 0 155.5 -66t61.5 -189q0 -80 -18 -163.5t-56.5 -167.5t-93 -154t-133 -124.5t-170.5 -77.5q-38 67 -99 67q-51 0 -125 -59l-15 21q90 110 175 110q57 0 121 -56q72 30 140 99q-279 108 -299 430q-4 64 -7.5 94t-14.5 72
t-33 72t-58 59l2 30h158q53 -52 70 -109t29 -180q6 -59 15.5 -99.5t32 -89.5t66 -95t110.5 -92q96 153 96 307q0 94 -52.5 161.5t-141.5 67.5q-36 0 -67 -10zM537 949l-22 -87h-335l22 87h335z" />
    </font>
</defs>
</svg>
