<?xml version="1.0" encoding="UTF-8" standalone="no"?>
<!-- Created with Inkscape (http://www.inkscape.org/) -->

<svg
   width="52.916683mm"
   height="52.119865mm"
   viewBox="0 0 52.916683 52.119865"
   version="1.1"
   id="svg1"
   xml:space="preserve"
   inkscape:version="1.3.2 (091e20e, 2023-11-25, custom)"
   sodipodi:docname="discworld-logo-favicon.svg"
   xmlns:inkscape="http://www.inkscape.org/namespaces/inkscape"
   xmlns:sodipodi="http://sodipodi.sourceforge.net/DTD/sodipodi-0.dtd"
   xmlns="http://www.w3.org/2000/svg"
   xmlns:svg="http://www.w3.org/2000/svg"><sodipodi:namedview
     id="namedview1"
     pagecolor="#ffffff"
     bordercolor="#666666"
     borderopacity="1.0"
     inkscape:showpageshadow="2"
     inkscape:pageopacity="0.0"
     inkscape:pagecheckerboard="0"
     inkscape:deskcolor="#d1d1d1"
     inkscape:document-units="mm"
     inkscape:zoom="1.0343421"
     inkscape:cx="14.985371"
     inkscape:cy="142.60273"
     inkscape:window-width="1600"
     inkscape:window-height="837"
     inkscape:window-x="1912"
     inkscape:window-y="-8"
     inkscape:window-maximized="1"
     inkscape:current-layer="layer1" /><defs
     id="defs1" /><g
     inkscape:label="Calque 1"
     inkscape:groupmode="layer"
     id="layer1"
     transform="translate(-39.697432,-29.209885)"><path
       style="fill:#000000;stroke-width:0.259387"
       d="m 71.10936,81.304782 c -0.01901,-0.02003 -0.482253,-0.08596 -1.029443,-0.14652 -3.078,-0.340656 -5.720171,-1.053066 -7.950268,-2.143631 -3.518158,-1.720453 -5.574777,-4.201739 -6.250691,-7.541375 -0.31965,-1.579373 -0.219483,-3.494938 0.270033,-5.163975 l 0.147117,-0.501603 -0.502812,-0.52784 c -0.971924,-1.020305 -1.937024,-2.412577 -2.623116,-3.784165 -0.237,-0.473796 -0.444771,-0.903355 -0.461712,-0.954573 -0.02184,-0.06601 -0.247723,0.03968 -0.775734,0.36294 -2.763493,1.691876 -5.178236,2.153933 -6.837746,1.308388 -0.850435,-0.433309 -3.100396,-2.149874 -3.599042,-2.745819 -0.843546,-1.008145 -1.414148,-2.186575 -1.648845,-3.405257 -0.130414,-0.677195 -0.189723,-1.896865 -0.12042,-2.476443 0.224461,-1.877149 0.832114,-3.21912 1.924085,-4.24923 0.581258,-0.548329 0.768578,-0.679187 2.253232,-1.574081 1.458029,-0.878848 1.626748,-0.951959 2.452048,-1.062556 1.293146,-0.173294 2.348357,0.05997 4.066792,0.898997 0.493479,0.240942 1.245428,0.672853 1.670991,0.959805 0.425567,0.286953 0.792996,0.502488 0.816515,0.478969 0.02353,-0.02353 -0.0027,-0.07149 -0.0582,-0.106605 -0.08836,-0.05588 -0.08811,-0.06408 0.0021,-0.06571 0.05891,-10e-4 0.235051,-0.255964 0.411777,-0.595885 0.63608,-1.22346 1.622213,-2.584657 2.659394,-3.670864 0.386899,-0.405189 0.703453,-0.749447 0.703453,-0.765023 0,-0.01556 -0.03211,-0.194668 -0.07136,-0.397989 -0.659819,-3.418379 -0.108621,-6.255945 1.684894,-8.673846 0.389506,-0.525104 1.505867,-1.675342 1.854611,-1.910886 0.120519,-0.0814 0.493567,-0.3351 0.828994,-0.563778 1.051278,-0.71671 1.763345,-1.064801 3.368283,-1.646569 1.256091,-0.455316 2.436139,-0.765469 3.658449,-0.961552 2.950406,-0.473306 4.585007,-0.582181 5.284474,-0.351982 1.057641,0.348077 1.693012,1.280863 1.766354,2.593173 0.03635,0.650478 -0.01652,1.041213 -0.229205,1.694094 -0.275262,0.844933 -0.855664,1.50578 -1.914612,2.179974 -1.681227,1.070377 -2.065872,1.371674 -2.533897,1.984821 -0.233817,0.306316 -0.247334,0.346127 -0.143348,0.422161 0.103516,0.07569 0.09907,0.08678 -0.04519,0.112639 -0.088,0.01577 0.612079,0.03369 1.555735,0.03981 0.943656,0.0061 1.870154,0.04042 2.058886,0.07622 0.188731,0.0358 0.698305,0.100785 1.132387,0.144411 0.992037,0.0997 1.516551,0.199549 2.830283,0.538776 1.404224,0.362595 2.546041,0.765057 3.969758,1.399251 0.243394,0.108419 0.250086,0.107018 0.651981,-0.136538 0.474829,-0.287759 1.52703,-0.820214 1.877727,-0.950203 0.134241,-0.04976 0.41393,-0.155319 0.621536,-0.23458 0.524901,-0.200402 1.429987,-0.45082 2.161829,-0.598129 0.50904,-0.102463 0.943542,-0.123634 2.470664,-0.120384 2.183467,0.0046 2.565078,0.04215 2.847538,0.279822 0.339813,0.285933 0.377408,0.591346 0.173927,1.412916 -0.227649,0.919139 -0.619842,2.762853 -0.799523,3.758578 -0.211154,1.170132 -0.267542,1.292983 -0.818024,1.782221 -0.26277,0.233537 -0.682596,0.616768 -0.932946,0.851625 l -0.455183,0.427011 0.318229,0.545614 c 1.096666,1.88028 1.751855,3.660312 2.07122,5.627149 0.137164,0.844739 0.165949,3.313784 0.04517,3.874621 -0.04471,0.207605 -0.144759,0.727293 -0.222336,1.154864 -0.314199,1.731706 -1.062469,3.459321 -2.318027,5.351893 l -0.378345,0.570299 0.439622,0.459144 c 0.241793,0.252527 0.727205,0.754817 1.078696,1.116198 l 0.639073,0.657057 0.199938,1.2817 c 0.109967,0.704934 0.245697,1.551942 0.301621,1.882235 0.05592,0.330296 0.120161,0.739513 0.142748,0.909371 0.02259,0.169859 0.100547,0.62298 0.173248,1.006936 0.10514,0.555286 0.116545,0.744828 0.05575,0.926497 -0.104279,0.311615 -0.311791,0.525218 -0.582986,0.600098 -0.124809,0.03446 -0.960952,0.04842 -1.858095,0.03103 -1.460085,-0.02831 -1.739134,-0.05317 -2.660607,-0.237065 -1.874545,-0.374083 -3.481986,-1.030869 -5.057691,-2.066528 -0.41938,-0.275643 -0.796386,-0.492195 -0.837795,-0.481223 -0.04141,0.01097 -0.415001,0.139343 -0.83021,0.285277 -1.95812,0.688212 -3.101356,0.974137 -5.004216,1.251562 -0.860955,0.125522 -1.352832,0.151599 -2.922495,0.15494 -1.038024,0.0023 -2.165264,-0.01668 -2.504981,-0.042 -0.339714,-0.02532 -0.56362,-0.03076 -0.497564,-0.01211 0.135532,0.03823 0.159507,0.136503 0.0428,0.175406 -0.104097,0.0347 0.126566,0.47969 0.481208,0.928347 0.267062,0.337857 0.999727,0.915575 2.233653,1.761265 1.502589,1.029825 2.092044,2.147688 2.010124,3.812075 -0.06625,1.346175 -0.563653,2.135058 -1.647321,2.612683 -0.307296,0.135441 -1.208392,0.264251 -1.284857,0.183669 z m 1.014801,-1.036109 c 0.40957,-0.208984 0.654854,-0.467333 0.838926,-0.883606 0.291151,-0.658428 0.244132,-1.806383 -0.105493,-2.575474 -0.225792,-0.496685 -0.713139,-0.950242 -1.888928,-1.757958 -1.313823,-0.902538 -2.011401,-1.598132 -2.387201,-2.380399 -0.263667,-0.548856 -0.432806,-1.093707 -0.514318,-1.656792 -0.0451,-0.311548 -0.156507,-0.302581 1.406548,-0.113218 1.037093,0.125642 1.409054,0.138643 2.897986,0.101275 1.924651,-0.0483 2.677128,-0.135848 4.515387,-0.52536 1.270409,-0.269187 2.47042,-0.636119 3.655267,-1.117681 0.337614,-0.137216 0.650232,-0.249487 0.694704,-0.249487 0.04448,0 0.277155,0.156914 0.517073,0.348694 2.228077,1.781062 5.48168,2.790112 8.485966,2.63178 0.709219,-0.03738 0.909341,-0.069 0.909341,-0.143662 0,-0.05266 -0.106439,-0.720199 -0.236532,-1.48343 -0.130093,-0.763234 -0.305621,-1.89727 -0.390057,-2.520085 l -0.153523,-1.132386 -1.239895,-1.290568 c -0.681944,-0.709814 -1.248433,-1.314487 -1.258866,-1.343717 -0.01043,-0.02923 0.07817,-0.174231 0.196901,-0.322224 1.212859,-1.51181 2.253712,-3.648157 2.705757,-5.553556 0.582527,-2.455396 0.399604,-5.34716 -0.488198,-7.717785 -0.330239,-0.881808 -1.025775,-2.230064 -1.567952,-3.039383 l -0.447923,-0.668625 0.565117,-0.537871 c 0.310816,-0.295831 0.843068,-0.793385 1.182785,-1.10568 0.434972,-0.399858 0.632197,-0.631678 0.666791,-0.783756 0.02702,-0.118776 0.125572,-0.601996 0.219009,-1.073824 0.276421,-1.395874 0.722782,-3.448385 0.803213,-3.693436 0.04109,-0.125203 0.06348,-0.238885 0.04974,-0.252625 -0.01375,-0.01375 -0.649745,-0.05971 -1.413342,-0.102159 -1.566144,-0.08706 -2.223831,-0.04068 -3.516684,0.248023 -1.581603,0.353182 -2.953842,0.907957 -4.21751,1.705077 l -0.614459,0.387602 -0.723818,-0.34257 c -2.338018,-1.106548 -4.827653,-1.767825 -7.552454,-2.006023 -0.932435,-0.08151 -4.533552,-0.04688 -4.855421,0.04669 -0.143366,0.04168 -0.151293,0.02849 -0.111931,-0.186162 0.0888,-0.484227 0.381466,-1.252021 0.619845,-1.626109 0.52618,-0.825739 0.984971,-1.228648 2.408875,-2.115463 1.187068,-0.739313 1.691125,-1.165351 1.95724,-1.654294 0.450891,-0.828434 0.518202,-2.075543 0.148974,-2.760115 -0.229954,-0.426351 -0.658413,-0.785861 -1.068029,-0.896159 -0.486333,-0.130956 -3.021519,0.09635 -4.727177,0.423842 -2.138067,0.410515 -3.582563,0.854936 -5.000986,1.53863 -3.076927,1.48311 -4.935577,3.599989 -5.660444,6.446873 -0.377341,1.481988 -0.294234,3.91986 0.180614,5.298114 l 0.09685,0.281115 -0.730723,0.71049 c -1.616325,1.571578 -2.894414,3.483143 -3.63996,5.44408 l -0.07058,0.185648 -0.325365,-0.24698 c -1.539285,-1.168457 -3.438612,-2.221321 -4.601019,-2.550506 -0.559047,-0.15832 -0.729439,-0.176954 -1.37259,-0.150116 -0.7802,0.03256 -1.210661,0.146233 -1.683114,0.444479 -0.149747,0.09453 -0.568868,0.342946 -0.931377,0.55203 -1.447993,0.83516 -2.13119,1.379307 -2.649744,2.11044 -0.606964,0.855783 -0.868499,1.58525 -1.056721,2.94736 -0.117979,0.853783 -0.117972,0.920778 2.1e-4,1.71574 0.195664,1.316168 0.459985,2.054103 1.060479,2.960652 0.558554,0.843231 1.269063,1.472173 2.964755,2.624399 0.991645,0.673826 1.288421,0.786774 2.161824,0.822759 0.830216,0.03421 1.323231,-0.04166 2.144562,-0.330021 1.077879,-0.378431 2.243596,-0.990434 3.538836,-1.857898 l 0.587764,-0.393643 0.231798,0.628023 c 0.661321,1.791761 1.928174,3.766471 3.348104,5.218858 l 0.614792,0.628848 -0.197477,0.605882 c -0.384552,1.179852 -0.494294,1.884648 -0.498138,3.19922 -0.0039,1.332833 0.0705,1.889115 0.385496,2.882441 0.483369,1.524269 1.274979,2.756127 2.530839,3.938342 1.030172,0.969758 2.637657,1.955538 4.20254,2.577175 1.733457,0.688604 4.329858,1.30061 6.530606,1.53935 1.313547,0.142497 1.49939,0.137223 1.872436,-0.05312 z M 69.15365,77.519749 c -2.743533,-0.446816 -5.087862,-1.260825 -6.725693,-2.335329 -2.229488,-1.462661 -3.359192,-3.534932 -3.23667,-5.937187 0.05786,-1.134536 0.246809,-2.077056 0.376101,-1.876117 0.07995,0.124249 1.595475,1.007494 2.419069,1.409824 0.911295,0.445174 2.545577,1.099216 3.06658,1.227252 l 0.360304,0.08854 0.01287,0.34733 c 0.0071,0.191031 0.01696,0.455421 0.02194,0.587532 0.04052,1.072463 0.52908,2.524243 1.186152,3.524731 0.482045,0.733988 1.493637,1.706931 2.474177,2.379644 0.967849,0.664008 1.087884,0.749889 1.040283,0.744291 -0.01888,-0.0023 -0.466679,-0.07445 -0.995128,-0.160516 z m 18.701551,-8.120383 c -0.751777,-0.115876 -2.379139,-0.668111 -3.019698,-1.024714 -0.668176,-0.371977 -1.029443,-0.599971 -1.029443,-0.64968 0,-0.02862 0.232971,-0.209245 0.517713,-0.401386 0.284743,-0.192144 0.762067,-0.548243 1.060718,-0.791331 0.298651,-0.24309 0.567946,-0.441983 0.598435,-0.441983 0.03049,0 0.476284,0.424646 0.990657,0.943656 l 0.935226,0.943656 0.10398,0.686298 c 0.05719,0.377462 0.08373,0.703312 0.05898,0.724113 -0.02475,0.0208 -0.122208,0.02591 -0.216573,0.01136 z m -17.328959,-1.01575 c -0.150984,-0.01504 -0.600393,-0.05883 -0.998685,-0.09733 -0.701267,-0.06779 -2.614766,-0.444771 -3.318831,-0.653855 -3.924366,-1.165412 -7.255497,-3.500976 -9.24716,-6.483486 -0.718327,-1.075692 -1.503165,-2.964581 -1.696689,-4.083458 -0.1531,-0.885177 -0.22204,-2.250504 -0.151311,-2.996662 0.07707,-0.812998 0.384264,-2.186785 0.642041,-2.871189 1.641465,-4.358149 6.220101,-7.864859 11.682306,-8.9473 1.405925,-0.278613 1.700187,-0.31485 3.122643,-0.384531 2.920187,-0.143055 5.526956,0.248864 8.279216,1.244745 0.86384,0.312574 2.765683,1.28078 3.559382,1.812039 3.203762,2.14443 5.253995,5.000968 5.944663,8.282554 0.121419,0.576896 0.148696,0.94405 0.151687,2.041663 0.0033,1.219434 -0.01276,1.408361 -0.181185,2.127515 -0.262009,1.118807 -0.488211,1.776473 -0.908784,2.642238 -1.726422,3.553896 -5.368893,6.384861 -9.84145,7.648879 -0.912771,0.257963 -2.334314,0.564346 -3.023014,0.651547 -0.38922,0.04928 -3.646185,0.103334 -4.014829,0.06663 z m 2.974598,-1.308821 c 0.140531,-0.03763 0.154382,-0.06993 0.109952,-0.256425 -0.10431,-0.43783 -0.04318,-1.181462 0.139812,-1.70094 0.376094,-1.067615 0.514059,-1.505382 0.861374,-2.733153 0.277124,-0.979636 0.412664,-1.345154 0.593392,-1.600212 0.255413,-0.36046 0.25621,-0.55367 0.0026,-0.622249 -0.08368,-0.02262 -0.498537,-0.06149 -0.921909,-0.08637 -0.828639,-0.04869 -0.980707,-0.0059 -0.979835,0.275503 2.49e-4,0.08031 0.06181,0.238663 0.136806,0.351901 0.20496,0.30948 0.171483,0.721667 -0.14547,1.791167 -0.1555,0.524707 -0.334519,1.152663 -0.39782,1.395454 -0.0633,0.242792 -0.147721,0.452317 -0.187609,0.465613 -0.08001,0.02667 -0.498939,-1.34872 -0.670459,-2.201196 -0.125681,-0.624651 -0.13851,-1.202922 -0.03496,-1.575822 0.09555,-0.344106 0.02565,-0.420908 -0.468905,-0.515314 -0.757494,-0.144596 -1.227278,-0.161204 -1.487257,-0.05258 -0.316813,0.132373 -0.317451,0.275568 -0.0046,1.031365 0.355236,0.858155 0.667212,1.773553 1.089139,3.195732 0.59546,2.007097 0.566735,1.815472 0.342474,2.284683 -0.188863,0.395142 -0.190364,0.407331 -0.06175,0.501372 0.09743,0.07124 0.365616,0.09614 1.028039,0.09545 0.492924,-5.19e-4 0.968578,-0.02031 1.057011,-0.04398 z m 4.533981,-0.978601 c 1.704,-0.683016 1.643117,-0.650688 1.76222,-0.935739 0.107536,-0.257372 0.135742,-1.334958 0.03494,-1.334958 -0.03421,0 -0.171476,0.152118 -0.305045,0.338036 -0.259278,0.360896 -0.628166,0.610455 -1.167652,0.789941 -0.470692,0.1566 -0.523996,0.09386 -0.523996,-0.616755 0,-0.647672 0.02573,-0.692134 0.55611,-0.960898 0.260018,-0.131761 0.395156,-0.160164 0.603524,-0.126843 0.225608,0.03608 0.280494,0.02049 0.343665,-0.09754 0.124319,-0.232289 0.06226,-1.283368 -0.08444,-1.430064 -0.01891,-0.01891 -0.137413,0.07654 -0.263361,0.212098 -0.183553,0.19755 -0.307455,0.260643 -0.62433,0.317929 -0.217434,0.03931 -0.425896,0.05258 -0.46325,0.02949 -0.0895,-0.05531 -0.08637,-0.367404 0.0066,-0.658457 0.197223,-0.617414 0.167715,-0.589831 0.685615,-0.640866 0.416758,-0.04107 0.509613,-0.02795 0.747033,0.105483 0.231835,0.1303 0.287375,0.138886 0.383317,0.05926 0.09558,-0.07932 0.105239,-0.185161 0.06522,-0.714381 -0.02696,-0.356515 -0.0907,-0.690006 -0.14957,-0.782574 -0.118011,-0.185563 -0.03922,-0.194543 -1.394349,0.158914 -0.642017,0.167455 -1.077907,0.241803 -1.419596,0.242127 -0.887472,7.78e-4 -1.073697,0.211048 -0.562885,0.635356 l 0.282293,0.234489 0.06659,1.195264 c 0.106323,1.908403 -0.01914,3.250278 -0.3644,3.897273 -0.473823,0.887927 -0.247715,0.898489 1.785749,0.08341 z m -9.949431,0.367285 c 0.579289,-0.162584 0.981962,-0.490463 1.233293,-1.00421 0.269236,-0.550353 0.349916,-0.989962 0.348787,-1.9005 -0.0023,-1.785022 -0.588293,-3.105801 -1.610533,-3.629437 -0.477998,-0.244853 -1.276879,-0.253916 -1.804263,-0.02047 -0.440338,0.194914 -0.957391,0.738332 -1.229044,1.291714 -0.184635,0.376115 -0.193366,0.43755 -0.187755,1.320959 0.0051,0.800144 0.03132,1.010736 0.19238,1.544163 0.40945,1.356095 1.091112,2.103931 2.186658,2.398938 0.461257,0.124205 0.423618,0.124254 0.870477,-0.001 z m -0.88768,-1.246117 c -0.246063,-0.04398 -0.585795,-0.396256 -0.749795,-0.777483 -0.364958,-0.84837 -0.307167,-2.278888 0.11854,-2.934136 0.116498,-0.179317 0.423685,-0.356798 0.617549,-0.356798 0.257553,0 0.704345,0.405072 0.894706,0.811159 0.161721,0.344985 0.182051,0.468858 0.17662,1.076153 -0.0087,0.968495 -0.254026,1.828335 -0.601781,2.108834 -0.151251,0.122 -0.165211,0.124213 -0.455839,0.07227 z m -2.745184,-0.151973 c 0,-0.07298 -0.0956,-0.28649 -0.212448,-0.474458 -0.248462,-0.399692 -0.26394,-0.558793 -0.284771,-2.927263 -0.01198,-1.362024 -10e-4,-1.528278 0.112276,-1.698081 0.266165,-0.399026 0.01753,-0.662325 -0.83012,-0.879121 -0.624713,-0.159774 -0.709009,-0.163152 -0.882176,-0.03534 -0.106777,0.07881 -0.11619,0.115588 -0.04743,0.185298 0.04718,0.04784 0.08578,0.165987 0.08578,0.262555 0,0.185329 -0.439809,0.912182 -0.68769,1.13651 -0.14522,0.131424 -0.14741,0.131131 -0.279168,-0.03734 -0.07304,-0.0934 -0.230694,-0.339667 -0.350341,-0.547271 -0.119651,-0.207603 -0.340874,-0.554074 -0.491612,-0.769934 -0.246978,-0.353682 -0.266025,-0.410117 -0.192719,-0.571002 0.05033,-0.11046 0.05815,-0.219978 0.02052,-0.287235 -0.05283,-0.09441 -1.268009,-0.581613 -1.708804,-0.685119 -0.128791,-0.03024 -0.147573,-0.01453 -0.109669,0.0918 0.02516,0.07056 0.08951,0.179418 0.14301,0.241904 0.156725,0.183042 0.271631,0.657257 0.396648,1.636944 0.121032,0.948475 0.103161,1.417458 -0.06979,1.83138 -0.05294,0.126703 -0.07948,0.274082 -0.05897,0.327513 0.07434,0.193736 1.638192,1.329629 1.719136,1.248685 0.02392,-0.02392 -0.0504,-0.25234 -0.165149,-0.507608 -0.252317,-0.561311 -0.349211,-0.949653 -0.406735,-1.63015 -0.04482,-0.530255 0.02334,-0.672908 0.156104,-0.326667 0.136526,0.356071 1.202009,2.007416 1.295225,2.007416 0.159313,0 0.527897,-0.357695 0.795961,-0.772442 l 0.256606,-0.397021 0.04889,0.521677 c 0.05331,0.568865 0.0099,1.9171 -0.06756,2.100567 -0.03741,0.08856 0.07068,0.194836 0.477109,0.469097 0.857651,0.578737 1.337907,0.752729 1.337907,0.484714 z M 81.220799,64.54006 c 0.157394,-0.135439 0.47147,-0.328802 0.697946,-0.429693 0.958172,-0.426848 1.265805,-0.637579 1.710101,-1.171427 0.827578,-0.994384 1.104409,-1.538721 1.053261,-2.071033 -0.06181,-0.643249 -0.457386,-0.791453 -1.547398,-0.579733 -0.803113,0.155993 -1.00317,0.131898 -1.032481,-0.124345 -0.0397,-0.347092 0.413868,-0.69515 1.123251,-0.861957 0.290448,-0.0683 0.37849,-0.06436 0.549037,0.02456 0.26162,0.136422 0.486156,0.135711 0.538887,-0.0018 0.04911,-0.127971 -0.02417,-1.011343 -0.09315,-1.12296 -0.03371,-0.05455 -0.206713,-0.02723 -0.591229,0.09335 -0.298964,0.09376 -0.760899,0.232652 -1.026525,0.308657 -0.291458,0.0834 -0.637257,0.248691 -0.872112,0.416867 -0.321871,0.230489 -0.433477,0.36834 -0.645459,0.797253 -0.325881,0.659378 -0.379216,1.163229 -0.172583,1.63036 0.09565,0.216228 0.20303,0.343055 0.33353,0.393934 0.260967,0.101739 0.9459,0.0322 1.384111,-0.140528 0.464911,-0.18325 0.599779,-0.17773 0.735968,0.03012 0.141067,0.215299 0.09387,0.407399 -0.181872,0.74026 -0.335855,0.405422 -0.646048,0.529887 -1.32059,0.529887 -0.488291,0 -0.594264,-0.0208 -0.699666,-0.137258 -0.168877,-0.186606 -0.423618,-0.178928 -0.485049,0.01463 -0.05051,0.159141 -0.05105,1.224377 -7.78e-4,1.460913 0.01606,0.07549 0.03156,0.206747 0.03444,0.291676 0.0076,0.223633 0.177348,0.192968 0.508321,-0.09184 z m -4.705604,-6.090752 c 0.08188,-0.08188 0.06764,-0.149169 -0.09849,-0.465256 l -0.19421,-0.369528 v -2.241899 c 0,-1.233044 0.02062,-2.262511 0.0458,-2.287703 0.02519,-0.02519 0.171191,-0.06262 0.324437,-0.08318 0.252552,-0.03388 0.296443,-0.016 0.468917,0.190873 0.319498,0.383229 0.583562,0.619126 0.663396,0.592632 0.114528,-0.038 0.134098,-1.614727 0.02275,-1.832664 -0.08265,-0.161762 -0.128773,-0.174018 -0.806482,-0.214272 -0.395353,-0.02347 -0.888682,-0.09213 -1.096285,-0.152559 -0.849516,-0.247247 -2.316372,-0.306338 -2.686549,-0.108226 -0.114517,0.06129 -0.127156,0.162371 -0.126212,1.009351 0.0013,1.107394 0.04387,1.233077 0.310735,0.915932 0.236893,-0.281533 0.643312,-0.489414 0.956825,-0.489414 0.398987,0 0.413762,0.08994 0.405908,2.470664 l -0.0069,2.0932 -0.208065,0.514723 c -0.114436,0.283098 -0.199212,0.530164 -0.18839,0.549037 0.01082,0.01888 0.491593,0.02749 1.068385,0.01917 0.789499,-0.01141 1.072369,-0.03881 1.144434,-0.110878 z m -3.827121,-0.172955 c 0,-0.193648 -0.09466,-0.428453 -0.352759,-0.875027 -0.486006,-0.840908 -0.711032,-1.329253 -0.851317,-1.847509 l -0.119603,-0.441845 0.278556,-0.302197 c 0.393519,-0.42692 0.496086,-0.659604 0.496086,-1.125437 0,-1.048456 -0.349102,-1.894606 -0.899942,-2.181265 -0.225047,-0.117116 -1.058982,-0.217735 -2.257017,-0.272323 -0.854956,-0.03896 -0.94358,-0.03143 -1.147703,0.09748 -0.321624,0.203114 -0.348605,0.412245 -0.09784,0.758407 0.113819,0.157124 0.224027,0.36882 0.244905,0.470435 0.02088,0.101618 0.01128,1.157581 -0.0213,2.346589 -0.05827,2.125748 -0.06232,2.169123 -0.243058,2.598728 -0.101094,0.240294 -0.174378,0.518245 -0.162856,0.617666 0.01821,0.157054 0.06146,0.186852 0.329779,0.227153 0.394946,0.05932 1.533674,0.06945 1.67581,0.01489 0.15107,-0.05797 0.135434,-0.276121 -0.04016,-0.560227 -0.130138,-0.210566 -0.146796,-0.326621 -0.133354,-0.928993 0.0092,-0.414055 0.05525,-0.78385 0.115474,-0.927974 l 0.100113,-0.239609 0.177377,0.16537 c 0.179524,0.167372 0.680178,0.903161 0.888017,1.305078 0.10789,0.208636 0.106178,0.233229 -0.03602,0.51795 -0.08211,0.164402 -0.138905,0.352819 -0.126218,0.4187 0.0337,0.174999 0.467864,0.294548 1.290838,0.355439 0.396336,0.02932 0.759216,0.05779 0.806399,0.06325 0.05552,0.0064 0.08579,-0.08346 0.08579,-0.254737 z M 69.30437,54.163268 c -0.01414,-0.02687 -0.02296,-0.388567 -0.01958,-0.803776 l 0.0061,-0.754924 0.334358,-0.02127 c 0.269836,-0.01715 0.365853,0.0083 0.497565,0.132064 0.190336,0.178811 0.220762,0.574436 0.06695,0.870574 -0.148385,0.285691 -0.811371,0.717981 -0.885413,0.57732 z m 10.761378,4.065623 c 0.667133,-0.114279 2.112205,-0.480035 2.30568,-0.583578 0.142357,-0.07619 0.267929,-0.606839 0.267929,-1.132238 0,-0.43452 -0.05658,-0.459141 -0.387468,-0.168617 -0.414879,0.364268 -0.738644,0.489495 -1.207001,0.466853 -0.399451,-0.01932 -0.42421,-0.03076 -0.489083,-0.22623 -0.03972,-0.119674 -0.06466,-1.00718 -0.05956,-2.119461 0.0084,-1.828205 0.01504,-1.920252 0.149443,-2.063309 0.07737,-0.08235 0.140671,-0.16967 0.140671,-0.194032 0,-0.153158 -2.024943,-0.384046 -2.260858,-0.257787 -0.184087,0.09852 -0.179717,0.128537 0.06769,0.46496 0.197077,0.267983 0.212482,0.335569 0.272901,1.197378 0.03522,0.502353 0.09485,1.253082 0.132506,1.668291 0.03766,0.415208 0.0751,1.063757 0.0832,1.44122 0.01364,0.635229 10e-4,0.709276 -0.168973,0.995129 -0.101036,0.169857 -0.184074,0.378319 -0.184528,0.463247 -7.78e-4,0.140661 0.03127,0.154398 0.359477,0.154198 0.198169,-1.19e-4 0.638256,-0.04783 0.977971,-0.106024 z M 65.288031,57.90585 c 0.752049,-0.459505 1.006656,-1.429403 1.216464,-4.633972 0.05185,-0.791901 0.09156,-1.026263 0.207108,-1.222097 0.177734,-0.30124 0.178723,-0.386703 0.0063,-0.542766 -0.24006,-0.217252 -1.583033,-0.07213 -1.908634,0.206247 -0.01141,0.0098 0.0721,0.198849 0.185584,0.420207 0.252986,0.493471 0.389016,1.59996 0.278276,2.26352 -0.03706,0.222048 -0.09963,0.71076 -0.13904,1.086023 -0.103334,0.983897 -0.337364,1.297914 -0.86861,1.165487 -0.424484,-0.105815 -0.633366,-0.516544 -0.782654,-1.538953 -0.122488,-0.83885 0.01414,-2.277085 0.283648,-2.985952 0.1066,-0.280377 -0.108593,-0.333328 -1.072673,-0.263955 l -0.814855,0.05863 -0.02176,0.18921 c -0.01318,0.114504 0.03425,0.26042 0.120101,0.369562 0.132677,0.168669 0.141898,0.269763 0.142383,1.560842 5.19e-4,1.588724 0.06363,2.08896 0.322076,2.555979 0.288091,0.520585 0.949358,1.144697 1.393143,1.314865 0.52348,0.200724 1.121879,0.199539 1.453171,-0.0029 z m 19.513155,-0.937426 c 0.679434,-0.223566 1.411471,-0.455767 1.626752,-0.516001 0.237023,-0.06632 0.433289,-0.169295 0.497565,-0.261061 0.123375,-0.176142 0.138974,-0.549091 0.03137,-0.750137 -0.07392,-0.138116 -0.07685,-0.137763 -0.257361,0.03099 -0.269983,0.252397 -0.55208,0.374898 -1.071682,0.465383 -0.384705,0.06699 -0.475293,0.06471 -0.524668,-0.01323 -0.09061,-0.143047 -0.07329,-0.719942 0.02402,-0.799704 0.177924,-0.145851 0.67333,-0.232969 0.89177,-0.15682 0.372932,0.130004 0.486811,-0.119399 0.315542,-0.691044 -0.08566,-0.285887 -0.20593,-0.330574 -0.43119,-0.160195 -0.08163,0.06174 -0.287595,0.100761 -0.531878,0.100761 h -0.39866 l 0.001,-0.32599 c 0.0016,-0.483135 0.04871,-0.524564 0.545728,-0.479495 0.297151,0.02694 0.50539,0.09278 0.69922,0.221044 0.332674,0.220155 0.491678,0.18941 0.43023,-0.08319 -0.122997,-0.545642 -0.176241,-0.692266 -0.28619,-0.788112 -0.08183,-0.07134 -0.406131,-0.130861 -1.012575,-0.185859 -0.490701,-0.0445 -1.098874,-0.110268 -1.351496,-0.146152 -0.615972,-0.0875 -0.997616,-0.08224 -1.057442,0.01455 -0.04602,0.07446 0.202247,0.337831 0.474669,0.503548 0.148063,0.09007 0.317791,1.053452 0.369728,2.098599 0.04956,0.997199 -0.0026,1.347968 -0.256314,1.722264 -0.230346,0.33989 -0.267005,0.605591 -0.08362,0.606035 0.06606,1.61e-4 0.676002,-0.182624 1.355433,-0.406188 z M 59.81724,56.898434 c 0.02179,-0.03526 -0.02106,-0.181955 -0.09523,-0.32599 -0.212651,-0.41297 -0.312069,-1.548959 -0.218991,-2.502215 0.04225,-0.43265 0.07681,-0.820585 0.07681,-0.862076 0,-0.08146 0.355122,-0.226124 0.555101,-0.226124 0.06757,0 0.267374,0.12509 0.444022,0.277975 0.473099,0.409466 0.540835,0.363723 0.565223,-0.381693 0.02721,-0.831832 -0.0013,-0.926137 -0.278852,-0.924088 -0.121956,7.78e-4 -0.34527,0.03103 -0.496254,0.06695 -0.150987,0.03592 -0.691444,0.09757 -1.201018,0.136985 -1.123738,0.08693 -1.772335,0.176806 -2.238683,0.310214 l -0.351371,0.100518 -0.04806,0.487718 c -0.02643,0.268243 -0.03024,0.505538 -0.0085,0.527324 0.02179,0.02179 0.171904,-0.02647 0.333603,-0.10722 0.161697,-0.08075 0.458213,-0.182046 0.658922,-0.225091 0.579567,-0.124296 0.590277,-0.09949 0.590277,1.366828 v 1.21974 l -0.18873,0.224295 c -0.103802,0.123362 -0.18873,0.247746 -0.18873,0.276408 0,0.02866 0.302614,0.13326 0.672477,0.232439 0.369863,0.09918 0.779067,0.22657 0.909341,0.283083 0.275096,0.119341 0.452543,0.1347 0.508586,0.04402 z m 19.107211,-6.507679 c 0.120356,-0.224886 0.128182,-1.20288 0.0111,-1.388033 -0.05416,-0.08565 -0.09468,-0.07349 -0.256311,0.07695 -0.105588,0.09828 -0.276424,0.198572 -0.379634,0.222879 -0.249961,0.05886 -1.071254,-0.151417 -1.143628,-0.292812 -0.07252,-0.141693 -0.149215,-1.08213 -0.09893,-1.21317 0.02683,-0.06992 0.150688,-0.09901 0.421515,-0.09901 0.320633,0 0.414415,0.0296 0.571912,0.180489 0.121544,0.116447 0.229475,0.164721 0.304178,0.136054 0.100173,-0.03844 0.109449,-0.111384 0.06876,-0.540794 -0.05308,-0.560227 -0.156696,-1.011081 -0.232357,-1.011081 -0.02789,0 -0.12006,0.04857 -0.204817,0.107936 -0.140629,0.0985 -0.185462,0.09771 -0.512835,-0.0091 -0.197303,-0.06436 -0.400525,-0.150244 -0.451606,-0.190852 -0.130798,-0.103985 -0.07606,-0.900867 0.07205,-1.048982 0.100676,-0.100676 0.146123,-0.09177 0.54573,0.106942 0.297183,0.147781 0.510033,0.314819 0.668833,0.524881 0.128106,0.169465 0.267081,0.296046 0.308832,0.281292 0.0923,-0.03261 0.07327,-0.835535 -0.03038,-1.281987 -0.129531,-0.557927 -0.186707,-0.593209 -1.401812,-0.865015 -0.601535,-0.13456 -1.213061,-0.305545 -1.358943,-0.379971 -0.283684,-0.144722 -0.740488,-0.151853 -0.786301,-0.01227 -0.01463,0.04456 0.08207,0.201289 0.214871,0.348287 0.132804,0.146999 0.271438,0.346113 0.308074,0.442473 0.142022,0.373551 0.223151,1.583606 0.201645,3.007597 l -0.02231,1.477346 -0.228567,0.355952 c -0.406597,0.6332 -0.289769,0.71436 1.25801,0.873927 0.603942,0.06226 1.283373,0.154468 1.509852,0.204903 0.555024,0.123598 0.56915,0.123274 0.64307,-0.01484 z m -12.413036,-0.46795 c 0.24535,-0.05244 0.603441,-0.09589 0.795759,-0.09654 0.254513,-7.78e-4 0.381577,-0.03645 0.46692,-0.130755 0.110878,-0.122516 0.109601,-0.142113 -0.02342,-0.360304 -0.126602,-0.207661 -0.140477,-0.340596 -0.138687,-1.328818 0.001,-0.603939 0.0295,-1.298811 0.06313,-1.544163 0.277235,-2.022824 0.222017,-1.830859 0.555376,-1.930736 0.274211,-0.08216 0.278966,-0.08045 0.568125,0.203333 0.16038,0.157399 0.340174,0.286182 0.399542,0.286182 0.1275,0 0.194175,-0.428785 0.195099,-1.254642 5.18e-4,-0.432508 -0.02086,-0.542262 -0.112217,-0.577323 -0.06205,-0.02381 -0.394043,0.02259 -0.737767,0.103119 -0.343727,0.08052 -0.825697,0.179838 -1.071048,0.220694 -0.959715,0.159819 -2.352588,0.662641 -2.435724,0.879291 -0.04561,0.118857 -0.237464,1.405654 -0.23957,1.606832 -0.0018,0.179963 0.0823,0.143021 0.273259,-0.119918 0.09437,-0.129932 0.295107,-0.325435 0.446094,-0.434453 0.290716,-0.209911 0.770352,-0.396732 0.839927,-0.327159 0.07951,0.07951 0.01315,2.276986 -0.09241,3.060517 -0.07788,0.578011 -0.169183,0.934827 -0.341144,1.333204 -0.129141,0.29918 -0.234802,0.557315 -0.234802,0.573633 0,0.01631 0.08493,0.008 0.188732,-0.0185 0.103802,-0.02649 0.389473,-0.09106 0.634825,-0.143508 z m 7.854853,-0.108751 c 0.197751,-0.0901 0.221672,-0.234672 0.07377,-0.445837 -0.121028,-0.172793 -0.227143,-1.571742 -0.280473,-3.697635 l -0.03622,-1.443623 0.203739,-0.303358 c 0.212843,-0.316916 0.20323,-0.486478 -0.03271,-0.577014 -0.171325,-0.06574 -1.335354,-0.24662 -1.589146,-0.246934 -0.272432,-2.6e-4 -0.278167,0.0639 -0.05147,0.576493 0.175019,0.395749 0.228875,1.04119 0.128682,1.542168 -0.04171,0.208573 -0.05312,0.214467 -0.415186,0.214467 -0.20476,0 -0.463408,-0.04712 -0.574773,-0.104707 L 71.59,45.223367 v -0.703212 c 0,-0.675916 0.0078,-0.712653 0.20054,-0.946498 0.320795,-0.389179 0.09733,-0.53945 -0.882482,-0.593442 -0.778608,-0.0429 -0.965167,0.01961 -0.965167,0.323415 0,0.109684 0.03005,0.217991 0.06677,0.240685 0.07749,0.04789 0.196794,0.462868 0.274621,0.95518 0.0299,0.18913 0.02769,1.154068 -0.0049,2.144313 -0.05513,1.674913 -0.07107,1.830638 -0.228748,2.233493 -0.240022,0.613248 -0.243261,0.685936 -0.03314,0.74378 0.09765,0.02688 0.533406,0.07111 0.968352,0.09829 0.748055,0.04674 0.792701,0.04218 0.825783,-0.08432 0.01925,-0.07355 -0.0235,-0.261265 -0.09495,-0.417136 -0.181766,-0.396489 -0.263934,-0.890785 -0.263934,-1.587715 0,-0.749624 0.07406,-0.83987 0.723184,-0.881203 0.415469,-0.02645 0.444549,-0.01847 0.504213,0.138458 0.03482,0.09159 0.08495,0.504355 0.111399,0.917253 0.04237,0.661604 0.03094,0.801382 -0.09632,1.177491 -0.253175,0.748234 -0.260853,0.739646 0.747923,0.836695 0.320766,0.03086 0.62036,0.06032 0.665766,0.06546 0.04541,0.0051 0.16122,-0.02649 0.257362,-0.07029 z M 46.65444,59.056341 c -0.304998,-0.159074 -1.474378,-0.983236 -1.974544,-1.391628 -1.074935,-0.877694 -1.466231,-1.784286 -1.458299,-3.378721 0.0035,-0.698917 0.03162,-0.933151 0.151913,-1.264163 0.355682,-0.978769 0.644606,-1.2641 2.249046,-2.221081 0.927369,-0.553133 1.229493,-0.701158 1.431099,-0.701158 0.415261,0 1.458521,0.387655 2.231744,0.829269 1.000247,0.57128 3.169121,2.145875 3.248035,2.358064 0.01484,0.03991 -0.0026,0.304194 -0.03854,0.587291 -0.03604,0.283098 -0.0468,0.937704 -0.02392,1.45468 l 0.04161,0.93996 -0.532683,0.403622 c -1.547486,1.172558 -3.239327,2.096519 -4.34601,2.373477 -0.553966,0.138637 -0.729996,0.140502 -0.979465,0.01038 z M 86.173778,44.593567 C 85.918471,44.334283 85.115237,43.666318 84.65671,43.331976 l -0.19867,-0.144866 0.572966,-0.288241 c 0.958589,-0.482235 2.595851,-0.966194 3.268702,-0.966194 0.217436,0 0.240779,0.01704 0.211556,0.154416 -0.01805,0.08493 -0.081,0.401484 -0.139851,0.703453 -0.09906,0.508316 -0.131081,0.572091 -0.431706,0.859879 -0.592697,0.567385 -1.3688,1.233403 -1.430539,1.227629 -0.03348,-0.0031 -0.184406,-0.131151 -0.33539,-0.284485 z M 59.875594,42.229564 c -0.03056,-0.144416 -0.05388,-0.803032 -0.05183,-1.46359 0.0032,-1.020406 0.02655,-1.283583 0.155507,-1.750054 0.509019,-1.84131 1.709147,-3.249831 3.684018,-4.32372 1.060144,-0.576483 2.813633,-1.185684 4.221314,-1.46658 0.866945,-0.172995 3.161537,-0.507005 3.202387,-0.466153 0.016,0.016 -0.287696,0.224879 -0.674886,0.464174 -1.869153,1.1552 -2.946818,2.222528 -3.56459,3.530401 -0.329534,0.697645 -0.669012,1.905798 -0.732943,2.608434 l -0.04925,0.541292 -0.343146,0.09056 c -0.639924,0.168882 -1.713805,0.509063 -2.161832,0.684819 -1.090132,0.427652 -2.796308,1.26727 -3.463364,1.70434 -0.163666,0.107239 -0.166548,0.105236 -0.221385,-0.153923 z"
       id="path1" /></g></svg>
